<svg width="24" height="24" viewBox="0 0 24 24"  xmlns="http://www.w3.org/2000/svg">
<path d="M11.9999 6C13.1045 6 13.9999 5.10457 13.9999 4C13.9999 2.89543 13.1045 2 11.9999 2C10.8954 2 9.99994 2.89543 9.99994 4C9.99994 5.10457 10.8954 6 11.9999 6Z" />
<path d="M18.9999 13V11C17.4599 11.02 15.9099 10.25 14.9299 9.17L13.6399 7.74C13.4699 7.55 13.2599 7.4 13.0299 7.29C13.0199 7.29 13.0199 7.28 13.0099 7.28H12.9999C12.6499 7.08 12.2499 6.98 11.8099 7.02C10.7599 7.11 9.99994 8.04 9.99994 9.09V15C9.99994 16.1 10.8999 17 11.9999 17H16.9999V22H18.9999V16.5C18.9999 15.4 18.0999 14.5 16.9999 14.5H13.9999V11.05C15.2899 12.12 17.2499 12.99 18.9999 13ZM9.99994 20C8.33994 20 6.99994 18.66 6.99994 17C6.99994 15.69 7.83994 14.59 8.99994 14.17V12.1C8.11503 12.2809 7.29564 12.6981 6.62881 13.3073C5.96198 13.9165 5.47262 14.6949 5.21271 15.5599C4.9528 16.4249 4.93205 17.3442 5.15267 18.22C5.37328 19.0959 5.82702 19.8956 6.46569 20.5343C7.10435 21.1729 7.90408 21.6267 8.77993 21.8473C9.65578 22.0679 10.575 22.0471 11.44 21.7872C12.305 21.5273 13.0835 21.038 13.6927 20.3711C14.3019 19.7043 14.7191 18.8849 14.8999 18H12.8299C12.4199 19.16 11.3099 20 9.99994 20Z" />
</svg>
