<svg width="24" height="24" viewBox="0 0 24 24">
<path fill-rule="evenodd" clip-rule="evenodd" d="M3.793 18.156C3.58268 18.156 3.38099 18.0725 3.23227 17.9238C3.08355 17.775 3 17.5733 3 17.363C3.00026 17.1528 3.0839 16.9512 3.23256 16.8026C3.38122 16.6539 3.58276 16.5703 3.793 16.57H5.793L5.806 16.484C6.04043 15.0096 6.79406 13.6675 7.93094 12.6999C9.06782 11.7323 10.5131 11.2028 12.006 11.207C13.4989 11.2028 14.9442 11.7323 16.0811 12.6999C17.2179 13.6675 17.9716 15.0096 18.206 16.484L18.219 16.57H20.219C20.4292 16.5703 20.6308 16.6539 20.7794 16.8026C20.9281 16.9512 21.0117 17.1528 21.012 17.363C21.0117 17.5733 20.9281 17.7748 20.7794 17.9235C20.6308 18.0721 20.4292 18.1558 20.219 18.156H3.793ZM11.999 12.793C10.9357 12.789 9.90327 13.1497 9.07393 13.8151C8.24459 14.4805 7.66856 15.4102 7.442 16.449L7.416 16.57H16.583L16.557 16.449C16.3304 15.41 15.7542 14.4802 14.9247 13.8148C14.0951 13.1494 13.0624 12.7887 11.999 12.793ZM18.435 11.846C18.2271 11.8468 18.0274 11.7656 17.879 11.62C17.8008 11.5454 17.7384 11.4558 17.6958 11.3564C17.6532 11.2571 17.6311 11.1501 17.631 11.042C17.6307 10.9368 17.6515 10.8325 17.6922 10.7355C17.7329 10.6384 17.7927 10.5505 17.868 10.477L19.168 9.20102C19.316 9.05554 19.5154 8.97433 19.723 8.97502C19.9305 8.97433 20.13 9.05554 20.278 9.20102C20.3563 9.27541 20.4187 9.36488 20.4615 9.46405C20.5043 9.56321 20.5266 9.67002 20.527 9.77802C20.5273 9.88342 20.5066 9.98782 20.4659 10.085C20.4251 10.1823 20.3653 10.2703 20.29 10.344L18.99 11.62C18.842 11.7655 18.6425 11.8467 18.435 11.846ZM5.564 11.846C5.35603 11.8464 5.15628 11.7648 5.008 11.619L3.70799 10.344C3.63264 10.2703 3.57284 10.1823 3.53214 10.085C3.49143 9.98782 3.47064 9.88342 3.47099 9.77802C3.47064 9.67262 3.49143 9.56822 3.53214 9.471C3.57284 9.37378 3.63264 9.28572 3.70799 9.21202C3.78213 9.13691 3.8704 9.07721 3.96771 9.03637C4.06502 8.99552 4.16946 8.97433 4.27499 8.97402C4.48266 8.9737 4.68208 9.05526 4.83 9.20102L6.13 10.476C6.20535 10.5497 6.26514 10.6378 6.30585 10.735C6.34656 10.8322 6.36736 10.9366 6.367 11.042C6.36736 11.1474 6.34656 11.2518 6.30585 11.349C6.26514 11.4463 6.20535 11.5343 6.13 11.608C6.05598 11.683 5.96787 11.7426 5.87074 11.7835C5.77361 11.8243 5.66936 11.8456 5.564 11.846ZM11.984 9.21802C11.7736 9.21776 11.5719 9.13398 11.4232 8.98511C11.2745 8.83623 11.191 8.63443 11.191 8.42402V6.63702C11.191 6.53288 11.2115 6.42976 11.2514 6.33355C11.2912 6.23734 11.3496 6.14992 11.4233 6.07628C11.4969 6.00265 11.5843 5.94424 11.6805 5.90438C11.7767 5.86453 11.8799 5.84402 11.984 5.84402C12.0905 5.84068 12.1967 5.85868 12.2962 5.89695C12.3957 5.93522 12.4866 5.99299 12.5634 6.06687C12.6403 6.14075 12.7016 6.22924 12.7438 6.32715C12.7859 6.42506 12.8081 6.53042 12.809 6.63702V8.42402C12.809 8.63443 12.7255 8.83623 12.5768 8.98511C12.4281 9.13398 12.2264 9.21776 12.016 9.21802H11.984Z"/>
</svg>
