<svg width="24" height="24" viewBox="0 0 24 24"  xmlns="http://www.w3.org/2000/svg">
<path d="M17 5H3C2.46957 5 1.96086 5.21071 1.58579 5.58579C1.21071 5.96086 1 6.46957 1 7V16H3C3 17.66 4.34 19 6 19C7.66 19 9 17.66 9 16H15C15 17.66 16.34 19 18 19C19.66 19 21 17.66 21 16H23V11L17 5ZM15 7H16L19 10H15V7ZM9 7H13V10H9V7ZM3 7H7V10H3V7ZM6 17.25C5.66848 17.25 5.35054 17.1183 5.11612 16.8839C4.8817 16.6495 4.75 16.3315 4.75 16C4.75 15.6685 4.8817 15.3505 5.11612 15.1161C5.35054 14.8817 5.66848 14.75 6 14.75C6.33152 14.75 6.64946 14.8817 6.88388 15.1161C7.1183 15.3505 7.25 15.6685 7.25 16C7.25 16.3315 7.1183 16.6495 6.88388 16.8839C6.64946 17.1183 6.33152 17.25 6 17.25ZM18 17.25C17.6685 17.25 17.3505 17.1183 17.1161 16.8839C16.8817 16.6495 16.75 16.3315 16.75 16C16.75 15.6685 16.8817 15.3505 17.1161 15.1161C17.3505 14.8817 17.6685 14.75 18 14.75C18.3315 14.75 18.6495 14.8817 18.8839 15.1161C19.1183 15.3505 19.25 15.6685 19.25 16C19.25 16.3315 19.1183 16.6495 18.8839 16.8839C18.6495 17.1183 18.3315 17.25 18 17.25ZM21 14H20.22C19.67 13.39 18.88 13 18 13C17.12 13 16.33 13.39 15.78 14H8.22C7.67 13.39 6.89 13 6 13C5.11 13 4.33 13.39 3.78 14H3V12H21V14Z" />
</svg>
