<svg xmlns="http://www.w3.org/2000/svg" id="prefix__Icons_Arrow_Down" width="24" height="24" data-name="Icons / Arrow / Down" viewBox="0 0 24 24">
    <path id="prefix__Rectangle_26" d="M0 0H24V24H0z" data-name="Rectangle 26" style="fill:none"/>
    <path id="prefix__Path_38" d="M15.6-80a.73.73 0 0 1-.529-.224l-7.146-7.147A.864.864 0 0 1 7.646-88a.848.848 0 0 1 .282-.632l7.15-7.146A.7.7 0 0 1 15.6-96a.76.76 0 0 1 .759.776.83.83 0 0 1-.235.574l-6.666 6.641 6.663 6.662a.806.806 0 0 1 .233.572.751.751 0 0 1-.754.775z" data-name="Path 38" transform="rotate(-90 62 -38)" style="fill-rule:evenodd"/>
</svg>
