<svg width="12" height="16" viewBox="0 0 12 16" fill="none" xmlns="http://www.w3.org/2000/svg">
<path d="M2.5 8.5C2.5 8.22386 2.72386 8 3 8H9C9.27614 8 9.5 8.22386 9.5 8.5C9.5 8.77614 9.27614 9 9 9H3C2.72386 9 2.5 8.77614 2.5 8.5Z" fill="#707070"/>
<path d="M3 5.5C2.72386 5.5 2.5 5.72386 2.5 6C2.5 6.27614 2.72386 6.5 3 6.5H9C9.27614 6.5 9.5 6.27614 9.5 6C9.5 5.72386 9.27614 5.5 9 5.5H3Z" fill="#707070"/>
<path d="M2.5 11C2.5 10.7239 2.72386 10.5 3 10.5H9C9.27614 10.5 9.5 10.7239 9.5 11C9.5 11.2761 9.27614 11.5 9 11.5H3C2.72386 11.5 2.5 11.2761 2.5 11Z" fill="#707070"/>
<path fill-rule="evenodd" clip-rule="evenodd" d="M3.5 2V1C3.5 0.447715 3.94772 0 4.5 0H7.5C8.05228 0 8.5 0.447715 8.5 1V2H10C11.1046 2 12 2.89543 12 4V13C12 14.1046 11.1046 15 10 15H9V15.5C9 15.7761 8.77614 16 8.5 16C8.22386 16 8 15.7761 8 15.5V15H4V15.5C4 15.7761 3.77614 16 3.5 16C3.22386 16 3 15.7761 3 15.5V15H2C0.895431 15 0 14.1046 0 13V4C0 2.89543 0.895431 2 2 2H3.5ZM4.5 1H7.5V2H4.5V1ZM2 3C1.44772 3 1 3.44772 1 4V13C1 13.5523 1.44772 14 2 14H10C10.5523 14 11 13.5523 11 13V4C11 3.44772 10.5523 3 10 3H2Z" fill="#707070"/>
</svg>
