<svg width="24" height="24" viewBox="0 0 24 24"  xmlns="http://www.w3.org/2000/svg">
<path d="M21 19.57L19.57 21L13.13 14.56L14.56 13.13L21 19.57ZM13.12 3C10.54 3 7.95999 4 5.99999 5.95L5.96999 5.96C5.02647 6.89741 4.27768 8.01218 3.76671 9.24013C3.25573 10.4681 2.99268 11.785 2.99268 13.115C2.99268 14.445 3.25573 15.7619 3.76671 16.9899C4.27768 18.2178 5.02647 19.3326 5.96999 20.27L20.27 5.96C18.3724 4.06582 15.8012 3.00136 13.12 3ZM6.13999 17.27C5.53262 16.253 5.15681 15.1146 5.03928 13.9358C4.92175 12.7571 5.06539 11.5669 5.45999 10.45C5.64999 12.36 6.34999 14.24 7.52999 15.89L6.13999 17.27ZM8.99999 14.43C7.62999 12.38 7.11999 9.93 7.59999 7.6C8.17999 7.5 8.75999 7.42 9.34999 7.42C11.15 7.42 12.9 7.97 14.43 9L8.99999 14.43ZM10.45 5.46C11.5669 5.0654 12.7571 4.92175 13.9358 5.03928C15.1146 5.15681 16.253 5.53263 17.27 6.14L15.88 7.53C14.2825 6.37636 12.41 5.66255 10.45 5.46Z" />
</svg>
