<svg width="16" height="16" viewBox="0 0 16 16" fill="none" xmlns="http://www.w3.org/2000/svg">
<path fill-rule="evenodd" clip-rule="evenodd" d="M12 5.49975C12.2761 5.49975 12.5 5.72361 12.5 5.99975V7H13.078C14.2409 7 15.1157 8.07027 14.9876 9.25676L14.973 9.362L14.9561 9.45645C14.7798 10.3143 14.0792 10.9513 13.2377 10.9973L13.14 11H11.5C11.4591 11 11.4193 10.9951 11.3813 10.9858C11.0792 11.371 10.7249 11.7128 10.329 12.0005L13 12C13.2761 12 13.5 12.2239 13.5 12.5C13.5 13.8806 12.3806 15 11 15H3.5C2.11936 15 1 13.8806 1 12.5C1 12.2239 1.22386 12 1.5 12L4.17096 12.0005C2.85545 11.0444 2 9.49166 2 7.73875V5.99975C2 5.72361 2.22386 5.49975 2.5 5.49975H12ZM12.4145 13H2.085L2.12337 13.0966C2.34301 13.6027 2.83351 13.9639 3.41187 13.9975L3.5 14H11C11.6509 14 12.205 13.5854 12.4125 13.0059L12.4145 13ZM11.5 6.4995H3V7.73875C3 10.0496 4.83436 11.9302 7.12243 11.9979L7.25 11.9998C9.59707 11.9998 11.5 10.0924 11.5 7.73875V6.4995ZM13.078 8L12.4936 8.00025C12.4588 8.71342 12.2823 9.38929 11.9916 10.0002L13.14 10C13.5267 10 13.8709 9.70745 13.9702 9.28432L13.9865 9.198L13.9956 9.12694C14.0469 8.54614 13.6523 8.04356 13.1448 8.00268L13.078 8ZM7.25 1C7.50642 1 7.71775 1.19302 7.74664 1.44169L7.75 1.5V4C7.75 4.27614 7.52614 4.5 7.25 4.5C6.99358 4.5 6.78225 4.30698 6.75336 4.05831L6.75 4V1.5C6.75 1.22386 6.97386 1 7.25 1ZM5.25 2C5.50642 2 5.71775 2.19302 5.74664 2.44169L5.75 2.5V4C5.75 4.27614 5.52614 4.5 5.25 4.5C4.99358 4.5 4.78225 4.30698 4.75336 4.05831L4.75 4V2.5C4.75 2.22386 4.97386 2 5.25 2ZM9.25 2.5C9.50642 2.5 9.71775 2.69302 9.74664 2.94169L9.75 3V4C9.75 4.27614 9.52614 4.5 9.25 4.5C8.99358 4.5 8.78225 4.30698 8.75336 4.05831L8.75 4V3C8.75 2.72386 8.97386 2.5 9.25 2.5Z" fill="#3D3D3D"/>
</svg>
