<svg width="12" height="13" viewBox="0 0 12 13" fill="none" xmlns="http://www.w3.org/2000/svg">
<g id="Cabin Class/Business">
<path id="Vector" d="M8.18 6.41076C9.155 6.74076 10 7.28076 10 8.03076V10.5308H2V8.03076C2 7.28076 2.845 6.74076 3.825 6.41076L4.135 7.03076L4.25 7.28076C3.5 7.51076 2.95 7.84076 2.95 8.03076V9.58076H5.06L5.5 7.04576L5.03 6.10576C5.34 6.07076 5.665 6.04576 6 6.04576C6.335 6.04576 6.66 6.07076 6.97 6.10576L6.5 7.04576L6.94 9.58076H9.05V8.03076C9.05 7.84076 8.5 7.51076 7.75 7.28076L7.865 7.03076L8.18 6.41076ZM6 2.53076C5.45 2.53076 5 2.98076 5 3.53076C5 4.08076 5.45 4.53076 6 4.53076C6.55 4.53076 7 4.08076 7 3.53076C7 2.98076 6.55 2.53076 6 2.53076ZM6 5.53076C4.895 5.53076 4 4.63576 4 3.53076C4 2.42576 4.895 1.53076 6 1.53076C7.105 1.53076 8 2.42576 8 3.53076C8 4.63576 7.105 5.53076 6 5.53076Z"/>
</g>
</svg>
