<svg width="16" height="16" viewBox="0 0 16 16" fill="none" xmlns="http://www.w3.org/2000/svg">
<path d="M2 4H14V6.06667C13.3067 6.06667 12.9 6.48 12.8 6.58L12.7933 6.59333L12.6667 6.71333V6.66667C12.3133 6.66667 11.9733 6.52667 11.7267 6.27333C11.4733 6.02667 11.3333 5.68667 11.3333 5.33333H4.66667C4.66667 5.68667 4.52667 6.02667 4.27333 6.27333C4.02667 6.52667 3.68667 6.66667 3.33333 6.66667V9.33333C3.68667 9.33333 4.02667 9.47333 4.27333 9.72667C4.52667 9.97333 4.66667 10.3133 4.66667 10.6667H8.71333L7.38 12H2V4ZM8 6C8.53333 6 9.04 6.21333 9.41333 6.58667C9.59894 6.77227 9.74616 6.99261 9.84661 7.23511C9.94706 7.47761 9.99876 7.73752 9.99876 8C9.99876 8.26248 9.94706 8.52239 9.84661 8.76489C9.74616 9.00739 9.59894 9.22773 9.41333 9.41333C9.22773 9.59894 9.00739 9.74616 8.76489 9.84661C8.52239 9.94706 8.26248 9.99876 8 9.99876C7.73752 9.99876 7.47761 9.94706 7.23511 9.84661C6.99261 9.74616 6.77227 9.59894 6.58667 9.41333C6.30634 9.13401 6.11527 8.77773 6.03769 8.38968C5.96011 8.00162 5.99952 7.59927 6.15092 7.23363C6.30231 6.868 6.55887 6.55557 6.88807 6.33594C7.21726 6.11631 7.60427 5.99939 8 6ZM15.1333 8.4L14.2667 7.53333C14.2 7.46667 14.1333 7.4 14 7.4C13.8667 7.4 13.8 7.46667 13.7333 7.53333L13.0667 8.2L14.4667 9.6L15.1333 8.93333C15.2667 8.8 15.2667 8.53333 15.1333 8.4ZM10.0667 14L14.0667 9.93333L12.7333 8.53333L8.66667 12.6V14H10.0667Z" fill="#00A354"/>
</svg>
