<svg width="13" height="11" viewBox="0 0 13 11" fill="none" xmlns="http://www.w3.org/2000/svg">
<path d="M10.3333 7.2C9.86667 7.2 9.53333 6.8 9.53333 6.4C9.53333 5.93333 9.93333 5.6 10.3333 5.6C10.7333 5.6 11.1333 6 11.1333 6.4C11.2 6.8 10.8 7.2 10.3333 7.2ZM10.3333 4C9.06667 4 8 5.06667 8 6.33333C8 8.06667 10.3333 10.6667 10.3333 10.6667C10.3333 10.6667 12.6667 8.06667 12.6667 6.33333C12.6667 5.06667 11.6 4 10.3333 4ZM7.93333 3.53333C7.73333 2.66667 6.93333 2 6 2C4.86667 2 4 2.86667 4 4C4 5.13333 4.86667 6 6 6C6.26667 6 6.46667 5.93333 6.66667 5.86667C6.8 4.93333 7.26667 4.13333 7.93333 3.53333ZM6.66667 6.66667H2.66667C2.66667 6.31305 2.52619 5.97391 2.27614 5.72386C2.02609 5.47381 1.68696 5.33333 1.33333 5.33333V2.66667C1.68696 2.66667 2.02609 2.52619 2.27614 2.27614C2.52619 2.02609 2.66667 1.68696 2.66667 1.33333H9.33333C9.33333 1.68696 9.47381 2.02609 9.72386 2.27614C9.97391 2.52619 10.313 2.66667 10.6667 2.66667C10.6667 2.66667 11.3333 2.66667 12 3.06667V0H0V8H7C6.86667 7.53333 6.73333 7.13333 6.66667 6.66667Z" fill="#1F1F1F"/>
</svg>
