<svg width="24" height="24" viewBox="0 0 24 24"  xmlns="http://www.w3.org/2000/svg">
<path d="M3 6V18H13.32C13.1075 17.3546 12.9995 16.6795 13 16H7C7 15.4696 6.78929 14.9609 6.41421 14.5858C6.03914 14.2107 5.53043 14 5 14V10C6.11 10 7 9.11 7 8H17C17 8.53043 17.2107 9.03914 17.5858 9.41421C17.9609 9.78929 18.4696 10 19 10V10.06C19.67 10.06 20.34 10.18 21 10.4V6H3ZM12 9C10.3 9.03 9 10.3 9 12C9 13.7 10.3 14.94 12 15C12.38 15 12.77 14.92 13.14 14.77C13.41 13.67 13.86 12.63 14.97 11.61C14.85 10.28 13.59 8.97 12 9ZM21.63 12.27L17.76 16.17L16.41 14.8L15 16.22L17.75 19L23.03 13.68L21.63 12.27Z" />
</svg>
