<svg width="16" height="16" viewBox="0 0 16 16" fill="none" xmlns="http://www.w3.org/2000/svg">
<path d="M2 4V12H8.88C8.73834 11.5698 8.66633 11.1196 8.66667 10.6667H4.66667C4.66667 10.313 4.52619 9.97391 4.27614 9.72386C4.02609 9.47381 3.68696 9.33333 3.33333 9.33333V6.66667C4.07333 6.66667 4.66667 6.07333 4.66667 5.33333H11.3333C11.3333 5.68696 11.4738 6.02609 11.7239 6.27614C11.9739 6.52619 12.313 6.66667 12.6667 6.66667V6.70667C13.1133 6.70667 13.56 6.78667 14 6.93333V4H2ZM8 6C6.86667 6.02 6 6.86667 6 8C6 9.13333 6.86667 9.96 8 10C8.25333 10 8.51333 9.94667 8.76 9.84667C8.94 9.11333 9.24 8.42 9.98 7.74C9.9 6.85333 9.06 5.98 8 6ZM12.6667 7.33333L14.1667 8.83333L12.6667 10.3333V9.33333C11.4333 9.33333 10.6267 10.64 11.1733 11.7467L10.4467 12.4733C9.27333 10.7 10.54 8.33333 12.6667 8.33333V7.33333ZM12.6667 14.6667L11.1667 13.1667L12.6667 11.6667V12.6667C13.9 12.6667 14.7067 11.36 14.16 10.2533L14.8867 9.52667C16.06 11.3 14.7933 13.6667 12.6667 13.6667V14.6667Z" fill="#00A354"/>
</svg>
