<svg width="16" height="16" viewBox="0 0 16 16" fill="none" xmlns="http://www.w3.org/2000/svg">
<path d="M10.3067 12.08L11.2533 13.0267L12.6667 11.6067L14.08 13.0267L15.0267 12.08L13.6067 10.6667L15.0267 9.25333L14.08 8.30667L12.6667 9.72667L11.2533 8.30667L10.3067 9.25333L11.7267 10.6667M9.98 7.74667C9.90667 6.85333 9.05333 5.98 8 6C6.86667 6.02667 6 6.86667 6 8C6 9.13333 6.86667 9.96 8 10C8.26 10 8.51333 9.94667 8.76 9.84667C8.94 9.11333 9.24 8.42 9.98 7.74667ZM8.66667 10.6667H4.66667C4.66667 9.93333 4.06667 9.33333 3.33333 9.33333V6.66667C4.06667 6.66667 4.66667 6.06667 4.66667 5.33333H11.3333C11.3333 6.06667 11.9333 6.66667 12.6667 6.66667V6.7C13.1133 6.70667 13.56 6.78667 14 6.93333V4H2V12H8.88C8.73834 11.5698 8.66633 11.1196 8.66667 10.6667Z" fill="#A31600"/>
</svg>
