<svg width="21" height="20" viewBox="0 0 21 20" xmlns="http://www.w3.org/2000/svg">
<path d="M11.5833 3.33333V1.66667C15.4667 2.08333 18.525 5.15833 18.9583 9.04167C19.4583 13.6167 16.1667 17.7333 11.5833 18.2333V16.5667C14.6167 16.1917 17 13.8 17.3833 10.7667C17.4913 9.89765 17.4268 9.01587 17.1937 8.17178C16.9605 7.32769 16.5632 6.53785 16.0245 5.84745C15.4858 5.15705 14.8163 4.57963 14.0542 4.14824C13.2922 3.71684 12.4525 3.43992 11.5833 3.33333ZM5.475 3.5C6.73812 2.45716 8.28572 1.81837 9.91666 1.66667V3.38333C8.725 3.55 7.6 4.03333 6.66667 4.78333L5.475 3.5ZM2.45833 9.16667C2.61308 7.53497 3.25473 5.98746 4.3 4.725L5.49167 5.91667C4.75332 6.85808 4.28133 7.9805 4.125 9.16667H2.45833ZM4.30833 15.275C3.27306 14.0065 2.63273 12.4622 2.46667 10.8333H4.13333C4.28333 12.0167 4.75833 13.1417 5.49167 14.0833L4.30833 15.275ZM5.475 16.45L6.63333 15.3083H6.66667C7.60833 16.0417 8.73333 16.5167 9.91666 16.6667V18.3333C8.28333 18.1583 6.73333 17.5 5.475 16.45ZM10.75 14.1667L12.05 11.3167L14.9167 10L12.05 8.7L10.75 5.83333L9.44166 8.7L6.58333 10L9.44166 11.3167L10.75 14.1667Z"/>
</svg>
