<svg width="24" height="24" viewBox="0 0 24 24" fill="none" xmlns="http://www.w3.org/2000/svg">
<path d="M15.75 3C16.1346 3 16.4516 3.28953 16.495 3.66253L16.5 3.75V4.5H18.75C19.9478 4.5 20.9277 5.43709 20.9962 6.61784L21 6.75V10.5C21 10.9142 20.6642 11.25 20.25 11.25C19.8654 11.25 19.5484 10.9605 19.505 10.5875L19.5 10.5V9.75H4.5V18.75C4.5 19.1342 4.7899 19.4516 5.16261 19.4949L5.25 19.5H18.75C19.1342 19.5 19.4516 19.2101 19.4949 18.8374L19.5 18.75V18C19.5 17.5858 19.8358 17.25 20.25 17.25C20.6346 17.25 20.9516 17.5395 20.995 17.9125L21 18V18.75C21 19.9478 20.0629 20.9277 18.8822 20.9962L18.75 21H5.25C4.05215 21 3.07228 20.0629 3.00382 18.8822L3 18.75V6.75C3 5.55215 3.93709 4.57228 5.11784 4.50382L5.25 4.5H7.5V3.75C7.5 3.33579 7.83579 3 8.25 3C8.63463 3 8.95163 3.28953 8.99495 3.66253L9 3.75V4.5H15V3.75C15 3.33579 15.3358 3 15.75 3ZM17.7097 10.6573L17.7803 10.7197L20.7803 13.7197C20.8017 13.741 20.8217 13.7636 20.8404 13.7874L20.7803 13.7197C20.8069 13.7462 20.831 13.7743 20.8527 13.8035C20.8661 13.8217 20.8787 13.8403 20.8904 13.8595C20.896 13.8685 20.9014 13.8777 20.9065 13.887C20.9147 13.9018 20.9225 13.9171 20.9298 13.9327C20.9357 13.9454 20.9414 13.9584 20.9466 13.9715C20.9525 13.9863 20.9579 14.0012 20.9628 14.0162C20.9665 14.0274 20.9699 14.0389 20.9731 14.0505C20.9776 14.0667 20.9815 14.0829 20.9849 14.0994C20.9875 14.1125 20.9898 14.1255 20.9917 14.1387C20.994 14.1536 20.9958 14.1691 20.9972 14.1847C20.9984 14.1988 20.9992 14.2123 20.9996 14.2258C20.9999 14.2333 21 14.2417 21 14.25L20.9996 14.2749C20.9992 14.2879 20.9984 14.3009 20.9973 14.3139L21 14.25C21 14.288 20.9972 14.3253 20.9917 14.3617C20.9898 14.3745 20.9875 14.3875 20.9848 14.4005C20.9815 14.4171 20.9776 14.4333 20.9732 14.4494C20.9699 14.4611 20.9665 14.4726 20.9627 14.4841C20.9579 14.4988 20.9525 14.5137 20.9467 14.5283C20.9414 14.5416 20.9357 14.5546 20.9297 14.5674C20.9225 14.5829 20.9147 14.5982 20.9063 14.6132C20.9014 14.6223 20.896 14.6315 20.8905 14.6405C20.8787 14.6597 20.8661 14.6783 20.8528 14.6964C20.8495 14.7009 20.8461 14.7053 20.8427 14.7097C20.8387 14.7147 20.837 14.7169 20.8352 14.7191L20.7803 14.7803L17.7803 17.7803C17.4874 18.0732 17.0126 18.0732 16.7197 17.7803C16.4493 17.51 16.4285 17.0845 16.6573 16.7903L16.7197 16.7197L18.438 15H9.75C9.33579 15 9 14.6642 9 14.25C9 13.8654 9.28953 13.5484 9.66253 13.505L9.75 13.5H18.438L16.7197 11.7803C16.4493 11.51 16.4285 11.0845 16.6573 10.7903L16.7197 10.7197C16.99 10.4493 17.4155 10.4285 17.7097 10.6573ZM7.5 6H5.25C4.86577 6 4.54843 6.2899 4.50505 6.66261L4.5 6.75V8.25H19.5V6.75C19.5 6.36577 19.2101 6.04843 18.8374 6.00505L18.75 6H16.5V6.75C16.5 7.16421 16.1642 7.5 15.75 7.5C15.3654 7.5 15.0484 7.21047 15.005 6.83747L15 6.75V6H9V6.75C9 7.16421 8.66421 7.5 8.25 7.5C7.86537 7.5 7.54837 7.21047 7.50505 6.83747L7.5 6.75V6Z" fill="#262526"/>
</svg>
