<svg width="24" height="24" viewBox="0 0 24 24" fill="none" xmlns="http://www.w3.org/2000/svg">
<path d="M15.75 3C16.1346 3 16.4516 3.28953 16.495 3.66253L16.5 3.75V4.5H18.75C19.9478 4.5 20.9277 5.43709 20.9962 6.61784L21 6.75V11.25C21 11.6642 20.6642 12 20.25 12C19.8654 12 19.5484 11.7105 19.505 11.3375L19.5 11.25V9.75H4.5V18.75C4.5 19.1342 4.7899 19.4516 5.16261 19.4949L5.25 19.5H18.75C19.1342 19.5 19.4516 19.2101 19.4949 18.8374L19.5 18.75V17.25C19.5 16.8358 19.8358 16.5 20.25 16.5C20.6346 16.5 20.9516 16.7895 20.995 17.1625L21 17.25V18.75C21 19.9478 20.0629 20.9277 18.8822 20.9962L18.75 21H5.25C4.05215 21 3.07228 20.0629 3.00382 18.8822L3 18.75V6.75C3 5.55215 3.93709 4.57228 5.11784 4.50382L5.25 4.5H7.5V3.75C7.5 3.33579 7.83579 3 8.25 3C8.63463 3 8.95163 3.28953 8.99495 3.66253L9 3.75V4.5H15V3.75C15 3.33579 15.3358 3 15.75 3ZM13.2803 10.7197C13.5507 10.99 13.5715 11.4155 13.3427 11.7097L13.2803 11.7803L11.5612 13.5H20.25C20.6642 13.5 21 13.8358 21 14.25C21 14.6346 20.7105 14.9516 20.3375 14.995L20.25 15H11.5612L13.2803 16.7197C13.5507 16.99 13.5715 17.4155 13.3427 17.7097L13.2803 17.7803C13.01 18.0507 12.5845 18.0715 12.2903 17.8427L12.2197 17.7803L9.21967 14.7803L9.16477 14.7191C9.16303 14.7169 9.1613 14.7147 9.15959 14.7126L9.21967 14.7803C9.19312 14.7538 9.16898 14.7257 9.14725 14.6965C9.13387 14.6783 9.12129 14.6597 9.10955 14.6405C9.10396 14.6315 9.09862 14.6223 9.0935 14.613C9.08535 14.5982 9.07753 14.5829 9.07024 14.5673C9.06426 14.5546 9.05865 14.5416 9.05342 14.5285C9.04749 14.5137 9.04209 14.4988 9.03716 14.4838C9.03355 14.4726 9.03007 14.4611 9.02688 14.4495C9.02238 14.4333 9.01848 14.4171 9.01512 14.4006C9.01253 14.3875 9.01022 14.3745 9.00826 14.3613C9.00608 14.3471 9.00431 14.3323 9.00298 14.3174C9.00142 14.2995 9.00048 14.282 9.00014 14.2645C9.00005 14.2597 9 14.2548 9 14.25L9.00013 14.2362C9.00045 14.2185 9.0014 14.2008 9.00297 14.1831L9 14.25C9 14.212 9.00282 14.1747 9.00826 14.1383C9.01022 14.1255 9.01253 14.1125 9.01518 14.0995C9.01848 14.0829 9.02238 14.0667 9.02679 14.0506C9.03007 14.0389 9.03355 14.0274 9.0373 14.0159C9.04209 14.0012 9.04749 13.9863 9.05333 13.9717C9.05865 13.9584 9.06426 13.9454 9.07026 13.9326C9.07753 13.9171 9.08535 13.9018 9.09366 13.8868C9.09862 13.8777 9.10395 13.8685 9.1095 13.8595C9.12129 13.8403 9.13387 13.8217 9.14724 13.8036C9.15054 13.7991 9.15388 13.7947 9.15728 13.7903C9.17825 13.7636 9.19832 13.741 9.21967 13.7197L12.2197 10.7197C12.5126 10.4268 12.9874 10.4268 13.2803 10.7197ZM7.5 6H5.25C4.86577 6 4.54843 6.2899 4.50505 6.66261L4.5 6.75V8.25H19.5V6.75C19.5 6.36577 19.2101 6.04843 18.8374 6.00505L18.75 6H16.5V6.75C16.5 7.16421 16.1642 7.5 15.75 7.5C15.3654 7.5 15.0484 7.21047 15.005 6.83747L15 6.75V6H9V6.75C9 7.16421 8.66421 7.5 8.25 7.5C7.86537 7.5 7.54837 7.21047 7.50505 6.83747L7.5 6.75V6Z" fill="#262526"/>
</svg>
