<svg width="16" height="17" viewBox="0 0 16 17" fill="none" xmlns="http://www.w3.org/2000/svg">
<path d="M14 5.75V11.7929C14 12.2383 13.4614 12.4614 13.1464 12.1464L9.85355 8.85355C9.53857 8.53857 9.76165 8 10.2071 8H12.5V5.75C12.5 4.50736 11.4926 3.5 10.25 3.5H5.70711C5.5745 3.5 5.44732 3.44732 5.35355 3.35355L4.85355 2.85355C4.53857 2.53857 4.76165 2 5.20711 2H10.25C12.3211 2 14 3.67893 14 5.75Z" fill="#34A853"/>
<path d="M3.5 10.25V8H5.79289C6.23835 8 6.46143 7.46143 6.14645 7.14645L2.85355 3.85355C2.53857 3.53857 2 3.76165 2 4.20711V10.25C2 12.3211 3.67893 14 5.75 14H10.7929C11.2383 14 11.4614 13.4614 11.1464 13.1464L10.6464 12.6464C10.5527 12.5527 10.4255 12.5 10.2929 12.5H5.75C4.50736 12.5 3.5 11.4926 3.5 10.25Z" fill="#34A853"/>
</svg>
