<svg xmlns="http://www.w3.org/2000/svg" id="prefix__Icons_Remove" width="16" height="16" data-name="Icons / Remove" viewBox="0 0 16 16">
    <path id="prefix__Path_49" d="M13.659-64.659a8.012 8.012 0 0 0-11.319 0 8.012 8.012 0 0 0 0 11.319 8.012 8.012 0 0 0 11.319 0 8.012 8.012 0 0 0 0-11.319zm-2.54 7.745a.732.732 0 0 1 0 1.034.732.732 0 0 1-1.034 0L8-57.965l-2.085 2.084a.732.732 0 0 1-1.034 0 .732.732 0 0 1 0-1.034L6.965-59l-2.084-2.085a.732.732 0 0 1 0-1.034.732.732 0 0 1 1.034 0L8-60.035l2.086-2.085a.732.732 0 0 1 1.034 0 .732.732 0 0 1 0 1.034L9.034-59z" data-name="Path 49" transform="translate(0 67)" style="fill:#606060"/>
</svg>
