<svg width="16" height="16" viewBox="0 0 16 16" xmlns="http://www.w3.org/2000/svg">
<path d="M12.3333 2H3.99999C3.26666 2 2.66666 2.6 2.66666 3.33333V7.14C2.66666 9.69333 4.63332 11.9267 7.18666 12C9.82666 12.08 12 9.96 12 7.33333V6.66667H12.3333C13.62 6.66667 14.6667 5.62 14.6667 4.33333C14.6667 3.04667 13.62 2 12.3333 2ZM10.6667 3.33333V5.33333H3.99999V3.33333H10.6667ZM10.6667 6.66667V7.33333C10.6667 9.17333 9.17332 10.6667 7.33332 10.6667C5.49332 10.6667 3.99999 9.17333 3.99999 7.33333V6.66667M12.3333 5.33333H12V3.33333H12.3333C12.8867 3.33333 13.3333 3.78 13.3333 4.33333C13.3333 4.88667 12.8867 5.33333 12.3333 5.33333ZM2.66666 12.6667H13.3333V14H2.66666V12.6667Z"/>
</svg>
