<svg xmlns="http://www.w3.org/2000/svg" id="prefix__Icons_24_x_24_currency" width="24" height="24" data-name="Icons 24 x 24_currency" viewBox="0 0 24 24">
    <defs>
        <style>
            .prefix__cls-2{fill:#606060}
        </style>
    </defs>
    <path id="prefix__Rectangle_67" fill="none" d="M0 0H24V24H0z" data-name="Rectangle 67"/>
    <path id="prefix__Path_169" d="M5.1 15h.22a.73.73 0 0 0 .46-1 6.69 6.69 0 0 1-.32-2 6.54 6.54 0 0 1 11.3-4.49h-1.5a.73.73 0 0 0 0 1.46h3a.73.73 0 0 0 .74-.73V5.48a.73.73 0 1 0-1.46 0v.75A7.9 7.9 0 0 0 12 4a8 8 0 0 0-7.6 10.49.72.72 0 0 0 .69.5z" class="prefix__cls-2" data-name="Path 169"/>
    <path id="prefix__Path_170" d="M19.6 9.5a.73.73 0 0 0-.7-.5h-.23a.73.73 0 0 0-.45.9A6.56 6.56 0 0 1 14 18.22a6.74 6.74 0 0 1-2 .32 6.52 6.52 0 0 1-4.76-2.05h1.5a.73.73 0 1 0 0-1.46h-3a.73.73 0 0 0-.72.73v2.76a.725.725 0 1 0 1.45 0v-.75A7.993 7.993 0 0 0 19.6 9.5z" class="prefix__cls-2" data-name="Path 170"/>
    <path id="prefix__Path_171" d="M12 17.49a.73.73 0 0 0 .73-.73v-.12a2.74 2.74 0 0 0-.73-5.37 1.28 1.28 0 1 1 1.27-1.44.73.73 0 0 0 .72.64.76.76 0 0 0 .55-.24.75.75 0 0 0 .17-.57 2.72 2.72 0 0 0-2-2.3v-.12a.73.73 0 1 0-1.46 0v.12a2.74 2.74 0 0 0 .75 5.37 1.275 1.275 0 1 1-1.27 1.44.72.72 0 0 0-.72-.64.73.73 0 0 0-.55.25.71.71 0 0 0-.17.56 2.75 2.75 0 0 0 2 2.3v.12a.73.73 0 0 0 .71.73z" class="prefix__cls-2" data-name="Path 171"/>
</svg>
