<svg width="19" height="14" viewBox="0 0 19 14" fill="none" xmlns="http://www.w3.org/2000/svg">
<path d="M13 12H2V2H13L16.55 7M14.63 0.84C14.27 0.33 13.67 0 13 0H2C0.9 0 0 0.9 0 2V12C0 12.5304 0.210714 13.0391 0.585786 13.4142C0.960859 13.7893 1.46957 14 2 14H13C13.67 14 14.27 13.66 14.63 13.15L19 7L14.63 0.84ZM10.8 3L12 4.2L5.2 11L4 9.8M5.45 3.03C6.23 3.03 6.87 3.67 6.87 4.45C6.87 5.23 6.23 5.87 5.45 5.87C4.67 5.87 4.03 5.23 4.03 4.45C4.03 3.67 4.67 3.03 5.45 3.03ZM10.55 8.13C11.33 8.13 11.97 8.77 11.97 9.55C11.97 10.33 11.33 10.97 10.55 10.97C9.77 10.97 9.13 10.33 9.13 9.55C9.13 8.77 9.77 8.13 10.55 8.13Z" fill="#141414"/>
</svg>
