<svg width="48" height="48" viewBox="0 0 48 48" fill="none" xmlns="http://www.w3.org/2000/svg">
<rect width="48" height="48" rx="12" fill="#F7F7F7"/>
<path d="M22 18C21.4477 18 21 18.4477 21 19C21 19.5523 21.4477 20 22 20H26C26.5523 20 27 19.5523 27 19C27 18.4477 26.5523 18 26 18H22Z" fill="#262526"/>
<path d="M19 22.75C19 22.3358 19.3358 22 19.75 22H28.25C28.6642 22 29 22.3358 29 22.75C29 23.1642 28.6642 23.5 28.25 23.5H19.75C19.3358 23.5 19 23.1642 19 22.75Z" fill="#262526"/>
<path d="M19.75 25.25C19.3358 25.25 19 25.5858 19 26C19 26.4142 19.3358 26.75 19.75 26.75H28.25C28.6642 26.75 29 26.4142 29 26C29 25.5858 28.6642 25.25 28.25 25.25H19.75Z" fill="#262526"/>
<path d="M19 29.25C19 28.8358 19.3358 28.5 19.75 28.5H28.25C28.6642 28.5 29 28.8358 29 29.25C29 29.6642 28.6642 30 28.25 30H19.75C19.3358 30 19 29.6642 19 29.25Z" fill="#262526"/>
<path fill-rule="evenodd" clip-rule="evenodd" d="M19 14C16.7909 14 15 15.7909 15 18V30C15 32.2091 16.7909 34 19 34H29C31.2091 34 33 32.2091 33 30V18C33 15.7909 31.2091 14 29 14H19ZM29 15.5H19C17.6193 15.5 16.5 16.6193 16.5 18V30C16.5 31.3807 17.6193 32.5 19 32.5H29C30.3807 32.5 31.5 31.3807 31.5 30V18C31.5 16.6193 30.3807 15.5 29 15.5Z" fill="#262526"/>
</svg>
