<svg width="9" height="16" viewBox="0 0 9 16" fill="none" xmlns="http://www.w3.org/2000/svg">
<path d="M4.0348 15.4545V0.90909H4.96662V15.4545H4.0348ZM7.17116 5.27273C7.10298 4.69697 6.82647 4.25 6.34162 3.93182C5.85677 3.61364 5.26207 3.45455 4.55753 3.45455C4.04238 3.45455 3.59162 3.53788 3.20526 3.70455C2.82268 3.87121 2.52344 4.10038 2.30753 4.39205C2.09541 4.68371 1.98935 5.01515 1.98935 5.38636C1.98935 5.69697 2.06321 5.96401 2.21094 6.1875C2.36245 6.4072 2.55563 6.59091 2.79048 6.73864C3.02533 6.88258 3.27154 7.00189 3.52912 7.09659C3.7867 7.1875 4.02344 7.26136 4.23935 7.31818L5.42116 7.63636C5.7242 7.71591 6.06132 7.82576 6.43253 7.96591C6.80753 8.10606 7.16548 8.29735 7.50639 8.53977C7.85109 8.77841 8.13518 9.08523 8.35867 9.46023C8.58215 9.83523 8.69389 10.2955 8.69389 10.8409C8.69389 11.4697 8.52912 12.0379 8.19957 12.5455C7.87382 13.053 7.39654 13.4564 6.76776 13.7557C6.14276 14.0549 5.38329 14.2045 4.48935 14.2045C3.65601 14.2045 2.93442 14.0701 2.32457 13.8011C1.71851 13.5322 1.24124 13.1572 0.892756 12.6761C0.548059 12.1951 0.352983 11.6364 0.307528 11H1.76207C1.79995 11.4394 1.94768 11.803 2.20526 12.0909C2.46662 12.375 2.79616 12.5871 3.19389 12.7273C3.59541 12.8636 4.02723 12.9318 4.48935 12.9318C5.02723 12.9318 5.51018 12.8447 5.93821 12.6705C6.36624 12.4924 6.70526 12.2462 6.95526 11.9318C7.20526 11.6136 7.33026 11.2424 7.33026 10.8182C7.33026 10.4318 7.2223 10.1174 7.00639 9.875C6.79048 9.63258 6.50639 9.43561 6.15412 9.28409C5.80185 9.13258 5.42116 9 5.01207 8.88636L3.58026 8.47727C2.67116 8.21591 1.95147 7.8428 1.42116 7.35795C0.890862 6.87311 0.62571 6.23864 0.62571 5.45455C0.62571 4.80303 0.801847 4.23485 1.15412 3.75C1.51018 3.26136 1.98745 2.88258 2.58594 2.61364C3.18821 2.34091 3.86056 2.20455 4.60298 2.20455C5.35298 2.20455 6.01965 2.33901 6.60298 2.60795C7.18632 2.87311 7.64844 3.23674 7.98935 3.69886C8.33404 4.16098 8.51586 4.68561 8.5348 5.27273H7.17116Z" fill="#666464"/>
</svg>
