<svg xmlns="http://www.w3.org/2000/svg" id="prefix__Icons_Download_Tickets" width="24" height="24" data-name="Icons / Download Tickets" viewBox="0 0 24 24">
    <path id="prefix__Rectangle_52" fill="none" d="M0 0H24V24H0z" data-name="Rectangle 52"/>
    <g id="prefix__Group_160" data-name="Group 160">
        <path id="prefix__Path_128" d="M19.24 13.6a.76.76 0 0 0-.76.76V18a.47.47 0 0 1-.47.47H6a.47.47 0 0 1-.48-.47v-3.64a.76.76 0 1 0-1.52 0V18a2 2 0 0 0 2 2h12a2 2 0 0 0 2-2v-3.64a.76.76 0 0 0-.76-.76z" fill="inherit" data-name="Path 128"/>
        <path id="prefix__Path_129" d="M11.46 15.73a.77.77 0 0 0 1.08 0l2.94-3a.75.75 0 0 0 0-1.07.74.74 0 0 0-1.07 0l-1.65 1.64V4.76a.76.76 0 1 0-1.52 0v8.59l-1.65-1.64a.74.74 0 0 0-1.07 0 .75.75 0 0 0 0 1.07z" fill="inherit" data-name="Path 129"/>
    </g>
</svg>
