<svg width="24" height="24" viewBox="0 0 24 24"  xmlns="http://www.w3.org/2000/svg">
<path clip-rule="evenodd" d="M11.6508 3.87119L12 3.98944L12.3492 3.87119L15.3451 3.03037C15.5129 2.98229 15.6925 2.99777 15.8495 3.07385C16.0066 3.14994 16.1301 3.28129 16.1964 3.44278L16.2514 3.68201L16.2514 5.34863C16.2506 5.48588 16.2094 5.61986 16.1331 5.73392C16.0569 5.84799 15.9488 5.93713 15.8223 5.99026L14.0217 6.94519L14.1217 10.2755L20.0907 8.58879C20.2587 8.53838 20.4394 8.55289 20.5973 8.62944C20.7551 8.70599 20.8784 8.83902 20.943 9.00221L21 9.24944L21 11.3955C21.0011 11.5315 20.9623 11.6649 20.8883 11.7789C20.8143 11.893 20.7084 11.9828 20.5838 12.0372L14.3038 15.3344L14.4038 18.6246C14.4092 18.9382 14.3504 19.2495 14.2312 19.5395C14.112 19.8296 13.9349 20.0922 13.7106 20.3113C13.2688 20.7338 12.6878 20.9798 12.0771 21.0029L11.9229 21.0029C11.3122 20.9798 10.7312 20.7338 10.2894 20.3113C10.0651 20.0922 9.88797 19.8296 9.76876 19.5395C9.64956 19.2495 9.59082 18.9382 9.59617 18.6246L9.6962 15.3344L3.41616 12.0372C3.29158 11.9828 3.18571 11.893 3.11172 11.7789C3.03774 11.6649 2.99889 11.5315 3.00002 11.3955L3.00002 9.24944L3.05704 9.00221C3.12156 8.83902 3.24492 8.70599 3.40274 8.62944C3.56055 8.55289 3.74133 8.53838 3.90932 8.58879L9.87826 10.2755L9.97829 6.94519L8.17771 5.99026C8.05124 5.93713 7.94315 5.84799 7.86686 5.73392C7.79056 5.61986 7.74943 5.48588 7.74857 5.34863L7.74857 3.68201L7.80359 3.44278C7.86993 3.28129 7.99344 3.14994 8.1505 3.07385C8.30755 2.99777 8.48712 2.98229 8.65486 3.03037L11.6508 3.87119ZM12 19.5872C12.1306 19.5902 12.2606 19.5681 12.383 19.5221C12.5119 19.4735 12.6297 19.3995 12.7293 19.3043C12.814 19.2251 12.8816 19.1293 12.9277 19.0229C12.9738 18.9165 12.9975 18.8017 12.9974 18.6857L12.8843 14.899C12.8867 14.778 12.9214 14.6598 12.9847 14.5567C13.048 14.4536 13.1377 14.3692 13.2445 14.3124L19.5885 10.9771L19.5885 10.1834L13.6396 11.858L13.5105 11.879C13.4172 11.888 13.3231 11.8769 13.2344 11.8465C13.1458 11.8161 13.0646 11.7671 12.9964 11.7028C12.9259 11.6385 12.8697 11.5601 12.8313 11.4727C12.7929 11.3853 12.7731 11.2908 12.7733 11.1953L12.6303 6.52878C12.6278 6.40252 12.66 6.27801 12.7233 6.16877C12.7866 6.05952 12.8786 5.96975 12.9894 5.90919L14.87 4.91721L14.87 4.60992L12.8193 5.19148L12.2291 5.39167C12.1541 5.41177 12.0771 5.4218 12 5.42174C11.9229 5.4218 11.8459 5.41176 11.7709 5.39167L11.1807 5.19148L9.13002 4.60992L9.13002 4.91721L11.0106 5.90919C11.1214 5.96975 11.2134 6.05953 11.2767 6.16877C11.34 6.27801 11.3722 6.40252 11.3697 6.52878L11.2267 11.1953C11.2269 11.2908 11.2071 11.3853 11.1687 11.4727C11.1303 11.5601 11.0741 11.6385 11.0036 11.7028C10.9354 11.7671 10.8542 11.8161 10.7656 11.8465C10.6769 11.8769 10.5828 11.888 10.4895 11.879L10.3604 11.858L4.41148 10.1834L4.41148 10.9771L10.7555 14.3124C10.8623 14.3692 10.952 14.4536 11.0153 14.5567C11.0786 14.6598 11.1133 14.778 11.1157 14.899L11.0026 18.6857C11.0025 18.8017 11.0262 18.9165 11.0723 19.0229C11.1184 19.1293 11.186 19.2251 11.2707 19.3043C11.3703 19.3995 11.4881 19.4735 11.617 19.5221C11.7394 19.5681 11.8694 19.5902 12 19.5872Z" />
</svg>
