<svg width="24" height="24" viewBox="0 0 24 24">
<path d="M17.13 12.388C17.2623 12.3881 17.3922 12.3537 17.507 12.288L18.396 11.776C18.5696 11.6754 18.6963 11.5102 18.7484 11.3164C18.8005 11.1226 18.7737 10.9161 18.674 10.742C18.6073 10.6271 18.5116 10.5317 18.3965 10.4654C18.2814 10.399 18.1509 10.3641 18.018 10.364C17.8858 10.3639 17.7558 10.3984 17.641 10.464L16.753 10.977C16.6666 11.0261 16.5909 11.0919 16.5301 11.1705C16.4693 11.2492 16.4248 11.3391 16.399 11.435C16.373 11.5311 16.3662 11.6313 16.3791 11.73C16.392 11.8287 16.4242 11.9238 16.474 12.01C16.5409 12.1248 16.6366 12.2201 16.7517 12.2864C16.8667 12.3527 16.9972 12.3877 17.13 12.388Z" />
<path d="M14.583 10.116C14.6983 10.1822 14.8291 10.2167 14.962 10.216C15.0947 10.2157 15.225 10.1806 15.3399 10.1143C15.4548 10.048 15.5503 9.95274 15.617 9.83804L16.131 8.95004C16.1808 8.86387 16.2131 8.76871 16.2259 8.67003C16.2388 8.57135 16.232 8.4711 16.206 8.37504C16.1807 8.27902 16.1365 8.18899 16.0761 8.11019C16.0157 8.03139 15.9402 7.96539 15.854 7.91604C15.7389 7.85027 15.6086 7.81579 15.476 7.81604C15.3433 7.81639 15.2131 7.85147 15.0982 7.91779C14.9833 7.9841 14.8877 8.07934 14.821 8.19404L14.307 9.08304C14.2573 9.16904 14.225 9.26403 14.2122 9.36255C14.1993 9.46106 14.206 9.56115 14.232 9.65704C14.2571 9.75302 14.3011 9.84305 14.3613 9.92185C14.4216 10.0007 14.497 10.0667 14.583 10.116Z" />
<path d="M12.004 9.42303C12.2044 9.42277 12.3966 9.34303 12.5383 9.20131C12.68 9.05959 12.7597 8.86746 12.76 8.66703V7.64103C12.7597 7.44052 12.6801 7.24828 12.5384 7.1064C12.3967 6.96452 12.2045 6.88456 12.004 6.88403C11.8033 6.8843 11.6109 6.96414 11.469 7.10605C11.3271 7.24795 11.2473 7.44035 11.247 7.64103V8.66703C11.2475 8.86755 11.3275 9.05968 11.4694 9.20138C11.6113 9.34307 11.8035 9.42277 12.004 9.42303Z" />
<path d="M17.165 14.2941C17.1653 14.4946 17.245 14.6868 17.3867 14.8287C17.5283 14.9706 17.7205 15.0505 17.921 15.0511H18.947C19.1473 15.0513 19.3396 14.9721 19.4815 14.8307C19.6234 14.6893 19.7035 14.4974 19.704 14.2971C19.7045 14.1975 19.6852 14.0989 19.6473 14.0069C19.6094 13.9149 19.5535 13.8313 19.483 13.7611C19.413 13.6904 19.3297 13.6344 19.2378 13.5963C19.146 13.5581 19.0474 13.5387 18.948 13.5391H17.92C17.7199 13.5396 17.5282 13.6193 17.3867 13.7608C17.2452 13.9023 17.1655 14.094 17.165 14.2941Z" />
<path d="M20.243 15.6H16.514C16.589 15.2673 16.6269 14.9272 16.627 14.586C16.6246 13.3606 16.1368 12.186 15.2704 11.3194C14.4039 10.4527 13.2295 9.96468 12.004 9.96204C10.7772 9.96336 9.60092 10.4512 8.73332 11.3187C7.86572 12.1861 7.37758 13.3622 7.37599 14.589C7.37623 14.9302 7.41413 15.2702 7.489 15.603H3.75999C3.55957 15.6033 3.36744 15.683 3.22572 15.8248C3.084 15.9665 3.00426 16.1586 3.004 16.359C3.00426 16.5596 3.08397 16.7518 3.22566 16.8937C3.36735 17.0356 3.55948 17.1155 3.75999 17.116H20.247C20.4477 17.1158 20.6401 17.0359 20.782 16.894C20.9239 16.7521 21.0037 16.5597 21.004 16.359C21.0043 16.2591 20.9847 16.1601 20.9466 16.0678C20.9084 15.9755 20.8523 15.8916 20.7816 15.821C20.7108 15.7505 20.6268 15.6946 20.5344 15.6567C20.4419 15.6188 20.3429 15.5995 20.243 15.6ZM8.888 14.444C8.92621 13.7323 9.20479 13.0547 9.67818 12.5219C10.1516 11.9891 10.7918 11.6327 11.494 11.511C11.6614 11.4853 11.8306 11.4723 12 11.472C12.8256 11.4728 13.6172 11.8012 14.201 12.385C14.7849 12.9688 15.1132 13.7604 15.114 14.586C15.1145 14.931 15.0577 15.2737 14.946 15.6H9.052C8.92498 15.2295 8.86934 14.8383 8.888 14.447V14.444Z" />
<path d="M5.02203 15.053H6.04902C6.24945 15.052 6.44132 14.9717 6.58277 14.8297C6.72422 14.6877 6.80376 14.4955 6.80402 14.295C6.80297 14.0949 6.72278 13.9032 6.58096 13.762C6.43913 13.6207 6.24719 13.5413 6.04702 13.541H5.02102C4.92157 13.5407 4.82305 13.5601 4.73119 13.5982C4.63934 13.6363 4.55599 13.6924 4.48602 13.763C4.41557 13.8331 4.35977 13.9165 4.32183 14.0083C4.28389 14.1002 4.26458 14.1987 4.26502 14.298C4.26555 14.4984 4.34554 14.6905 4.48745 14.832C4.62936 14.9735 4.8216 15.053 5.02203 15.053Z" />
<path d="M5.57197 11.775L6.46098 12.287C6.57577 12.3527 6.70574 12.3872 6.83797 12.387C6.9708 12.3868 7.10123 12.3517 7.21632 12.2854C7.3314 12.2191 7.42713 12.1238 7.49398 12.009C7.59376 11.8352 7.62063 11.6289 7.56872 11.4354C7.51681 11.2418 7.39033 11.0766 7.21697 10.976L6.32598 10.463C6.21161 10.3973 6.08192 10.3628 5.94997 10.363C5.81695 10.3629 5.68625 10.3979 5.57107 10.4644C5.45589 10.531 5.3603 10.6267 5.29397 10.742C5.19391 10.9159 5.16694 11.1223 5.21897 11.316C5.24471 11.412 5.28915 11.502 5.34972 11.5807C5.4103 11.6595 5.48582 11.7255 5.57197 11.775Z" />
<path d="M8.351 9.83914C8.41786 9.95413 8.51373 10.0496 8.62902 10.1159C8.74431 10.1822 8.87499 10.2171 9.008 10.2171C9.14052 10.217 9.27076 10.1826 9.38601 10.1171C9.55923 10.0164 9.68545 9.85111 9.737 9.65748C9.78855 9.46384 9.76122 9.25766 9.661 9.08414L9.148 8.19614C9.08152 8.08119 8.98604 7.98569 8.8711 7.91919C8.75616 7.85268 8.62579 7.8175 8.493 7.81714C8.36042 7.8168 8.23006 7.85128 8.11499 7.91714C7.94163 8.01772 7.81518 8.18287 7.76326 8.37646C7.71135 8.57005 7.73822 8.77632 7.838 8.95014L8.351 9.83914Z" />
</svg>
