<svg width="12" height="12" viewBox="0 0 12 12" fill="none" xmlns="http://www.w3.org/2000/svg">
<g id="Cabin Class/Economy">
<path id="Vector" d="M7.99976 1C6.61976 1 5.49976 2.12 5.49976 3.5C5.49976 4.88 6.61976 6 7.99976 6C9.37976 6 10.4998 4.88 10.4998 3.5C10.4998 2.12 9.37976 1 7.99976 1ZM7.99976 5C7.16976 5 6.49976 4.33 6.49976 3.5C6.49976 2.67 7.16976 2 7.99976 2C8.82976 2 9.49976 2.67 9.49976 3.5C9.49976 4.33 8.82976 5 7.99976 5ZM9.49976 8H8.49976C8.49976 7.4 8.12476 6.86 7.56476 6.65L4.48476 5.5H0.499756V11H3.49976V10.28L6.99976 11.25L10.9998 10V9.5C10.9998 8.67 10.3298 8 9.49976 8ZM2.49976 10H1.49976V6.5H2.49976V10ZM6.98476 10.205L3.49976 9.25V6.5H4.30476L7.21476 7.585C7.38476 7.65 7.49976 7.815 7.49976 8C7.49976 8 6.49976 7.975 6.34976 7.925L5.15976 7.53L4.84476 8.48L6.03476 8.875C6.28976 8.96 6.55476 9 6.82476 9H9.49976C9.69476 9 9.86976 9.12 9.94976 9.285L6.98476 10.205Z" fill="#00A354"/>
</g>
</svg>
