<svg width="24" height="25" viewBox="0 0 24 25" fill="none" xmlns="http://www.w3.org/2000/svg">
<path d="M14.06 9.17125L14.98 10.0912L5.92 19.1512H5V18.2312L14.06 9.17125ZM17.66 3.15125C17.41 3.15125 17.15 3.25125 16.96 3.44125L15.13 5.27125L18.88 9.02125L20.71 7.19125C20.8027 7.09873 20.8762 6.98884 20.9264 6.86787C20.9766 6.7469 21.0024 6.61721 21.0024 6.48625C21.0024 6.35528 20.9766 6.22559 20.9264 6.10462C20.8762 5.98365 20.8027 5.87376 20.71 5.78125L18.37 3.44125C18.17 3.24125 17.92 3.15125 17.66 3.15125ZM14.06 6.34125L3 17.4012V21.1512H6.75L17.81 10.0912L14.06 6.34125Z" fill="#141414"/>
</svg>
