<svg xmlns="http://www.w3.org/2000/svg" id="prefix__Icons_24_x_24_email2" width="24" height="24" data-name="Icons 24 x 24_email2" viewBox="0 0 24 24">
    <path id="prefix__Rectangle_78" fill="none" d="M0 0H24V24H0z" data-name="Rectangle 78"/>
    <path id="prefix__Path_203" fill="#606060" d="M5.66 18.05A1.66 1.66 0 0 1 4 16.39V7.61A1.66 1.66 0 0 1 5.66 6h12.68A1.66 1.66 0 0 1 20 7.61v8.78a1.66 1.66 0 0 1-1.66 1.66zm-.29-1.66a.29.29 0 0 0 .29.29h12.68a.29.29 0 0 0 .29-.29V8.62L12.45 14a.68.68 0 0 1-.9 0L5.37 8.62zM12 12.56l6.05-5.24H6z" data-name="Path 203"/>
</svg>
