<svg width="24" height="24" viewBox="0 0 24 24" xmlns="http://www.w3.org/2000/svg">
<path d="M7 2H13.9805C14.6445 2 15.2812 2.26172 15.75 2.73047L18.7695 5.75C19.2383 6.21875 19.5 6.85547 19.5 7.51953V19.5C19.5 20.8789 18.3789 22 17 22H7C5.62109 22 4.5 20.8789 4.5 19.5V4.5C4.5 3.12109 5.62109 2 7 2ZM8.25 9.5C7.55859 9.5 7 10.0586 7 10.75V11.5C7 11.7761 7.22386 12 7.5 12H9C9.27614 12 9.5 11.7761 9.5 11.5V10C9.5 9.72386 9.27614 9.5 9 9.5H8.25ZM7 15.25C7 15.5261 7.22386 15.75 7.5 15.75H16.5C16.7761 15.75 17 15.5261 17 15.25V13.75C17 13.4739 16.7761 13.25 16.5 13.25H7.5C7.22386 13.25 7 13.4739 7 13.75V15.25ZM17 10.75C17 10.0586 16.4414 9.5 15.75 9.5H15C14.7239 9.5 14.5 9.72386 14.5 10V11.5C14.5 11.7761 14.7239 12 15 12H16.5C16.7761 12 17 11.7761 17 11.5V10.75ZM11.25 9.5C10.9739 9.5 10.75 9.72386 10.75 10V11.5C10.75 11.7761 10.9739 12 11.25 12H12.75C13.0261 12 13.25 11.7761 13.25 11.5V10C13.25 9.72386 13.0261 9.5 12.75 9.5H11.25ZM15.75 19.5C16.4414 19.5 17 18.9414 17 18.25V17.5C17 17.2239 16.7761 17 16.5 17H15C14.7239 17 14.5 17.2239 14.5 17.5V19C14.5 19.2761 14.7239 19.5 15 19.5H15.75ZM11.25 17C10.9739 17 10.75 17.2239 10.75 17.5V19C10.75 19.2761 10.9739 19.5 11.25 19.5H12.75C13.0261 19.5 13.25 19.2761 13.25 19V17.5C13.25 17.2239 13.0261 17 12.75 17H11.25ZM7 18.25C7 18.9414 7.55859 19.5 8.25 19.5H9C9.27614 19.5 9.5 19.2761 9.5 19V17.5C9.5 17.2239 9.27614 17 9 17H7.5C7.22386 17 7 17.2239 7 17.5V18.25Z"/>
</svg>
