<svg xmlns="http://www.w3.org/2000/svg" version="1.1" xmlns:xlink="http://www.w3.org/1999/xlink" width="512" height="512" x="0" y="0" viewBox="0 0 24 24" style="enable-background:new 0 0 512 512" xml:space="preserve" class=""><g><path d="M10 13.02c-.28 0-.5.22-.5.5v.17c0 1.01.82 1.83 1.83 1.83h.17v.5c0 .28.22.5.5.5s.5-.22.5-.5v-.5h.17c1.01 0 1.83-.82 1.83-1.83 0-.76-.48-1.45-1.19-1.71l-2.28-.85a.835.835 0 0 1-.54-.78c0-.46.37-.83.83-.83h1.34c.46 0 .83.37.83.83v.17c0 .28.22.5.5.5s.5-.22.5-.5v-.17c0-1.01-.82-1.83-1.83-1.83h-.17v-.5c0-.28-.22-.5-.5-.5s-.5.22-.5.5v.5h-.17c-1.01 0-1.83.82-1.83 1.83 0 .76.48 1.45 1.19 1.71l2.28.85c.32.12.54.43.54.78 0 .46-.37.83-.83.83h-1.34c-.46 0-.83-.37-.83-.83v-.17c0-.28-.22-.5-.5-.5z" fill="#000000" opacity="1" data-original="#000000" class=""></path><path d="M18.34 21.68c.28 0 .5-.22.5-.5v-2.83a.51.51 0 0 0-.5-.5h-2.83c-.28 0-.5.22-.5.5s.22.5.5.5h1.46a8.41 8.41 0 0 1-4.98 1.63c-4.68 0-8.49-3.81-8.49-8.49 0-.99.17-1.96.5-2.89a.501.501 0 0 0-.94-.34 9.584 9.584 0 0 0-.56 3.23c0 5.23 4.26 9.49 9.49 9.49 2.14 0 4.18-.72 5.84-2.03v1.73c0 .28.22.5.5.5zM20.26 15.55c.06.02.12.03.18.03.2 0 .39-.12.47-.32.39-1.03.58-2.13.58-3.27 0-5.24-4.26-9.5-9.49-9.5-2.16 0-4.2.72-5.87 2.04V2.81c0-.28-.22-.5-.5-.5s-.5.22-.5.5v2.83c0 .07.01.13.04.19s.06.12.11.16a.492.492 0 0 0 .34.14h2.83c.28 0 .5-.22.5-.5s-.22-.5-.5-.5H6.98a8.383 8.383 0 0 1 5.01-1.65c4.68 0 8.49 3.81 8.49 8.5 0 1.02-.17 2-.52 2.91-.1.26.04.55.29.64z" fill="#000000" opacity="1" data-original="#000000" class=""></path></g></svg>
