<svg width="16" height="16" viewBox="0 0 16 16" fill="none" xmlns="http://www.w3.org/2000/svg">
<path d="M12 7.21334C11.8232 7.21334 11.6536 7.28358 11.5286 7.40861C11.4036 7.53363 11.3333 7.7032 11.3333 7.88001V12.6667C11.3333 12.8435 11.2631 13.0131 11.1381 13.1381C11.0131 13.2631 10.8435 13.3333 10.6667 13.3333H3.33334C3.15652 13.3333 2.98696 13.2631 2.86193 13.1381C2.73691 13.0131 2.66667 12.8435 2.66667 12.6667V5.33334C2.66667 5.15653 2.73691 4.98696 2.86193 4.86194C2.98696 4.73691 3.15652 4.66668 3.33334 4.66668H8.12C8.29681 4.66668 8.46638 4.59644 8.59141 4.47141C8.71643 4.34639 8.78667 4.17682 8.78667 4.00001C8.78667 3.8232 8.71643 3.65363 8.59141 3.52861C8.46638 3.40358 8.29681 3.33334 8.12 3.33334H3.33334C2.8029 3.33334 2.2942 3.54406 1.91912 3.91913C1.54405 4.2942 1.33334 4.80291 1.33334 5.33334V12.6667C1.33334 13.1971 1.54405 13.7058 1.91912 14.0809C2.2942 14.456 2.8029 14.6667 3.33334 14.6667H10.6667C11.1971 14.6667 11.7058 14.456 12.0809 14.0809C12.456 13.7058 12.6667 13.1971 12.6667 12.6667V7.88001C12.6667 7.7032 12.5964 7.53363 12.4714 7.40861C12.3464 7.28358 12.1768 7.21334 12 7.21334ZM14.6133 1.74668C14.5457 1.58378 14.4162 1.45433 14.2533 1.38668C14.1732 1.35252 14.0871 1.3344 14 1.33334H10C9.82319 1.33334 9.65362 1.40358 9.5286 1.52861C9.40357 1.65363 9.33334 1.8232 9.33334 2.00001C9.33334 2.17682 9.40357 2.34639 9.5286 2.47141C9.65362 2.59644 9.82319 2.66668 10 2.66668H12.3933L5.52667 9.52668C5.46418 9.58865 5.41459 9.66239 5.38074 9.74363C5.3469 9.82487 5.32947 9.912 5.32947 10C5.32947 10.088 5.3469 10.1752 5.38074 10.2564C5.41459 10.3376 5.46418 10.4114 5.52667 10.4733C5.58864 10.5358 5.66238 10.5854 5.74362 10.6193C5.82486 10.6531 5.91199 10.6705 6 10.6705C6.08801 10.6705 6.17515 10.6531 6.25639 10.6193C6.33763 10.5854 6.41136 10.5358 6.47334 10.4733L13.3333 3.60668V6.00001C13.3333 6.17682 13.4036 6.34639 13.5286 6.47141C13.6536 6.59644 13.8232 6.66668 14 6.66668C14.1768 6.66668 14.3464 6.59644 14.4714 6.47141C14.5964 6.34639 14.6667 6.17682 14.6667 6.00001V2.00001C14.6656 1.91289 14.6475 1.82682 14.6133 1.74668Z" fill="#3C96E2"/>
</svg>
