<svg xmlns="http://www.w3.org/2000/svg" id="prefix__Icons_zSpecial_Failed" width="31.985" height="31.985" data-name="Icons / zSpecial / Failed" viewBox="0 0 31.985 31.985">
    <defs>
        <style>
            .prefix__cls-1{fill:#ef4123}
        </style>
    </defs>
    <path id="prefix__Path_132" d="M27.31 4.69a15.995 15.995 0 1 0 0 22.62 16 16 0 0 0 0-22.62zM16 30.12A14.12 14.12 0 1 1 30.12 16 14.12 14.12 0 0 1 16 30.12z" class="prefix__cls-1" data-name="Path 132" transform="translate(-.007 -.007)"/>
    <path id="prefix__Path_133" d="M17.28 16l5.45-5.45a.91.91 0 0 0-1.28-1.28L16 14.71l-5.45-5.44a.91.91 0 0 0-1.28 1.28L14.71 16l-5.44 5.45a.91.91 0 0 0 1.28 1.28L16 17.29l5.45 5.44a.91.91 0 0 0 1.28-1.28z" class="prefix__cls-1" data-name="Path 133" transform="translate(-.007 -.007)"/>
</svg>
