<svg width="16" height="16" viewBox="0 0 16 16" fill="none" xmlns="http://www.w3.org/2000/svg">
<path d="M0.666656 14.6537C0.666656 15.027 0.966656 15.327 1.33999 15.327H9.99999C10.3733 15.327 10.6733 15.027 10.6733 14.6537V14.0003H0.666656V14.6537ZM5.66666 5.99366C3.16666 5.99366 0.666656 7.33366 0.666656 10.0003H10.6667C10.6667 7.33366 8.16666 5.99366 5.66666 5.99366ZM2.41332 8.66699C3.15332 7.63366 4.72666 7.32699 5.66666 7.32699C6.60666 7.32699 8.17999 7.63366 8.91999 8.66699H2.41332ZM0.666656 11.3337H10.6667V12.667H0.666656V11.3337ZM12 3.33366V0.666992H10.6667V3.33366H7.33332L7.48666 4.66699H13.86L12.9267 14.0003H12V15.3337H13.1467C13.7067 15.3337 14.1667 14.9003 14.2333 14.3537L15.3333 3.33366H12Z" fill="#00A354"/>
</svg>
