<svg width="14" height="14" viewBox="0 0 14 14" fill="none" xmlns="http://www.w3.org/2000/svg">
<path d="M12.6247 6.55061L12.6214 6.55927L12.6184 6.56804L12.5264 6.83961L12.4721 7L12.5264 7.16039L12.6184 7.43196L12.6214 7.44073L12.6247 7.44939L13.4998 9.74928C13.5006 9.75842 13.4989 9.76768 13.4949 9.77607C13.4922 9.78159 13.4886 9.78657 13.4842 9.79078L13.4151 9.80667H12.178C12.1694 9.80649 12.161 9.80383 12.1539 9.79906C12.1465 9.79416 12.1409 9.78725 12.1375 9.77922L12.1288 9.75849L12.1182 9.73863L11.3755 8.33818L11.2298 8.06333L10.9188 8.07267L8.32858 8.15047L7.68822 8.1697L7.86243 8.78621L9.17428 13.4287L9.17422 13.4287L9.17654 13.4365C9.17973 13.4471 9.17882 13.4585 9.17396 13.4685C9.17157 13.4735 9.1683 13.4779 9.16433 13.4816L9.08469 13.5H7.47242V13.5L7.46826 13.5C7.46044 13.5001 7.45279 13.4978 7.44629 13.4936C7.43978 13.4894 7.4347 13.4834 7.43165 13.4764L7.42444 13.4599L7.41606 13.4439L4.85155 8.55942L4.7062 8.28257L4.39366 8.29208L1.83822 8.36977C1.66343 8.37233 1.48994 8.33939 1.32827 8.27294C1.16646 8.20644 1.01989 8.10777 0.897469 7.98296C0.656426 7.73002 0.515305 7.39851 0.5 7.04981V6.95019C0.515306 6.60149 0.656435 6.26996 0.897488 6.01703C1.0199 5.89222 1.16646 5.79356 1.32827 5.72706C1.48994 5.66061 1.66343 5.62767 1.83822 5.63023L4.39366 5.70793L4.7062 5.71743L4.85155 5.44059L7.41606 0.556109L7.42444 0.540149L7.43165 0.523627C7.4347 0.516623 7.43978 0.510616 7.44629 0.506395C7.45279 0.502177 7.46044 0.499938 7.46826 0.500003V0.50002H7.47242H9.08469L9.16433 0.518387C9.16829 0.522104 9.17157 0.526525 9.17396 0.531453C9.17882 0.541473 9.17973 0.552912 9.17654 0.563534L9.17648 0.563516L9.17428 0.571287L7.86243 5.2138L7.68822 5.8303L8.32858 5.84953L10.9188 5.92734L11.2298 5.93668L11.3755 5.66183L12.1182 4.26137L12.1288 4.24151L12.1375 4.22077C12.1409 4.21276 12.1465 4.20585 12.1539 4.20094C12.161 4.19617 12.1694 4.19352 12.178 4.19333H13.4151L13.4842 4.20922C13.4886 4.21344 13.4922 4.21841 13.4949 4.22393C13.4989 4.23232 13.5006 4.24158 13.4998 4.25072L12.6247 6.55061Z" fill="#e5e7eb" stroke="#e5e7eb"/>
</svg>
