<svg width="20" height="20" viewBox="0 0 20 20" fill="none" xmlns="http://www.w3.org/2000/svg">
<path d="M12.5001 13.3335H15.0001C15.2362 13.3335 15.4342 13.2535 15.5942 13.0935C15.7542 12.9335 15.834 12.7357 15.8334 12.5002V7.50016C15.8334 7.26405 15.7534 7.066 15.5934 6.906C15.4334 6.746 15.2356 6.66627 15.0001 6.66683H12.5001C12.264 6.66683 12.0659 6.74683 11.9059 6.90683C11.7459 7.06683 11.6662 7.26461 11.6667 7.50016V12.5002C11.6667 12.7363 11.7467 12.9343 11.9067 13.0943C12.0667 13.2543 12.2645 13.3341 12.5001 13.3335ZM13.3334 11.6668V8.3335H14.1667V11.6668H13.3334ZM7.50008 13.3335H10.0001C10.2362 13.3335 10.4342 13.2535 10.5942 13.0935C10.7542 12.9335 10.834 12.7357 10.8334 12.5002V7.50016C10.8334 7.26405 10.7534 7.066 10.5934 6.906C10.4334 6.746 10.2356 6.66627 10.0001 6.66683H7.50008C7.26397 6.66683 7.06591 6.74683 6.90591 6.90683C6.74591 7.06683 6.66619 7.26461 6.66675 7.50016V12.5002C6.66675 12.7363 6.74675 12.9343 6.90675 13.0943C7.06675 13.2543 7.26453 13.3341 7.50008 13.3335ZM8.33342 11.6668V8.3335H9.16675V11.6668H8.33342ZM4.16675 13.3335H5.83342V6.66683H4.16675V13.3335ZM1.66675 16.6668V3.3335H18.3334V16.6668H1.66675ZM3.33341 15.0002H16.6667V5.00016H3.33341V15.0002Z" fill="#141414"/>
</svg>
