<svg width="24" height="24" viewBox="0 0 24 24"  xmlns="http://www.w3.org/2000/svg">
<path d="M16 6L15.56 6.55C15.14 7.07 14.58 7.3 14.02 7.3C13 7.3 12 6.52 12 5.3V2C12 2 4 6 4 13C4 17.42 7.58 21 12 21C16.42 21 20 17.42 20 13C20 10.04 18.39 7.38 16 6ZM12 19C10.9 19 10 18.13 10 17.06C10 16.55 10.2 16.07 10.58 15.7L12 14.3L13.43 15.7C13.8 16.07 14 16.55 14 17.06C14 18.13 13.1 19 12 19ZM15.96 17.5C16 17.14 16.18 15.61 14.83 14.28L12 11.5L9.17 14.28C7.81 15.62 8 17.16 8.04 17.5C7.39908 16.9385 6.88552 16.2465 6.5337 15.4705C6.18188 14.6944 5.99992 13.8521 6 13C6 9.84 8.13 7.35 10.03 5.75C10.1459 6.72727 10.6159 7.62818 11.3512 8.28233C12.0864 8.93649 13.0359 9.29854 14.02 9.3C14.8 9.3 15.56 9.07 16.2 8.64C17.3533 9.79788 18.0006 11.3657 18 13C18 14.79 17.21 16.4 15.96 17.5Z"/>
</svg>
