<svg width="14" height="12" viewBox="0 0 14 12" fill="none" xmlns="http://www.w3.org/2000/svg">
<path d="M0.738954 5.07141C0.47735 5.31795 0.333309 5.64774 0.333292 6.00005C0.333277 6.34775 0.473579 6.67348 0.728749 6.91896C0.732124 6.9222 0.73553 6.92545 0.738969 6.9287C1.00057 7.17524 1.34629 7.30699 1.7124 7.29974L4.61227 7.2423L7.09845 12L9.29324 12L8.09993 7.17323L10.7092 7.12153L11.5474 8.24468L13.6666 8.24471L12.5438 6.00001L13.6666 3.75535L11.5474 3.75535L10.7091 4.8785L8.09989 4.8268L9.29322 1.46875e-05L7.09842 5.74211e-07L4.61224 4.7577L1.71238 4.70028C1.34626 4.69307 1.00056 4.82487 0.738954 5.07141ZM1.69853 5.34754L5.02284 5.41338L7.51335 0.647398L8.44146 0.647397L7.25225 5.45754L11.0493 5.53275L11.8927 4.40273L12.596 4.40273L11.797 6.00003L12.596 7.59733L11.8927 7.59733L11.0493 6.4673L7.25227 6.5425L8.44147 11.3526L7.51337 11.3526L5.02286 6.58664L1.69855 6.65247C1.51476 6.65613 1.3412 6.58996 1.20987 6.46621C1.20814 6.46461 1.20643 6.46296 1.20475 6.46134C1.07667 6.33813 1.00621 6.17459 1.00621 6.00002C1.0062 5.82314 1.07854 5.6576 1.20985 5.53384C1.34119 5.41009 1.51473 5.34393 1.69853 5.34754Z" fill="#606060"/>
</svg>
