<svg width="16" height="16" viewBox="0 0 16 16" fill="none" xmlns="http://www.w3.org/2000/svg">
<path d="M0.666672 14.0003H10.6667V14.667C10.6667 15.027 10.3733 15.3337 10 15.3337H1.33334C0.966672 15.3337 0.666672 15.027 0.666672 14.667V14.0003ZM13.6667 15.5403L10.6667 12.5537V12.667H0.666672V11.3337H9.44667L8.11334 10.0003H0.666672C0.666672 7.84033 2.30667 6.55366 4.25334 6.14033L0.453339 2.33366L1.40001 1.40033L8.66667 8.66699L10 10.0003L14.6 14.6003L13.6667 15.5403ZM6.78001 8.66699L5.44667 7.33366C4.50001 7.37366 3.10001 7.70699 2.41334 8.66699H6.78001ZM15.3333 3.33366H12V0.666992H10.6667V3.33366H7.33334L7.48667 4.66699H13.86L13.1933 11.3137L14.4133 12.5337L15.3333 3.33366Z" fill="#A31600"/>
</svg>
