<svg width="18" height="18" viewBox="0 0 18 18" fill="none" xmlns="http://www.w3.org/2000/svg">
<path d="M14 8.00098V0.000976562H4V4.00098H0V18.001H8V14.001H10V18.001H18V8.00098H14ZM4 16.001H2V14.001H4V16.001ZM4 12.001H2V10.001H4V12.001ZM4 8.00098H2V6.00098H4V8.00098ZM8 12.001H6V10.001H8V12.001ZM8 8.00098H6V6.00098H8V8.00098ZM8 4.00098H6V2.00098H8V4.00098ZM12 12.001H10V10.001H12V12.001ZM12 8.00098H10V6.00098H12V8.00098ZM12 4.00098H10V2.00098H12V4.00098ZM16 16.001H14V14.001H16V16.001ZM16 12.001H14V10.001H16V12.001Z" fill="#141414"/>
</svg>
