<svg width="16" height="16" viewBox="0 0 16 16"  xmlns="http://www.w3.org/2000/svg">
<path d="M12.6611 14.0013H11.9945V12.89C11.9924 12.5085 11.9248 12.1302 11.7948 11.7715C11.7875 11.7519 11.7798 11.7338 11.7708 11.7152C11.6629 11.4208 11.5137 11.1432 11.3278 10.8907L10.3945 9.64586C10.1356 9.2991 9.9953 8.87811 9.99447 8.44534V7.77213C9.99599 7.24208 10.2064 6.734 10.5801 6.35807L11.0182 5.91992C11.5273 5.40808 11.8543 4.74332 11.9491 4.02767C11.9495 4.01839 11.9544 4.01066 11.9544 4.0013L11.9526 3.99215C11.9757 3.8502 11.9897 3.7069 11.9945 3.56315V2.00133H12.6611C12.838 2.00133 13.0075 1.93109 13.1325 1.80607C13.2576 1.68105 13.3278 1.51148 13.3278 1.33467C13.3278 1.15786 13.2576 0.988286 13.1325 0.863261C13.0075 0.738237 12.838 0.667999 12.6611 0.667999H3.32781C3.151 0.667999 2.98143 0.738237 2.8564 0.863261C2.73138 0.988286 2.66114 1.15786 2.66114 1.33467C2.66114 1.51148 2.73138 1.68105 2.8564 1.80607C2.98143 1.93109 3.151 2.00133 3.32781 2.00133H3.99447V3.56315C3.99921 3.7069 4.01321 3.8502 4.03639 3.99215L4.03451 4.00133C4.03451 4.01067 4.03947 4.01843 4.03984 4.0277C4.13461 4.74335 4.46163 5.40811 4.97071 5.91995L5.40886 6.35811C5.78252 6.73403 5.99293 7.2421 5.99447 7.77213V8.44533C5.9936 8.87805 5.85344 9.29899 5.59473 9.64585L4.66081 10.8906C4.47497 11.1433 4.32585 11.421 4.21789 11.7154C4.20903 11.7339 4.20141 11.7518 4.19421 11.7712C4.06412 12.13 3.99655 12.5084 3.99447 12.89V14.0013H3.3278C3.15099 14.0013 2.98142 14.0716 2.85639 14.1966C2.73137 14.3216 2.66113 14.4912 2.66113 14.668C2.66113 14.8448 2.73137 15.0144 2.85639 15.1394C2.98142 15.2644 3.15099 15.3347 3.3278 15.3347H12.6611C12.8379 15.3347 13.0075 15.2644 13.1325 15.1394C13.2576 15.0144 13.3278 14.8448 13.3278 14.668C13.3278 14.4912 13.2576 14.3216 13.1325 14.1966C13.0075 14.0716 12.8379 14.0013 12.6611 14.0013ZM5.3278 3.33467V2.00133H10.6611V3.33467H5.3278ZM5.91341 4.97725C5.81948 4.88287 5.7353 4.77927 5.66215 4.668H10.3268C10.2536 4.77927 10.1695 4.88287 10.0755 4.97725L9.63737 5.4154C9.11734 5.93237 8.7839 6.60751 8.68945 7.33467H7.29945C7.20503 6.60749 6.87159 5.93232 6.35156 5.41533L5.91341 4.97725ZM6.66146 10.4453C7.04721 9.92846 7.27594 9.31142 7.32031 8.668H8.66862C8.71296 9.31149 8.94182 9.92856 9.3278 10.4453L9.99455 11.3347H5.99422L6.66146 10.4453ZM10.6611 14.0013H5.3278V12.89C5.32966 12.8157 5.33571 12.7416 5.34595 12.668H10.643C10.6532 12.7416 10.6593 12.8157 10.6611 12.89V14.0013Z" />
</svg>
