<svg width="12" height="12" viewBox="0 0 12 12" fill="none" xmlns="http://www.w3.org/2000/svg">
<path d="M5.99976 1L1.99976 2.5V5.545C1.99976 8.07 3.70476 10.425 5.99976 11C8.29476 10.425 9.99976 8.07 9.99976 5.545V2.5L5.99976 1ZM8.99976 5.545C8.99976 7.545 7.72476 9.395 5.99976 9.96C4.27476 9.395 2.99976 7.55 2.99976 5.545V3.195L5.99976 2.07L8.99976 3.195V5.545ZM4.95476 4.25L4.24976 4.955L5.29476 6L4.24976 7.045L4.95476 7.75L5.99976 6.71L7.04476 7.75L7.74976 7.045L6.70976 6L7.74976 4.955L7.04476 4.25L5.99976 5.295L4.95476 4.25Z" fill="#A31600"/>
</svg>
