<svg width="18" height="18" viewBox="0 0 18 18" xmlns="http://www.w3.org/2000/svg">
<path d="M9 18C6.61395 17.9971 4.32645 17.0479 2.63925 15.3607C0.952055 13.6735 0.00291096 11.3861 0 9C0.00291096 6.61395 0.952055 4.32645 2.63925 2.63926C4.32645 0.952059 6.61395 0.00291096 9 0C11.3861 0.00291096 13.6736 0.952059 15.3607 2.63926C17.0479 4.32645 17.9971 6.61395 18 9C17.9971 11.3861 17.0479 13.6735 15.3607 15.3607C13.6736 17.0479 11.3861 17.9971 9 18ZM9 1.454C6.99933 1.45612 5.08119 2.25182 3.6665 3.66651C2.25181 5.0812 1.45611 6.99933 1.45399 9C1.45611 11.0007 2.25181 12.9188 3.6665 14.3335C5.08119 15.7482 6.99933 16.5439 9 16.546C11.0007 16.5439 12.9188 15.7482 14.3335 14.3335C15.7482 12.9188 16.5439 11.0007 16.546 9C16.5439 6.99933 15.7482 5.0812 14.3335 3.66651C12.9188 2.25182 11.0007 1.45612 9 1.454ZM9 13.639C8.80727 13.6387 8.6225 13.5621 8.48622 13.4258C8.34994 13.2895 8.27326 13.1047 8.27299 12.912V7.948C8.27326 7.75536 8.34997 7.5707 8.48628 7.43458C8.62259 7.29846 8.80736 7.222 9 7.222C9.19264 7.222 9.3774 7.29846 9.51371 7.43458C9.65002 7.5707 9.72673 7.75536 9.727 7.948V12.912C9.72673 13.1047 9.65005 13.2895 9.51377 13.4258C9.37749 13.5621 9.19273 13.6387 9 13.639ZM9 6.366C8.73478 6.366 8.48043 6.26064 8.29289 6.07311C8.10536 5.88557 8 5.63122 8 5.366C8 5.10078 8.10536 4.84643 8.29289 4.65889C8.48043 4.47136 8.73478 4.366 9 4.366C9.26522 4.366 9.51957 4.47136 9.70711 4.65889C9.89464 4.84643 10 5.10078 10 5.366C10 5.63122 9.89464 5.88557 9.70711 6.07311C9.51957 6.26064 9.26522 6.366 9 6.366Z" />
</svg>
