<svg width="23" height="13" viewBox="0 0 23 13" fill="none" xmlns="http://www.w3.org/2000/svg">
<path d="M2.136 10.174C2.136 10.454 2.038 10.692 1.842 10.888C1.646 11.0747 1.41267 11.168 1.142 11.168C0.862 11.168 0.624 11.0747 0.428 10.888C0.241333 10.692 0.148 10.454 0.148 10.174V1.228C0.148 0.957333 0.241333 0.723999 0.428 0.528C0.624 0.331999 0.862 0.233999 1.142 0.233999C1.41267 0.233999 1.646 0.331999 1.842 0.528C2.038 0.723999 2.136 0.957333 2.136 1.228V10.174ZM4.02163 5.064C4.02163 4.028 4.19896 3.15067 4.55363 2.432C4.91763 1.704 5.42629 1.158 6.07963 0.794C6.73296 0.420666 7.49363 0.233999 8.36163 0.233999C9.22963 0.233999 9.99029 0.420666 10.6436 0.794C11.3063 1.158 11.8196 1.704 12.1836 2.432C12.5476 3.15067 12.7296 4.028 12.7296 5.064V6.464C12.7296 7.39733 12.5756 8.2 12.2676 8.872C11.969 9.544 11.5443 10.076 10.9936 10.468L11.5116 11.42C11.5956 11.5507 11.6376 11.6767 11.6376 11.798C11.6376 11.9847 11.5676 12.148 11.4276 12.288C11.297 12.428 11.1336 12.498 10.9376 12.498C10.667 12.498 10.4476 12.344 10.2796 12.036L9.73363 11.042C9.31363 11.154 8.85629 11.21 8.36163 11.21C7.02696 11.21 5.96763 10.8087 5.18363 10.006C4.40896 9.194 4.02163 8.01333 4.02163 6.464V5.064ZM8.23563 8.046C8.23563 7.85933 8.30096 7.70067 8.43163 7.57C8.57163 7.43933 8.73963 7.374 8.93563 7.374C9.07563 7.374 9.20163 7.416 9.31363 7.5C9.42563 7.584 9.51429 7.696 9.57963 7.836L10.1116 8.83C10.5223 8.33533 10.7276 7.57933 10.7276 6.562V4.966C10.7276 3.986 10.5316 3.23467 10.1396 2.712C9.75696 2.18 9.16429 1.914 8.36163 1.914C7.58696 1.914 7.00363 2.18 6.61163 2.712C6.21963 3.244 6.02363 3.99533 6.02363 4.966V6.562C6.02363 7.53267 6.21029 8.27 6.58363 8.774C6.95696 9.278 7.54963 9.53 8.36163 9.53C8.54829 9.53 8.72563 9.516 8.89363 9.488L8.31963 8.424C8.26363 8.312 8.23563 8.186 8.23563 8.046ZM15.6342 11C15.3542 11 15.1162 10.902 14.9202 10.706C14.7335 10.51 14.6402 10.2767 14.6402 10.006V1.424C14.6402 1.15333 14.7335 0.919999 14.9202 0.724C15.1162 0.527999 15.3542 0.429999 15.6342 0.429999H18.3222C19.6662 0.429999 20.7302 0.826666 21.5142 1.62C22.3075 2.41333 22.7042 3.58 22.7042 5.12V6.408C22.7042 7.93867 22.3122 9.08667 21.5282 9.852C20.7442 10.6173 19.6755 11 18.3222 11H15.6342ZM16.6282 9.25H18.3222C19.1155 9.25 19.7082 9.04 20.1002 8.62C20.5015 8.2 20.7022 7.49533 20.7022 6.506V5.022C20.7022 4.08867 20.4969 3.37933 20.0862 2.894C19.6755 2.40867 19.0875 2.166 18.3222 2.166H16.6282V9.25Z" fill="#666464"/>
</svg>
