<svg xmlns="http://www.w3.org/2000/svg" id="prefix__Icons_24_x_24_lang" width="24" height="24" data-name="Icons 24 x 24_lang" viewBox="0 0 24 24">
    <path id="prefix__Rectangle_68" fill="none" d="M0 0H24V24H0z" data-name="Rectangle 68"/>
    <path id="prefix__Path_172" fill="#606060" d="M17.66 6.34A8 8 0 1 0 20 12a8 8 0 0 0-2.34-5.66zm1 6.31a6.67 6.67 0 0 1-.56 2.1h-2a8.74 8.74 0 0 0 .38-2.1zm0-1.3h-2.13a8.74 8.74 0 0 0-.38-2.1h2a6.67 6.67 0 0 1 .51 2.1zm-6 3.4v-2.1h2.57a7.78 7.78 0 0 1-.44 2.1zm0-3.4v-2.1h2.13a7.78 7.78 0 0 1 .44 2.1zm0-3.4V6a8.16 8.16 0 0 1 .79.87A8.51 8.51 0 0 1 14.18 8zm3 0a9.84 9.84 0 0 0-1.19-1.89c-.11-.14-.23-.28-.35-.41A6.69 6.69 0 0 1 17.33 8zm-1.47 8.1a8.9 8.9 0 0 1-.72 1.05 8.45 8.45 0 0 1-.81.88v-1.93zm-.07 2.3c.12-.13.24-.27.35-.41a9.84 9.84 0 0 0 1.19-1.89h1.68a6.69 6.69 0 0 1-3.23 2.3zm-2.76-9.1v2.1H8.77a8.19 8.19 0 0 1 .45-2.1zm0 3.4v2.1H9.22a8.19 8.19 0 0 1-.45-2.1zm0 3.4V18a8.16 8.16 0 0 1-.79-.87 8.51 8.51 0 0 1-.74-1.07zm-1.81-10A9.84 9.84 0 0 0 8.35 8H6.67a6.69 6.69 0 0 1 3.22-2.3 1.719 1.719 0 0 0-.35.36zm-4.2 5.29a6.41 6.41 0 0 1 .56-2.1h1.94a8.65 8.65 0 0 0-.38 2.1zm2.13 1.3a8.74 8.74 0 0 0 .38 2.1H5.9a6.41 6.41 0 0 1-.56-2.1zm.88 3.4a9.84 9.84 0 0 0 1.19 1.89c.11.14.23.28.35.41a6.69 6.69 0 0 1-3.22-2.3zM9.82 8a8.9 8.9 0 0 1 .72-1 9.71 9.71 0 0 1 .81-1v2z" data-name="Path 172"/>
</svg>
