<svg width="21" height="21" viewBox="0 0 21 21" fill="none" xmlns="http://www.w3.org/2000/svg">
<path d="M3.41667 2.53076L3.55 2.55576L8 4.28076L13 2.53076L17.7 4.1141C17.875 4.17243 18 4.32243 18 4.5141V17.1141C18 17.2246 17.9561 17.3306 17.878 17.4087C17.7998 17.4869 17.6938 17.5308 17.5833 17.5308L17.45 17.5058L13 15.7808L8 17.5308L3.3 15.9474C3.125 15.8891 3 15.7391 3 15.5474V2.94743C3 2.83692 3.0439 2.73094 3.12204 2.6528C3.20018 2.57466 3.30616 2.53076 3.41667 2.53076ZM12.1667 4.58909L8.83333 5.75576V15.4724L12.1667 14.3058V4.58909ZM16.3333 5.41409L13.8333 4.57243V14.3224L16.3333 15.2891V5.41409ZM4.66667 14.6474L7.16667 15.4891V5.74743L4.66667 4.78076V14.6474Z" fill="#F5F5F5"/>
</svg>
