<svg width="16" height="16" viewBox="0 0 16 16" fill="none" xmlns="http://www.w3.org/2000/svg">
<g id="mdi:airplane-off">
<g id="Vector">
<path d="M13.8933 15.1534L12 13.2667L11.5867 13.6867L10.6667 11.9267L8.23332 9.49335L6.39999 11.3334L6.63999 12.98L5.92666 13.6867L4.75332 11.5667L2.62666 10.3867L3.33332 9.66669L4.99999 9.91335L6.81999 8.08002L4.39332 5.66668L2.62666 4.72668L3.04666 4.30668L0.73999 2.00002L1.59332 1.15335L14.74 14.3067L13.8933 15.1534ZM11.1133 6.61335L13.7067 4.02002C14.1 3.63335 14.1 3.00002 13.7067 2.60668C13.3133 2.21335 12.6667 2.22002 12.2933 2.60668L9.69999 5.20002L6.62666 4.49335L11.8267 9.69335L11.1133 6.61335Z" fill="white"/>
<path d="M13.8933 15.1534L12 13.2667L11.5867 13.6867L10.6667 11.9267L8.23332 9.49335L6.39999 11.3334L6.63999 12.98L5.92666 13.6867L4.75332 11.5667L2.62666 10.3867L3.33332 9.66669L4.99999 9.91335L6.81999 8.08002L4.39332 5.66668L2.62666 4.72668L3.04666 4.30668L0.73999 2.00002L1.59332 1.15335L14.74 14.3067L13.8933 15.1534ZM11.1133 6.61335L13.7067 4.02002C14.1 3.63335 14.1 3.00002 13.7067 2.60668C13.3133 2.21335 12.6667 2.22002 12.2933 2.60668L9.69999 5.20002L6.62666 4.49335L11.8267 9.69335L11.1133 6.61335Z" fill="black" fill-opacity="0.2"/>
<path d="M13.8933 15.1534L12 13.2667L11.5867 13.6867L10.6667 11.9267L8.23332 9.49335L6.39999 11.3334L6.63999 12.98L5.92666 13.6867L4.75332 11.5667L2.62666 10.3867L3.33332 9.66669L4.99999 9.91335L6.81999 8.08002L4.39332 5.66668L2.62666 4.72668L3.04666 4.30668L0.73999 2.00002L1.59332 1.15335L14.74 14.3067L13.8933 15.1534ZM11.1133 6.61335L13.7067 4.02002C14.1 3.63335 14.1 3.00002 13.7067 2.60668C13.3133 2.21335 12.6667 2.22002 12.2933 2.60668L9.69999 5.20002L6.62666 4.49335L11.8267 9.69335L11.1133 6.61335Z" fill="black" fill-opacity="0.2"/>
<path d="M13.8933 15.1534L12 13.2667L11.5867 13.6867L10.6667 11.9267L8.23332 9.49335L6.39999 11.3334L6.63999 12.98L5.92666 13.6867L4.75332 11.5667L2.62666 10.3867L3.33332 9.66669L4.99999 9.91335L6.81999 8.08002L4.39332 5.66668L2.62666 4.72668L3.04666 4.30668L0.73999 2.00002L1.59332 1.15335L14.74 14.3067L13.8933 15.1534ZM11.1133 6.61335L13.7067 4.02002C14.1 3.63335 14.1 3.00002 13.7067 2.60668C13.3133 2.21335 12.6667 2.22002 12.2933 2.60668L9.69999 5.20002L6.62666 4.49335L11.8267 9.69335L11.1133 6.61335Z" fill="black" fill-opacity="0.2"/>
<path d="M13.8933 15.1534L12 13.2667L11.5867 13.6867L10.6667 11.9267L8.23332 9.49335L6.39999 11.3334L6.63999 12.98L5.92666 13.6867L4.75332 11.5667L2.62666 10.3867L3.33332 9.66669L4.99999 9.91335L6.81999 8.08002L4.39332 5.66668L2.62666 4.72668L3.04666 4.30668L0.73999 2.00002L1.59332 1.15335L14.74 14.3067L13.8933 15.1534ZM11.1133 6.61335L13.7067 4.02002C14.1 3.63335 14.1 3.00002 13.7067 2.60668C13.3133 2.21335 12.6667 2.22002 12.2933 2.60668L9.69999 5.20002L6.62666 4.49335L11.8267 9.69335L11.1133 6.61335Z" fill="black" fill-opacity="0.2"/>
</g>
</g>
</svg>
