<svg width="12" height="12" viewBox="0 0 12 12" fill="none" xmlns="http://www.w3.org/2000/svg">
<g id="mdi:food-fork-drink">
<path id="Vector" d="M1.49976 1.49998C1.36715 1.49998 1.23997 1.55266 1.1462 1.64643C1.05243 1.74019 0.999756 1.86737 0.999756 1.99998V4.74998C0.999756 5.59498 1.51476 6.31498 2.24976 6.60998V9.74998C2.24976 9.94889 2.32877 10.1397 2.46943 10.2803C2.61008 10.421 2.80084 10.5 2.99976 10.5C3.19867 10.5 3.38943 10.421 3.53009 10.2803C3.67074 10.1397 3.74976 9.94889 3.74976 9.74998V6.60998C4.48476 6.31498 4.99976 5.59498 4.99976 4.74998V1.99998C4.99976 1.86737 4.94708 1.74019 4.85331 1.64643C4.75954 1.55266 4.63236 1.49998 4.49976 1.49998C4.36715 1.49998 4.23997 1.55266 4.1462 1.64643C4.05243 1.74019 3.99976 1.86737 3.99976 1.99998V3.99998C3.99976 4.06628 3.97342 4.12987 3.92653 4.17676C3.87965 4.22364 3.81606 4.24998 3.74976 4.24998C3.68345 4.24998 3.61986 4.22364 3.57298 4.17676C3.5261 4.12987 3.49976 4.06628 3.49976 3.99998V1.99998C3.49976 1.86737 3.44708 1.74019 3.35331 1.64643C3.25954 1.55266 3.13236 1.49998 2.99976 1.49998C2.86715 1.49998 2.73997 1.55266 2.6462 1.64643C2.55243 1.74019 2.49976 1.86737 2.49976 1.99998V3.99998C2.49976 4.06628 2.47342 4.12987 2.42653 4.17676C2.37965 4.22364 2.31606 4.24998 2.24976 4.24998C2.18345 4.24998 2.11986 4.22364 2.07298 4.17676C2.0261 4.12987 1.99976 4.06628 1.99976 3.99998V1.99998C1.99976 1.86737 1.94708 1.74019 1.85331 1.64643C1.75954 1.55266 1.63236 1.49998 1.49976 1.49998ZM9.93976 1.49998C9.87476 1.49998 9.80976 1.54498 9.74976 1.57998L7.99976 2.62498V4.49998H5.99976V5.49998H6.49976L6.99976 10.5H9.99976L10.4998 5.49998H10.9998V4.49998H8.99976V3.16998L10.2498 2.41998C10.4998 2.27998 10.5648 1.99998 10.4198 1.74998C10.3148 1.56998 10.1298 1.47498 9.93976 1.49998Z" fill="#1F1F1F"/>
</g>
</svg>
