<svg xmlns="http://www.w3.org/2000/svg" id="prefix__Icons_24_x_24_mobile" width="24" height="24" data-name="Icons 24 x 24_mobile" viewBox="0 0 24 24">
    <path id="prefix__Rectangle_80" fill="none" d="M0 0H24V24H0z" data-name="Rectangle 80"/>
    <path id="prefix__Path_205" fill="#606060" d="M15.42 4H8.59a2 2 0 0 0-2 2v12a2 2 0 0 0 2 2h6.83a2 2 0 0 0 2-2V6a2 2 0 0 0-2-2zM8 6a.61.61 0 0 1 .62-.61h.32a.29.29 0 0 1 .29.29A1.34 1.34 0 0 0 10.54 7h2.92a1.34 1.34 0 0 0 1.34-1.34.29.29 0 0 1 .29-.29h.33A.61.61 0 0 1 16 6v12a.61.61 0 0 1-.61.61h-6.8A.61.61 0 0 1 8 18zm2.57-.61h2.92a1.13 1.13 0 0 0 0 .26H10.6a1.36 1.36 0 0 0-.06-.28z" data-name="Path 205"/>
</svg>
