<svg width="24" height="24" viewBox="0 0 24 24">
<path d="M6.29899 11.9999C6.2964 11.8026 6.21688 11.6141 6.07734 11.4746C5.93781 11.3351 5.74931 11.2555 5.552 11.2529H3.74699C3.55038 11.2565 3.36289 11.3365 3.22421 11.476C3.08553 11.6154 3.00656 11.8033 3.004 11.9999C3.00292 12.0983 3.02152 12.1959 3.05868 12.2871C3.09584 12.3782 3.15082 12.4609 3.2204 12.5305C3.28998 12.6001 3.37275 12.6551 3.46387 12.6922C3.55498 12.7294 3.65259 12.748 3.75099 12.7469H5.556C5.75261 12.7433 5.9401 12.6633 6.07878 12.5239C6.21746 12.3845 6.29643 12.1966 6.29899 11.9999Z" />
<path d="M6.90399 7.97103C6.97203 8.03941 7.05291 8.09369 7.14197 8.13076C7.23103 8.16783 7.32654 8.18695 7.423 8.18703C7.51964 8.18708 7.61532 8.16802 7.70456 8.13095C7.7938 8.09388 7.87483 8.03953 7.94299 7.97103C8.0115 7.90287 8.06585 7.82184 8.10292 7.7326C8.13999 7.64335 8.15905 7.54766 8.159 7.45103C8.15892 7.35456 8.13979 7.25906 8.10272 7.17C8.06566 7.08094 8.01138 7.00007 7.94299 6.93203L6.653 5.64303C6.58546 5.57418 6.50485 5.51952 6.41589 5.48225C6.32694 5.44499 6.23144 5.42587 6.13499 5.42603C6.03838 5.42574 5.9427 5.44479 5.85356 5.48206C5.76443 5.51933 5.68365 5.57406 5.616 5.64303C5.54772 5.71112 5.49356 5.79201 5.4566 5.88107C5.41964 5.97013 5.40062 6.06561 5.40062 6.16203C5.40062 6.25845 5.41964 6.35393 5.4566 6.44299C5.49356 6.53205 5.54772 6.61294 5.616 6.68103L6.90399 7.97103Z" />
<path d="M16.563 8.18703C16.7605 8.18717 16.9502 8.10958 17.091 7.97103L18.381 6.68103C18.5185 6.54308 18.5956 6.35627 18.5956 6.16153C18.5956 5.96678 18.5185 5.77998 18.381 5.64203C18.3128 5.57352 18.2318 5.51917 18.1426 5.4821C18.0533 5.44503 17.9576 5.42597 17.861 5.42603C17.7644 5.42596 17.6688 5.44512 17.5797 5.48237C17.4906 5.51963 17.4098 5.57424 17.342 5.64303L16.052 6.93203C15.9156 7.06951 15.839 7.25534 15.839 7.44903C15.839 7.64271 15.9156 7.82854 16.052 7.96603C16.1173 8.03619 16.1964 8.09206 16.2843 8.1301C16.3723 8.16814 16.4672 8.18752 16.563 8.18703Z" />
<path d="M12.004 6.3C12.2013 6.29741 12.3898 6.21788 12.5293 6.07834C12.6689 5.93881 12.7484 5.75031 12.751 5.553V3.747C12.7484 3.54969 12.6689 3.36119 12.5293 3.22165C12.3898 3.08212 12.2013 3.00259 12.004 3C11.8067 3.00259 11.6182 3.08212 11.4787 3.22165C11.3391 3.36119 11.2596 3.54969 11.257 3.747V5.552C11.2593 5.74949 11.3387 5.93824 11.4783 6.07799C11.6179 6.21773 11.8065 6.29741 12.004 6.3Z" />
<path d="M17.073 16.034C17.0069 15.9636 16.9269 15.9076 16.8381 15.8695C16.7493 15.8315 16.6536 15.8122 16.557 15.813C16.3595 15.8131 16.1699 15.8906 16.029 16.029C15.9605 16.0972 15.9061 16.1782 15.8691 16.2674C15.832 16.3567 15.813 16.4524 15.813 16.549C15.8131 16.6455 15.8322 16.741 15.8693 16.83C15.9063 16.9191 15.9606 17 16.029 17.068L17.319 18.358C17.387 18.4265 17.4678 18.4808 17.5569 18.5179C17.646 18.555 17.7415 18.574 17.838 18.574C17.9346 18.5741 18.0302 18.5549 18.1193 18.5177C18.2084 18.4804 18.2892 18.4258 18.357 18.357C18.4944 18.2192 18.5716 18.0326 18.5716 17.838C18.5716 17.6434 18.4944 17.4568 18.357 17.319L17.073 16.034Z" />
<path d="M20.253 11.2529H18.447C18.2503 11.2563 18.0627 11.3362 17.9239 11.4757C17.7852 11.6152 17.7063 11.8032 17.704 11.9999C17.7063 12.1971 17.7856 12.3857 17.925 12.5252C18.0644 12.6648 18.2528 12.7443 18.45 12.7469H20.256C20.4535 12.7446 20.6422 12.6652 20.782 12.5256C20.9217 12.3861 21.0014 12.1974 21.004 11.9999C21.0014 11.8019 20.9213 11.6128 20.7809 11.4732C20.6405 11.3336 20.451 11.2545 20.253 11.2529Z" />
<path d="M15.239 8.76097C14.3804 7.90228 13.2183 7.41621 12.004 7.40797C11.4013 7.40677 10.8043 7.52582 10.2482 7.75814C9.69202 7.99046 9.18779 8.33139 8.765 8.76097C7.90249 9.61928 7.41342 10.7832 7.40399 12C7.41156 13.2157 7.89806 14.3795 8.758 15.239C9.61927 16.1003 10.7859 16.5866 12.004 16.592C12.6067 16.5932 13.2036 16.4741 13.7598 16.2418C14.316 16.0095 14.8202 15.6685 15.243 15.239C16.1016 14.379 16.5863 13.2151 16.592 12C16.5932 11.3972 16.4741 10.8003 16.2418 10.2442C16.0095 9.68799 15.6686 9.18376 15.239 8.76097ZM12.004 15.1C11.596 15.1027 11.1915 15.0246 10.8139 14.8701C10.4363 14.7157 10.0931 14.4879 9.804 14.2C9.22602 13.6138 8.9026 12.8232 8.90399 12C8.9026 11.1767 9.22602 10.3862 9.804 9.79997C10.0931 9.51206 10.4363 9.28429 10.8139 9.12981C11.1915 8.97533 11.596 8.89721 12.004 8.89997C12.8272 8.89869 13.6177 9.22208 14.204 9.79997C14.492 10.0889 14.7199 10.4322 14.8744 10.8098C15.0289 11.1874 15.1069 11.592 15.104 12C15.106 12.8233 14.7825 13.6141 14.204 14.2C13.6177 14.7779 12.8272 15.1012 12.004 15.1Z" />
<path d="M12.004 17.7C11.8067 17.7025 11.6182 17.7821 11.4787 17.9216C11.3391 18.0611 11.2596 18.2496 11.257 18.447V20.252C11.2593 20.4494 11.3387 20.6382 11.4783 20.7779C11.6179 20.9177 11.8065 20.9974 12.004 21C12.2013 20.9974 12.3898 20.9178 12.5293 20.7783C12.6689 20.6388 12.7484 20.4503 12.751 20.253V18.448C12.7487 18.2505 12.6692 18.0617 12.5297 17.922C12.3901 17.7822 12.2015 17.7025 12.004 17.7Z" />
<path d="M7.437 15.813C7.23942 15.8127 7.04967 15.8903 6.909 16.029L5.62 17.319C5.55172 17.3871 5.49756 17.468 5.4606 17.5571C5.42364 17.6461 5.40462 17.7416 5.40462 17.838C5.40462 17.9344 5.42364 18.0299 5.4606 18.119C5.49756 18.208 5.55172 18.2889 5.62 18.357C5.68765 18.426 5.76842 18.4807 5.85756 18.518C5.94669 18.5552 6.04238 18.5743 6.13899 18.574C6.23544 18.5742 6.33094 18.555 6.41989 18.5178C6.50884 18.4805 6.58946 18.4259 6.657 18.357L7.94699 17.068C8.01538 17 8.06967 16.9191 8.10674 16.83C8.1438 16.741 8.16291 16.6455 8.16299 16.549C8.16337 16.3564 8.08794 16.1714 7.953 16.034C7.8869 15.9636 7.80693 15.9076 7.71812 15.8695C7.62932 15.8315 7.5336 15.8122 7.437 15.813Z" />
</svg>
