<svg width="24" height="24" viewBox="0 0 24 24" fill="none" xmlns="http://www.w3.org/2000/svg">
<path d="M21 10.9999L23 8.99989C19.27 5.26989 14.13 3.84989 9.3 4.68989L11.88 7.26989C15.18 7.24989 18.49 8.48989 21 10.9999ZM19 12.9999C17.95 11.9547 16.6787 11.1584 15.28 10.6699L18.3 13.6899L19 12.9999ZM9 16.9999L12 19.9999L15 16.9999C14.6064 16.6053 14.1388 16.2921 13.624 16.0785C13.1092 15.8649 12.5574 15.7549 12 15.7549C11.4426 15.7549 10.8908 15.8649 10.376 16.0785C9.86117 16.2921 9.39359 16.6053 9 16.9999ZM3.41 1.63989L2 3.04989L5.05 6.09989C3.59 6.82989 2.22 7.78989 1 8.99989L3 10.9999C4.23 9.76989 5.65 8.83989 7.17 8.21989L9.41 10.4599C7.74197 10.9034 6.22068 11.7797 5 12.9999L7 14.9999C8.2965 13.6981 10.0528 12.9582 11.89 12.9399L18.97 20.0199L20.38 18.6099L3.41 1.63989Z" fill="#A38500"/>
</svg>
