<svg width="24" height="24" viewBox="0 0 24 24" fill="none" xmlns="http://www.w3.org/2000/svg">
<path d="M1 8.99989L3 10.9999C7.97 6.02989 16.03 6.02989 21 10.9999L23 8.99989C16.93 2.92989 7.08 2.92989 1 8.99989ZM9 16.9999L12 19.9999L15 16.9999C14.6064 16.6052 14.1388 16.2921 13.624 16.0785C13.1092 15.8649 12.5574 15.7549 12 15.7549C11.4426 15.7549 10.8908 15.8649 10.376 16.0785C9.86117 16.2921 9.39359 16.6052 9 16.9999ZM5 12.9999L7 14.9999C8.32646 13.6745 10.1249 12.93 12 12.93C13.8751 12.93 15.6735 13.6745 17 14.9999L19 12.9999C15.14 9.13989 8.87 9.13989 5 12.9999Z" fill="#00A354"/>
</svg>
