<svg width="12" height="16" viewBox="0 0 12 16" fill="none" xmlns="http://www.w3.org/2000/svg">
<path d="M4.5 4C4.77612 4 5 3.77637 5 3.5C5 3.22363 4.77612 3 4.5 3C4.22388 3 4 3.22363 4 3.5C4 3.77637 4.22388 4 4.5 4Z" fill="#707070"/>
<path d="M6 4C6.27612 4 6.5 3.77637 6.5 3.5C6.5 3.479 6.49878 3.45801 6.49609 3.4375C6.49194 3.4043 6.48462 3.37256 6.47461 3.34229C6.40845 3.14355 6.22095 3 6 3C5.72388 3 5.5 3.22363 5.5 3.5C5.5 3.66797 5.58252 3.81592 5.70898 3.90674C5.79102 3.96533 5.89136 4 6 4Z" fill="#707070"/>
<path d="M7.5 4C7.77612 4 8 3.77637 8 3.5C8 3.22363 7.77612 3 7.5 3C7.22388 3 7 3.22363 7 3.5C7 3.60498 7.03223 3.70215 7.0874 3.78271C7.17749 3.91406 7.32861 4 7.5 4Z" fill="#707070"/>
<path fill-rule="evenodd" clip-rule="evenodd" d="M1 2C1 2.59717 1.26196 3.1333 1.677 3.5C1.26196 3.8667 1 4.40283 1 5V8C0.447754 8 0 8.44775 0 9V11C0 12.021 0.765381 12.8633 1.75366 12.9849L1.31055 14.7573C1.15283 15.3887 1.63013 16 2.28076 16H9.71924C10.3699 16 10.8472 15.3887 10.6895 14.7573L10.2463 12.9849C11.2346 12.8633 12 12.021 12 11V9C12 8.44775 11.5522 8 11 8V5C11 4.40283 10.738 3.8667 10.323 3.5C10.738 3.1333 11 2.59717 11 2C11 0.895508 10.1045 0 9 0H3C1.89551 0 1 0.895508 1 2ZM2 8C2.55225 8 3 8.44775 3 9V9.5C3 9.77637 3.22388 10 3.5 10H8.5C8.77612 10 9 9.77637 9 9.5V9C9 8.44775 9.44775 8 10 8V5C10 4.44775 9.55225 4 9 4C8.72388 4 8.5 3.77637 8.5 3.5C8.5 3.22363 8.72388 3 9 3C9.55225 3 10 2.55225 10 2C10 1.44775 9.55225 1 9 1H3C2.44775 1 2 1.44775 2 2C2 2.55225 2.44775 3 3 3C3.27612 3 3.5 3.22363 3.5 3.5C3.5 3.77637 3.27612 4 3 4C2.44775 4 2 4.44775 2 5V8ZM11 9H10V9.5C10 10.3286 9.32837 11 8.5 11H3.5C2.67163 11 2 10.3286 2 9.5V9H1V11C1 11.5522 1.44775 12 2 12H10C10.5522 12 11 11.5522 11 11V9ZM2.28076 15L2.78076 13H9.21924L9.71924 15H2.28076Z" fill="#707070"/>
</svg>
