<svg width="24" height="24" viewBox="0 0 24 24">
<path fill-rule="evenodd" clip-rule="evenodd" d="M19.921 13.251C19.8802 13.1795 19.8247 13.1175 19.7582 13.0691C19.6917 13.0206 19.6156 12.9869 19.535 12.97C19.4847 12.9573 19.4329 12.9509 19.381 12.951C19.2293 12.9535 19.0824 13.0047 18.962 13.097C18.4418 13.5417 17.8465 13.8902 17.204 14.126C16.569 14.3678 15.8944 14.4886 15.215 14.482C14.453 14.4846 13.6981 14.3357 12.9943 14.0438C12.2904 13.752 11.6516 13.3231 11.115 12.782C10.5741 12.242 10.1455 11.6003 9.8537 10.8939C9.56193 10.1875 9.41284 9.43033 9.41501 8.66603C9.41697 8.01284 9.524 7.36422 9.732 6.74503C9.9391 6.12477 10.2595 5.54834 10.677 5.04503C10.7837 4.91174 10.8331 4.74154 10.8144 4.57183C10.7956 4.40212 10.7102 4.24681 10.577 4.14003C10.4578 4.05115 10.3137 4.00216 10.165 4.00003C10.1107 3.99947 10.0565 4.00619 10.004 4.02003C8.28325 4.49879 6.76314 5.5205 5.67 6.93303C4.58623 8.35267 4.00067 10.09 4.004 11.876C4.00081 12.9424 4.20857 13.9989 4.61531 14.9847C5.02205 15.9705 5.61975 16.8662 6.37401 17.62C7.12259 18.376 8.01391 18.9756 8.99619 19.3842C9.97847 19.7928 11.0321 20.0021 12.096 20C13.914 19.9994 15.6785 19.3853 17.104 18.257C18.5334 17.1263 19.5402 15.5471 19.962 13.774C19.9928 13.689 20.005 13.5983 19.9979 13.5081C19.9909 13.4179 19.9646 13.3303 19.921 13.251ZM16.348 17.216C15.1494 18.1658 13.6653 18.6831 12.136 18.684C11.2424 18.6858 10.3573 18.5099 9.53219 18.1666C8.70713 17.8232 7.95855 17.3193 7.33 16.684C6.6947 16.0518 6.19088 15.3 5.84762 14.472C5.50435 13.6441 5.32843 12.7563 5.33 11.86C5.32065 10.3599 5.81348 8.8997 6.73 7.71203C7.26476 7.01272 7.93046 6.42412 8.69 5.97903C8.641 6.09703 8.59 6.21803 8.552 6.34303C8.28816 7.09644 8.15656 7.88979 8.163 8.68803C8.16914 10.5661 8.91375 12.3663 10.236 13.7C11.5629 15.0256 13.3604 15.7723 15.236 15.777C16.0688 15.7826 16.8957 15.6362 17.676 15.345C17.823 15.288 17.969 15.232 18.112 15.172C17.6604 15.9601 17.0616 16.6541 16.348 17.216Z"/>
</svg>
