<svg width="328" height="379" viewBox="0 0 328 379" fill="none" xmlns="http://www.w3.org/2000/svg">
<path d="M291.375 300.505C291.375 315.651 240.129 327.931 176.918 327.931C113.707 327.931 62.4611 315.651 62.4611 300.505C62.4611 285.366 113.707 273.087 176.918 273.087C240.129 273.087 291.375 285.366 291.375 300.505Z" fill="black" fill-opacity="0.2"/>
<path d="M132.554 236.027C130.179 236.286 127.701 236.52 125.566 235.506C121.616 233.598 120.621 228.472 120.718 224.066C121.118 202.298 135.256 182.845 137.576 161.167C138.767 149.932 136.781 138.655 136.407 127.393C136.032 116.132 137.616 104.074 144.851 95.3803C142.597 90.4973 140.343 85.6142 138.053 80.7881C129.159 88.2112 125.549 100.35 124.778 111.926C124.008 123.502 125.585 135.118 124.918 146.718C123.506 169.792 113.202 191.278 108.012 213.817C106.45 220.511 105.389 227.479 106.668 234.245C107.946 241.01 112.048 247.559 118.367 250.231C123.395 252.376 129.123 251.874 134.602 251.137C148.859 249.19 162.933 245.825 176.5 241.116L177.159 226.545C162.685 231.124 147.74 234.303 132.658 236.051L132.554 236.027Z" fill="#474747"/>
<path d="M108.832 242.706C106.457 242.965 103.979 243.199 101.844 242.185C97.8937 240.277 96.8981 235.151 96.9952 230.745C97.385 208.931 111.533 189.524 113.854 167.846C115.044 156.611 113.012 145.345 112.684 134.072C112.309 122.811 113.893 110.753 121.128 102.059C118.874 97.1764 116.62 92.2933 114.331 87.4673C105.437 94.8904 101.826 107.029 101.056 118.605C100.286 130.181 101.863 141.797 101.196 153.398C99.7836 176.471 89.4791 197.957 84.2897 220.496C82.727 227.191 81.6662 234.158 82.9449 240.924C84.2237 247.689 88.3256 254.238 94.6448 256.91C99.6724 259.055 105.401 258.553 110.879 257.816C125.137 255.869 139.21 252.504 152.777 247.795L153.437 233.224C138.963 237.803 124.017 240.981 108.935 242.73L108.832 242.706Z" fill="#474747"/>
<path d="M164.428 30.9742C163.375 27.9067 161.994 24.477 158.987 23.2756C156.301 22.1946 153.29 23.2834 150.568 24.3539C141.345 28.0542 131.714 32.0928 125.437 39.8822C124.379 41.1994 123.35 42.8509 123.783 44.5039C124.083 45.7979 125.173 46.7139 126.241 47.5374C129.491 49.9974 133.117 51.9803 136.924 53.4829L145.564 49.5771C143.349 47.802 141.135 46.027 138.91 44.2057C138.547 43.9004 138.127 43.5596 138.112 43.076C138.054 42.4076 138.672 41.9231 139.23 41.5987C142.126 39.8061 145.021 38.0135 147.86 36.1853C150.198 34.717 152.973 33.2444 155.524 34.162C158.669 35.3312 159.454 39.3379 159.789 42.6695C162.272 43.5053 164.957 41.2257 165.53 38.6574C166.103 36.0891 165.238 33.4162 164.371 30.9388L164.428 30.9742Z" fill="#474747"/>
<path d="M151.097 247.697C127.381 203.036 118.017 152.851 109.194 103.32C107.366 92.9313 105.594 81.9454 109.905 71.9825C115.4 59.3579 129.122 51.5441 141.954 44.7167C153.392 38.6023 164.97 32.4559 177.536 29.0995C190.159 25.7787 204.077 25.5178 215.378 30.9788C228.996 37.6065 236.479 51.1628 242.926 64.0342C261.418 101.092 277.789 139.081 293.477 177.277C297.623 187.37 301.667 198.705 296.973 208.903C292.243 219.158 280.192 224.733 269.104 229.208C245.895 238.542 222.288 246.995 198.362 254.499C191.143 256.76 178.988 261.677 171.527 261.218C164.066 260.759 153.52 254.148 151.097 247.697Z" fill="#FF334E"/>
<g opacity="0.2">
<path d="M293.534 177.311C297.68 187.405 301.725 198.74 297.03 208.938C292.3 219.193 280.25 224.768 269.161 229.242C245.953 238.577 222.345 247.03 198.419 254.534C191.2 256.795 179.045 261.712 171.584 261.253C164.123 260.794 153.577 254.183 151.154 247.732L140.861 226.061L288.592 165.26L293.58 177.301L293.534 177.311Z" fill="white"/>
</g>
<path d="M129.114 52.1319C115.035 72.2538 130.105 95.8351 136.719 115.925C141.509 129.425 153.753 165.79 158.476 179.841C163.243 194.077 167.953 208.277 173.264 222.338C158.058 188.316 146.817 151.863 134.785 116.618C128.392 96.4277 114.006 71.8107 129.125 52.1782L129.114 52.1319Z" fill="#474747"/>
<path d="M216.26 230.472C210.992 231.695 205.495 232.144 200.385 230.067C193.938 227.472 190.022 221.514 187.807 217.012C186.039 213.38 184.792 209.48 183.614 205.663C183.024 203.754 182.378 201.809 181.685 199.876C181.104 198.209 180.429 196.563 179.744 194.872C178.452 191.616 177.139 188.268 176.242 184.823C174.619 178.674 174.779 173.279 176.615 168.81C179.422 162.021 186.019 157.712 192.732 154.108C210.073 144.675 228.586 137.356 247.636 132.348L255.955 130.416C260.345 129.397 264.928 131.304 267.383 135.166C270.095 139.504 272.571 144.92 274.176 148.688C278.193 158.227 281.201 168.244 283.078 178.426C284.458 186.045 285.586 196.985 279.166 204.369C275.588 208.464 270.374 210.551 265.785 212.396C251.892 218.009 237.502 223.786 222.818 228.51C220.689 229.2 218.457 229.864 216.192 230.39L216.26 230.472ZM247.972 133.585C228.968 138.582 210.593 145.869 193.334 155.235C186.807 158.796 180.408 162.912 177.768 169.37C176.027 173.622 175.896 178.718 177.465 184.637C178.341 187.989 179.654 191.337 180.924 194.5C181.598 196.146 182.237 197.848 182.865 199.505C183.558 201.438 184.204 203.382 184.804 205.337C186.008 209.052 187.254 212.951 188.955 216.501C191.034 220.841 194.794 226.543 200.91 228.971C207.848 231.792 215.733 229.669 222.571 227.447C237.209 222.733 251.553 216.967 265.446 211.354C269.942 209.531 275.017 207.476 278.362 203.631C283.02 198.311 284.154 190.401 282.026 178.719C280.17 168.629 277.184 158.705 273.177 149.212C271.572 145.444 269.154 140.064 266.474 135.864C264.311 132.421 260.219 130.741 256.337 131.643L248.018 133.574L247.972 133.585Z" fill="#474747"/>
<path d="M188.07 186.898C213.438 175.747 239.402 166.113 265.951 157.951C240.583 169.102 214.573 178.746 188.07 186.898Z" fill="#474747"/>
<path d="M218.412 84.096L180.199 97.4019C177.409 98.3907 174.385 96.9013 173.396 94.1111C172.407 91.3209 173.896 88.2963 176.687 87.3074L214.899 74.0016C217.689 73.0127 220.714 74.5021 221.703 77.2923C222.692 80.0825 221.202 83.1072 218.412 84.096Z" fill="#474747"/>
</svg>
