<svg width="20" height="16" viewBox="0 0 20 16" fill="none" xmlns="http://www.w3.org/2000/svg">
<path d="M13 12H16C16.2833 12 16.521 11.904 16.713 11.712C16.905 11.52 17.0007 11.2827 17 11V5C17 4.71667 16.904 4.479 16.712 4.287C16.52 4.095 16.2827 3.99933 16 4H13C12.7167 4 12.479 4.096 12.287 4.288C12.095 4.48 11.9993 4.71733 12 5V11C12 11.2833 12.096 11.521 12.288 11.713C12.48 11.905 12.7173 12.0007 13 12ZM14 10V6H15V10H14ZM7 12H10C10.2833 12 10.521 11.904 10.713 11.712C10.905 11.52 11.0007 11.2827 11 11V5C11 4.71667 10.904 4.479 10.712 4.287C10.52 4.095 10.2827 3.99933 10 4H7C6.71667 4 6.479 4.096 6.287 4.288C6.095 4.48 5.99933 4.71733 6 5V11C6 11.2833 6.096 11.521 6.288 11.713C6.48 11.905 6.71733 12.0007 7 12ZM8 10V6H9V10H8ZM3 12H5V4H3V12ZM0 16V0H20V16H0ZM2 14H18V2H2V14Z" fill="#141414"/>
</svg>
