<svg width="14" height="10" viewBox="0 0 14 10" fill="none" xmlns="http://www.w3.org/2000/svg">
<path d="M13.6351 5.77713C13.6598 5.75672 13.6838 5.73495 13.7069 5.7118C13.8933 5.52499 13.9908 5.28277 13.9992 5.03804C13.9997 5.02429 14 5.01043 14 4.99654C14 4.95068 13.9969 4.90554 13.991 4.86131C13.979 4.77214 13.9552 4.6867 13.9214 4.60658C13.8708 4.48678 13.7977 4.37888 13.7072 4.28826C13.6837 4.26472 13.6589 4.24229 13.6332 4.22117L9.71357 0.293434C9.32306 -0.0978114 8.68989 -0.0978114 8.29936 0.293434C7.90884 0.684679 7.90884 1.31902 8.29936 1.71026L10.5788 3.99469H1C0.447708 3.99469 0 4.44324 0 4.99654C0 5.54985 0.447708 5.99839 1 5.99839H10.5857L8.29926 8.28974C7.90874 8.68099 7.90874 9.31532 8.29926 9.70657C8.68978 10.0978 9.32296 10.0978 9.71348 9.70657L13.6351 5.77713Z" fill="#EF4123"/>
</svg>
