<svg width="20" height="14" viewBox="0 0 20 14" fill="none" xmlns="http://www.w3.org/2000/svg">
<path d="M7 8.75098C4.66 8.75098 0 9.92098 0 12.251V14.001H14V12.251C14 9.92098 9.34 8.75098 7 8.75098ZM2.34 12.001C3.18 11.421 5.21 10.751 7 10.751C8.79 10.751 10.82 11.421 11.66 12.001H2.34ZM7 7.00098C8.93 7.00098 10.5 5.43098 10.5 3.50098C10.5 1.57098 8.93 0.000976562 7 0.000976562C5.07 0.000976562 3.5 1.57098 3.5 3.50098C3.5 5.43098 5.07 7.00098 7 7.00098ZM7 2.00098C7.83 2.00098 8.5 2.67098 8.5 3.50098C8.5 4.33098 7.83 5.00098 7 5.00098C6.17 5.00098 5.5 4.33098 5.5 3.50098C5.5 2.67098 6.17 2.00098 7 2.00098ZM14.04 8.81098C15.2 9.65098 16 10.771 16 12.251V14.001H20V12.251C20 10.231 16.5 9.08098 14.04 8.81098ZM13 7.00098C14.93 7.00098 16.5 5.43098 16.5 3.50098C16.5 1.57098 14.93 0.000976562 13 0.000976562C12.46 0.000976562 11.96 0.130976 11.5 0.350976C12.13 1.24098 12.5 2.33098 12.5 3.50098C12.5 4.67098 12.13 5.76098 11.5 6.65098C11.96 6.87098 12.46 7.00098 13 7.00098Z" fill="#141414"/>
</svg>
