<svg xmlns="http://www.w3.org/2000/svg" id="prefix__Icons_Profile" width="24" height="24" data-name="Icons / Profile" viewBox="0 0 24 24">
    <path id="prefix__Rectangle_29" d="M0 0H24V24H0z" data-name="Rectangle 29" style="fill:none"/>
    <g id="prefix__Group_38" data-name="Group 38" transform="translate(140 100)">
        <g id="prefix__Group_37" data-name="Group 37">
            <path id="prefix__Path_42" d="M-121.636-85.364a8.962 8.962 0 0 0-3.42-2.145 5.2 5.2 0 0 0 2.259-4.347A5.219 5.219 0 0 0-128.068-97a5.21 5.21 0 0 0-5.135 5.2 5.2 5.2 0 0 0 2.259 4.288 8.962 8.962 0 0 0-3.42 2.145 8.927 8.927 0 0 0-2.6 5.6.7.7 0 0 0 .7.764h.005a.7.7 0 0 0 .7-.648A7.6 7.6 0 0 1-128-86.594a7.6 7.6 0 0 1 7.566 6.946.7.7 0 0 0 .7.648.7.7 0 0 0 .7-.764 8.927 8.927 0 0 0-2.602-5.6zM-128-88a3.8 3.8 0 0 1-3.8-3.8 3.8 3.8 0 0 1 3.8-3.8 3.8 3.8 0 0 1 3.8 3.8A3.8 3.8 0 0 1-128-88z" data-name="Path 42"/>
        </g>
    </g>
</svg>
