<svg width="48" height="49" viewBox="0 0 48 49" fill="none" xmlns="http://www.w3.org/2000/svg">
<path d="M0 8.33307C0 3.91479 3.58172 0.333069 8 0.333069H40C44.4183 0.333069 48 3.91479 48 8.33307V40.3331C48 44.7513 44.4183 48.3331 40 48.3331H8C3.58172 48.3331 0 44.7513 0 40.3331V8.33307Z" fill="#F5F5F5"/>
<path d="M18.54 17.3331C18.6 18.2231 18.75 19.0931 18.99 19.9231L17.79 21.1231C17.38 19.9231 17.12 18.6531 17.03 17.3331H18.54ZM28.4 29.3531C29.25 29.5931 30.12 29.7431 31 29.8031V31.2931C29.68 31.2031 28.41 30.9431 27.2 30.5431L28.4 29.3531ZM19.5 15.3331H16C15.45 15.3331 15 15.7831 15 16.3331C15 25.7231 22.61 33.3331 32 33.3331C32.55 33.3331 33 32.8831 33 32.3331V28.8431C33 28.2931 32.55 27.8431 32 27.8431C30.76 27.8431 29.55 27.6431 28.43 27.2731C28.3307 27.2371 28.2256 27.2201 28.12 27.2231C27.86 27.2231 27.61 27.3231 27.41 27.5131L25.21 29.7131C22.3754 28.2635 20.0696 25.9576 18.62 23.1231L20.82 20.9231C21.1 20.6431 21.18 20.2531 21.07 19.9031C20.6907 18.7511 20.4982 17.5459 20.5 16.3331C20.5 15.7831 20.05 15.3331 19.5 15.3331Z" fill="#141414"/>
</svg>
