<svg width="16" height="16" viewBox="0 0 16 16" fill="none" xmlns="http://www.w3.org/2000/svg">
<path d="M14.0797 10.8202C13.85 9.97859 13.2995 9.26054 12.5464 8.82022L11.1397 8.00022L10.8197 4.35355C10.8109 4.24704 10.7767 4.1442 10.7198 4.0537C10.663 3.9632 10.5852 3.8877 10.493 3.83355L8.49304 2.68689C8.39169 2.62838 8.27673 2.59757 8.15971 2.59757C8.04268 2.59757 7.92772 2.62838 7.82637 2.68689C7.72504 2.74222 7.63982 2.82292 7.57906 2.92109C7.51829 3.01925 7.48405 3.13152 7.47971 3.24689L7.3797 5.84689L6.21304 5.18022L4.30637 2.61355C4.22884 2.51068 4.12317 2.43248 4.00213 2.3884C3.88109 2.34431 3.74987 2.33624 3.62434 2.36516C3.49882 2.39407 3.38435 2.45873 3.29479 2.55132C3.20524 2.64391 3.14442 2.76047 3.11971 2.88689L2.53971 5.96022C2.4387 6.37685 2.47424 6.81491 2.64108 7.20981C2.80792 7.60471 3.09724 7.93555 3.46637 8.15355L12.8397 13.5602C12.9904 13.6488 13.1698 13.6748 13.3394 13.6324C13.509 13.59 13.6551 13.4827 13.7464 13.3336C13.9663 12.9578 14.109 12.542 14.1663 12.1105C14.2235 11.6789 14.1941 11.2403 14.0797 10.8202ZM12.8264 12.0002L4.13304 7.00022C4.00837 6.92412 3.91215 6.80919 3.85916 6.67309C3.80616 6.53699 3.79933 6.38725 3.83971 6.24689L4.14637 4.62022L5.25304 6.08689C5.30678 6.15986 5.37483 6.2211 5.45304 6.26689L7.68637 7.56022C7.78597 7.61782 7.89877 7.64866 8.01382 7.64975C8.12886 7.65084 8.24223 7.62214 8.3429 7.56644C8.44357 7.51073 8.52811 7.42993 8.58829 7.33188C8.64848 7.23382 8.68227 7.12187 8.68637 7.00689L8.79304 4.40689L9.5197 4.82689L9.83971 8.47355C9.8492 8.58069 9.88447 8.68394 9.94252 8.77449C10.0006 8.86504 10.0797 8.9402 10.173 8.99355L11.8797 10.0002C12.1017 10.1283 12.2962 10.2991 12.4518 10.5028C12.6074 10.7065 12.7211 10.939 12.7864 11.1869C12.8607 11.4515 12.8744 11.7296 12.8264 12.0002Z" fill="#666464"/>
</svg>
