<svg width="16" height="16" viewBox="0 0 16 16" fill="none" xmlns="http://www.w3.org/2000/svg">
<path d="M14.0802 10.8202C13.8505 9.97859 13.3 9.26054 12.5469 8.82022L11.1402 8.00022L10.8202 4.35355C10.8114 4.24704 10.7772 4.1442 10.7203 4.0537C10.6634 3.9632 10.5857 3.8877 10.4935 3.83355L8.49353 2.68689C8.39218 2.62838 8.27722 2.59757 8.16019 2.59757C8.04317 2.59757 7.92821 2.62838 7.82686 2.68689C7.72553 2.74222 7.64031 2.82292 7.57954 2.92109C7.51877 3.01925 7.48454 3.13152 7.48019 3.24689L7.38019 5.84689L6.21353 5.18022L4.30686 2.61355C4.22933 2.51068 4.12365 2.43248 4.00262 2.3884C3.88158 2.34431 3.75036 2.33624 3.62483 2.36516C3.4993 2.39407 3.38484 2.45873 3.29528 2.55132C3.20573 2.64391 3.14491 2.76047 3.12019 2.88689L2.54019 5.96022C2.43919 6.37685 2.47472 6.81491 2.64157 7.20981C2.80841 7.60471 3.09773 7.93555 3.46686 8.15355L12.8402 13.5602C12.9909 13.6488 13.1703 13.6748 13.3399 13.6324C13.5095 13.59 13.6556 13.4827 13.7469 13.3336C13.9668 12.9578 14.1095 12.542 14.1667 12.1105C14.224 11.6789 14.1946 11.2403 14.0802 10.8202ZM12.8269 12.0002L4.13353 7.00022C4.00886 6.92412 3.91264 6.80919 3.85964 6.67309C3.80665 6.53699 3.79982 6.38725 3.84019 6.24689L4.14686 4.62022L5.25353 6.08689C5.30727 6.15986 5.37532 6.2211 5.45353 6.26689L7.68686 7.56022C7.78645 7.61782 7.89926 7.64866 8.01431 7.64975C8.12935 7.65084 8.24272 7.62214 8.34339 7.56644C8.44406 7.51073 8.52859 7.42993 8.58878 7.33188C8.64897 7.23382 8.68276 7.12187 8.68686 7.00689L8.79353 4.40689L9.52019 4.82689L9.84019 8.47355C9.84969 8.58069 9.88496 8.68394 9.94301 8.77449C10.001 8.86504 10.0801 8.9402 10.1735 8.99355L11.8802 10.0002C12.1022 10.1283 12.2967 10.2991 12.4523 10.5028C12.6079 10.7065 12.7216 10.939 12.7869 11.1869C12.8612 11.4515 12.8749 11.7296 12.8269 12.0002Z" fill="#262526"/>
</svg>
