<svg
      width="24"
      height="24"
      viewBox="0 0 24 24"
      fill="none"
      xmlns="http://www.w3.org/2000/svg"
    >
      <path
        d="M20 6.46666C20.0006 5.97898 19.8565 5.50207 19.5858 5.09637C19.3151 4.69066 18.9301 4.37441 18.4794 4.1877C18.0288 4.00098 17.5329 3.95219 17.0545 4.04752C16.5761 4.14284 16.1367 4.37799 15.7921 4.72317L13.5442 6.97051L8.35245 5.24302C8.21422 5.19958 8.06679 5.1945 7.9259 5.2283C7.785 5.26211 7.65594 5.33354 7.55249 5.43496L5.64857 7.32241C5.55835 7.41365 5.49142 7.52524 5.45341 7.64777C5.4154 7.7703 5.40743 7.90018 5.43018 8.02644C5.45293 8.15269 5.50572 8.27163 5.58411 8.3732C5.66249 8.47477 5.76417 8.556 5.88056 8.61003L10.0244 10.4895L7.94447 12.5689L6.57653 11.8811C6.42883 11.8012 6.25972 11.7697 6.09317 11.7913C5.92662 11.8128 5.77107 11.8862 5.64857 12.001L4.23262 13.4486C4.08363 13.5985 4 13.8012 4 14.0125C4 14.2237 4.08363 14.4264 4.23262 14.5763L9.42441 19.7668C9.57429 19.9157 9.77704 19.9993 9.98838 19.9993C10.1997 19.9993 10.4025 19.9157 10.5524 19.7668L12.0003 18.3512C12.1204 18.2324 12.1997 18.0787 12.227 17.912C12.2543 17.7453 12.2282 17.5743 12.1523 17.4235L11.4643 16.0559L13.5442 13.9765L15.4242 18.1192C15.4782 18.2356 15.5594 18.3373 15.661 18.4156C15.7626 18.494 15.8816 18.5468 16.0079 18.5695C16.1342 18.5923 16.2641 18.5843 16.3867 18.5463C16.5092 18.5083 16.6208 18.4414 16.7121 18.3512L18.6 16.4637C18.7015 16.3603 18.7729 16.2313 18.8067 16.0904C18.8405 15.9496 18.8355 15.8022 18.792 15.664L17.0641 10.4735L19.28 8.21015C19.5098 7.98187 19.6918 7.71013 19.8154 7.41079C19.939 7.11145 20.0017 6.7905 20 6.46666ZM18.144 7.08248L15.5521 9.67372C15.4507 9.77715 15.3793 9.90618 15.3454 10.047C15.3116 10.1879 15.3167 10.3353 15.3602 10.4735L17.0881 15.656L16.3681 16.3758L14.4882 12.241C14.4348 12.1235 14.3539 12.0208 14.2522 11.9414C14.1505 11.862 14.0311 11.8084 13.9042 11.7851C13.7763 11.7618 13.6446 11.7699 13.5205 11.809C13.3964 11.848 13.2838 11.9167 13.1922 12.009L9.89639 15.3361C9.77806 15.4542 9.69976 15.6065 9.6725 15.7715C9.64523 15.9365 9.67038 16.1058 9.74439 16.2558L10.4004 17.5994L9.95238 18.0473L5.92855 14.0164L6.40053 13.6006L7.76848 14.2884C7.91846 14.3624 8.08787 14.3875 8.25289 14.3602C8.41791 14.333 8.57023 14.2547 8.68844 14.1364L12.0003 10.8094C12.0922 10.7182 12.1606 10.6061 12.1996 10.4827C12.2387 10.3592 12.2471 10.2282 12.2243 10.1007C12.2015 9.9733 12.1481 9.85331 12.0686 9.75108C11.9892 9.64884 11.8862 9.5674 11.7683 9.51377L7.60048 7.63432L8.32045 6.91453L13.5042 8.64202C13.6425 8.68546 13.7899 8.69054 13.9308 8.65674C14.0717 8.62293 14.2007 8.5515 14.3042 8.45008L16.8961 5.85884C16.9758 5.77734 17.071 5.71259 17.1761 5.66839C17.2812 5.62418 17.3941 5.60141 17.5081 5.60141C17.6221 5.60141 17.7349 5.62418 17.84 5.66839C17.9451 5.71259 18.0403 5.77734 18.12 5.85884C18.2035 5.93613 18.2695 6.03033 18.3136 6.13514C18.3578 6.23995 18.379 6.35297 18.376 6.46666C18.3804 6.57958 18.3621 6.69224 18.3222 6.79799C18.2824 6.90375 18.2218 7.00047 18.144 7.08248Z"
        fill="#262526"
      />
    </svg>