<svg width="16" height="16" viewBox="0 0 16 16" fill="none" xmlns="http://www.w3.org/2000/svg">
<path d="M15.3337 6.21328C15.3755 6.04199 15.3517 5.86127 15.2671 5.70662C15.051 5.33171 14.763 5.00316 14.4197 4.73981C14.0764 4.47647 13.6844 4.28351 13.2663 4.17202C12.8482 4.06053 12.4122 4.03269 11.9833 4.09011C11.5544 4.14753 11.1411 4.28907 10.7671 4.50662L9.33373 5.33328L6.0004 3.76662C5.90563 3.71752 5.80046 3.69189 5.69373 3.69189C5.587 3.69189 5.48183 3.71752 5.38706 3.76662L3.38707 4.91995C3.28822 4.97696 3.20567 5.05839 3.14731 5.15644C3.08894 5.25449 3.05672 5.36588 3.05373 5.47995C3.0505 5.59486 3.07704 5.70866 3.13078 5.81028C3.18451 5.91191 3.26361 5.99792 3.3604 6.05995L5.5604 7.44662L4.4004 8.11328L1.21373 8.49995C1.08563 8.51579 0.964881 8.56849 0.866148 8.65163C0.767414 8.73478 0.69494 8.8448 0.657526 8.96834C0.620112 9.09187 0.619366 9.22362 0.655378 9.34757C0.691391 9.47152 0.762613 9.58236 0.860399 9.66662L3.2204 11.7066C3.5311 12.0031 3.929 12.1918 4.35523 12.2446C4.78146 12.2974 5.21337 12.2117 5.58706 11.9999L15.0004 6.61995C15.0806 6.5783 15.1515 6.52078 15.2089 6.45087C15.2662 6.38096 15.3086 6.30012 15.3337 6.21328ZM4.9804 10.8799C4.85234 10.9504 4.70467 10.9768 4.56012 10.9552C4.41557 10.9335 4.28215 10.8649 4.1804 10.7599L2.91373 9.67328L4.73373 9.45328C4.82317 9.44182 4.90935 9.41234 4.98706 9.36662L7.22706 8.07995C7.32686 8.02235 7.41002 7.93988 7.46844 7.84056C7.52686 7.74125 7.55854 7.62849 7.5604 7.51328C7.56177 7.39886 7.53366 7.28601 7.47878 7.1856C7.42391 7.08519 7.34411 7.00059 7.24706 6.93995L5.04707 5.54662L5.7804 5.12662L9.11373 6.67328C9.2085 6.72238 9.31367 6.748 9.4204 6.748C9.52713 6.748 9.6323 6.72238 9.72706 6.67328L11.4337 5.68661C11.7835 5.49062 12.184 5.40425 12.5835 5.43873C12.9829 5.4732 13.3627 5.62692 13.6737 5.87995L4.9804 10.8799Z" fill="#666464"/>
</svg>
