<svg xmlns="http://www.w3.org/2000/svg" id="prefix__Icons_24_x_24_policy" width="24" height="24" data-name="Icons 24 x 24_policy" viewBox="0 0 24 24">
    <defs>
        <style>
            .prefix__cls-2{fill:#606060}
        </style>
    </defs>
    <path id="prefix__Rectangle_72" fill="none" d="M0 0H24V24H0z" data-name="Rectangle 72"/>
    <path id="prefix__Path_181" d="M18 7.24l-3-3a.66.66 0 0 0-.56-.24H7.73a1.87 1.87 0 0 0-1.87 1.87v12.26A1.87 1.87 0 0 0 7.73 20h8.54a1.87 1.87 0 0 0 1.87-1.87V7.7a.66.66 0 0 0-.14-.46zm-2.86-.19v-.82l.82.82zM7.16 5.87a.57.57 0 0 1 .57-.56h6.06V7.7a.65.65 0 0 0 .65.65h2.4v9.78a.57.57 0 0 1-.57.56H7.73a.57.57 0 0 1-.57-.56z" class="prefix__cls-2" data-name="Path 181"/>
    <path id="prefix__Path_182" d="M11.81 18.14a.62.62 0 0 0 .38 0 4.92 4.92 0 0 0 3.51-4.72v-2.61a.65.65 0 0 0-.65-.65 1.3 1.3 0 0 1-1.18-.73l-.07-.13a.64.64 0 0 0-.58-.36h-2.44a.64.64 0 0 0-.58.36l-.07.13a1.31 1.31 0 0 1-1.13.73.65.65 0 0 0-.65.65v2.61a4.92 4.92 0 0 0 3.51 4.72zm1-7.9a2.59 2.59 0 0 0 1.57 1.14v2A3.62 3.62 0 0 1 12 16.83a3.62 3.62 0 0 1-2.4-3.41v-2a2.59 2.59 0 0 0 1.57-1.14z" class="prefix__cls-2" data-name="Path 182"/>
    <path id="prefix__Path_183" d="M10.24 13.09a.67.67 0 0 0 0 .93l.87.86a.64.64 0 0 0 .46.19.66.66 0 0 0 .46-.19l1.73-1.73a.65.65 0 0 0 0-.92.64.64 0 0 0-.46-.19.68.68 0 0 0-.46.19l-1.26 1.26-.4-.4a.66.66 0 0 0-.93 0z" class="prefix__cls-2" data-name="Path 183"/>
</svg>
