<svg width="24" height="24" viewBox="0 0 24 24" fill="none" xmlns="http://www.w3.org/2000/svg">
<path fill-rule="evenodd" clip-rule="evenodd" d="M11.9999 2.99591C9.78854 2.99591 7.99589 4.78856 7.99589 6.99991C7.99589 9.21125 9.78854 11.0039 11.9999 11.0039C14.2112 11.0039 16.0039 9.21125 16.0039 6.99991C16.0039 4.78856 14.2112 2.99591 11.9999 2.99591ZM6.00389 6.99991C6.00389 3.68841 8.68839 1.00391 11.9999 1.00391C15.3114 1.00391 17.9959 3.68841 17.9959 6.99991C17.9959 10.3114 15.3114 12.9959 11.9999 12.9959C8.68839 12.9959 6.00389 10.3114 6.00389 6.99991ZM12 17.496C9.82708 17.496 7.75715 17.938 6.23902 18.3784C5.10562 18.7073 4.28358 19.7281 4.08272 21.0194L3.98415 21.653C3.8996 22.1966 3.39043 22.5687 2.84689 22.4841C2.30336 22.3996 1.93127 21.8904 2.01582 21.3469L2.11439 20.7132C2.41412 18.7864 3.68954 17.044 5.68392 16.4654C7.30831 15.994 9.57515 15.504 12 15.504C14.4248 15.504 16.6917 15.994 18.3161 16.4654C20.3104 17.044 21.5858 18.7864 21.8856 20.7132L21.9841 21.3469C22.0687 21.8904 21.6966 22.3996 21.1531 22.4841C20.6095 22.5687 20.1004 22.1966 20.0158 21.653L19.9173 21.0194C19.7164 19.7281 18.8944 18.7073 17.761 18.3784C16.2428 17.938 14.1729 17.496 12 17.496Z" fill="#474747"/>
</svg>
