<svg width="16" height="22" viewBox="0 0 16 22" fill="none" xmlns="http://www.w3.org/2000/svg">
<path d="M8 17C6.4087 17 4.88258 16.3679 3.75736 15.2426C2.63214 14.1174 2 12.5913 2 11C2 10 2.25 9.03 2.7 8.2L1.24 6.74C0.429753 8.01309 -0.000419615 9.49094 3.07144e-07 11C3.07144e-07 13.1217 0.842855 15.1566 2.34315 16.6569C3.84344 18.1571 5.87827 19 8 19V22L12 18L8 14M8 3V0L4 4L8 8V5C9.5913 5 11.1174 5.63214 12.2426 6.75736C13.3679 7.88258 14 9.4087 14 11C14 12 13.75 12.97 13.3 13.8L14.76 15.26C15.5702 13.9869 16.0004 12.5091 16 11C16 8.87827 15.1571 6.84344 13.6569 5.34315C12.1566 3.84285 10.1217 3 8 3Z" fill="#008BA3"/>
</svg>
