<svg width="16" height="16" viewBox="0 0 16 16" fill="none" xmlns="http://www.w3.org/2000/svg">
<path fill-rule="evenodd" clip-rule="evenodd" d="M8 1C11.8661 1 15 4.13386 15 8C15 11.8661 11.8661 15 8 15C4.13419 15 1 11.866 1 8C1 7.80762 1.00795 7.61497 1.02368 7.42356C1.04629 7.14835 1.28772 6.94357 1.56294 6.96618C1.83815 6.98879 2.04293 7.23022 2.02032 7.50544C2.00683 7.66971 2 7.83504 2 8C2 11.3137 4.68646 14 8 14C11.3139 14 14 11.3139 14 8C14 4.68614 11.3139 2 8 2C6.38881 2 4.88482 2.63969 3.7783 3.73647L5.4085 3.73885C5.66492 3.73918 5.876 3.93248 5.90456 4.18119L5.90785 4.2395C5.90752 4.49592 5.71422 4.707 5.46551 4.73556L5.4072 4.73885L2.7212 4.73535C2.46478 4.73502 2.2537 4.54172 2.22514 4.29301L2.22382 4.28376C2.21771 4.24221 2.21679 4.19988 2.22125 4.15783L2.22535 1.5487C2.22571 1.27256 2.44986 1.04899 2.726 1.04935C2.98242 1.04968 3.1935 1.24298 3.22206 1.49169L3.22535 1.55L3.22312 2.88304C4.49836 1.69131 6.1918 1 8 1ZM8.0002 3.92065C8.3202 3.92065 8.5797 4.18015 8.5797 4.50015V5.30865C8.9367 5.37365 9.2647 5.48565 9.5532 5.65415C9.8237 5.81315 9.8802 6.18315 9.6932 6.43515C9.5272 6.65765 9.2242 6.70965 8.9832 6.57215C8.6172 6.36465 8.2007 6.26715 7.8017 6.26715C7.3142 6.26715 7.0387 6.47815 7.0387 6.80215C7.0387 7.65465 10.1472 7.07865 10.1472 9.10015C10.1472 9.94115 9.6262 10.6021 8.5797 10.7831V11.5001C8.5797 11.8196 8.3202 12.0796 8.0002 12.0796C7.6802 12.0796 7.4207 11.8196 7.4207 11.5001V10.8006C6.8882 10.7301 6.4492 10.5581 6.0917 10.3186C5.8432 10.1521 5.7962 9.80365 5.9682 9.55915C6.1387 9.31665 6.4702 9.25365 6.7182 9.41815C7.0682 9.65065 7.5117 9.81465 8.0292 9.81465C8.6702 9.81465 8.9702 9.53015 8.9702 9.21365C8.9702 8.27215 5.8532 8.92915 5.8532 6.89215C5.8532 6.11215 6.4382 5.45065 7.4207 5.28565V4.50015C7.4207 4.18015 7.6802 3.92065 8.0002 3.92065Z" fill="#3D3D3D"/>
</svg>
