<svg width="32" height="32" viewBox="0 0 32 32" fill="none" xmlns="http://www.w3.org/2000/svg">
<rect width="32" height="32" rx="16" fill="white"/>
<path d="M7.23732 13.5193C7.7612 11.6923 8.85002 10.078 10.3477 8.9079C11.8454 7.73777 13.6751 7.07181 15.5746 7.00548C17.474 6.93915 19.3457 7.47585 20.9214 8.53866C22.4971 9.60147 23.6959 11.1358 24.3459 12.9218" stroke="#262526" stroke-width="2" stroke-linecap="round" stroke-linejoin="round"/>
<path d="M24.1808 19.4987C23.5037 21.1033 22.3757 22.477 20.9334 23.4532C19.4912 24.4294 17.7967 24.9662 16.0554 24.9985C14.3142 25.0307 12.6009 24.5571 11.1235 23.635C9.64608 22.7129 8.46792 21.382 7.7319 19.8036" stroke="#262526" stroke-width="2" stroke-linecap="round" stroke-linejoin="round"/>
<path d="M9.71289 18.9349L7.14594 19.3155L5.91029 21.5975" stroke="#262526" stroke-width="2" stroke-linecap="round" stroke-linejoin="round"/>
<path d="M22.1348 13.7299L24.7017 13.3493L25.9374 11.0673" stroke="#262526" stroke-width="2" stroke-linecap="round" stroke-linejoin="round"/>
</svg>
