<svg width="12" height="12" viewBox="0 0 12 12" fill="none" xmlns="http://www.w3.org/2000/svg">
<path d="M7.66667 0C6.5174 0 5.41519 0.456546 4.60254 1.2692C3.78988 2.08186 3.33333 3.18406 3.33333 4.33333C3.33333 5.40667 3.72667 6.39333 4.37333 7.15333L4.19333 7.33333H3.66667L0.333333 10.6667L1.33333 11.6667L4.66667 8.33333V7.80667L4.84667 7.62667C5.63297 8.29785 6.63286 8.6666 7.66667 8.66667C8.81594 8.66667 9.91814 8.21012 10.7308 7.39746C11.5435 6.58481 12 5.4826 12 4.33333C12 3.18406 11.5435 2.08186 10.7308 1.2692C9.91814 0.456546 8.81594 0 7.66667 0ZM7.66667 1.33333C9.33333 1.33333 10.6667 2.66667 10.6667 4.33333C10.6667 6 9.33333 7.33333 7.66667 7.33333C6 7.33333 4.66667 6 4.66667 4.33333C4.66667 2.66667 6 1.33333 7.66667 1.33333Z" fill="#141414"/>
</svg>
