<svg xmlns="http://www.w3.org/2000/svg" id="prefix__Icons_Search" width="24" height="24" data-name="Icons / Search" viewBox="0 0 24 24">
    <path id="prefix__Rectangle_30" d="M0 0H24V24H0z" data-name="Rectangle 30" style="fill:none"/>
    <path id="prefix__Path_43" d="M-154.728-79a.721.721 0 0 1-.515-.213l-3.561-3.561a8.375 8.375 0 0 1-5.169 1.828A8.036 8.036 0 0 1-172-88.973 8.036 8.036 0 0 1-163.973-97a8.036 8.036 0 0 1 8.027 8.027 8.027 8.027 0 0 1-1.832 5.1l3.565 3.629a.729.729 0 0 1 0 1.03.721.721 0 0 1-.515.214zm-9.245-16.544a6.578 6.578 0 0 0-6.571 6.571 6.577 6.577 0 0 0 6.571 6.57 6.577 6.577 0 0 0 6.571-6.57 6.578 6.578 0 0 0-6.571-6.571z" data-name="Path 43" transform="translate(175 100)" />
</svg>
