<svg xmlns="http://www.w3.org/2000/svg" id="prefix__Icons_24_x_24_srtt" width="24" height="24" data-name="Icons 24 x 24_srtt" viewBox="0 0 24 24">
    <defs>
        <style>
            .prefix__cls-2{fill:#606060}
        </style>
    </defs>
    <path id="prefix__Rectangle_74" fill="none" d="M0 0H24V24H0z" data-name="Rectangle 74"/>
    <path id="prefix__Path_187" d="M18.67 10h-1a4.35 4.35 0 0 0-.25-.59l.72-.71a1.34 1.34 0 0 0 0-1.89l-.95-.94a1.33 1.33 0 0 0-.94-.38 1.37 1.37 0 0 0-.94.38l-.71.71c-.2-.09-.39-.17-.59-.24v-1A1.34 1.34 0 0 0 12.67 4h-1.34A1.34 1.34 0 0 0 10 5.33v1a6.07 6.07 0 0 0-.59.24l-.71-.7a1.34 1.34 0 0 0-1.89 0l-.94.94a1.34 1.34 0 0 0 0 1.89l.71.71a6.07 6.07 0 0 0-.24.59h-1A1.34 1.34 0 0 0 4 11.33v1.34A1.34 1.34 0 0 0 5.33 14h1a6.07 6.07 0 0 0 .24.59l-.71.71a1.328 1.328 0 0 0 0 1.88l1 .95a1.31 1.31 0 0 0 .93.39 1.34 1.34 0 0 0 .95-.39l.71-.72a5 5 0 0 0 .59.25v1A1.34 1.34 0 0 0 11.33 20h1.34A1.34 1.34 0 0 0 14 18.67v-1a6.14 6.14 0 0 0 .59-.25l.71.72a1.35 1.35 0 0 0 .94.38 1.33 1.33 0 0 0 .94-.38l.95-.95a1.328 1.328 0 0 0 0-1.88l-.72-.71a4.35 4.35 0 0 0 .25-.59h1A1.34 1.34 0 0 0 20 12.67v-1.34A1.34 1.34 0 0 0 18.67 10zm-2.14 3.17a4.75 4.75 0 0 1-.5 1.21.65.65 0 0 0 .1.8l1.06 1.07-1 .94-1.06-1.06a.68.68 0 0 0-.81-.1 4.54 4.54 0 0 1-1.2.5.65.65 0 0 0-.5.64v1.5h-1.29v-1.5a.66.66 0 0 0-.5-.64 4.69 4.69 0 0 1-1.2-.5.67.67 0 0 0-.34-.09.64.64 0 0 0-.47.19l-1.07 1.06-.94-1 1.06-1.06a.66.66 0 0 0 .1-.81 4.84 4.84 0 0 1-.5-1.2.66.66 0 0 0-.64-.5h-1.5v-1.29h1.5a.66.66 0 0 0 .64-.5A4.75 4.75 0 0 1 8 9.62a.65.65 0 0 0-.1-.8L6.81 7.75l1-.94 1.01 1.06a.67.67 0 0 0 .47.19.63.63 0 0 0 .33-.06 5.07 5.07 0 0 1 1.21-.5.66.66 0 0 0 .5-.64V5.32h1.34v1.5a.65.65 0 0 0 .5.64 4.69 4.69 0 0 1 1.2.5.68.68 0 0 0 .81-.1l1.07-1.06.94 1-1.06 1.02a.65.65 0 0 0-.1.8 4.91 4.91 0 0 1 .5 1.21.65.65 0 0 0 .64.5h1.5v1.34h-1.5a.66.66 0 0 0-.64.5z" class="prefix__cls-2" data-name="Path 187"/>
    <path id="prefix__Path_188" d="M12 8.67A3.33 3.33 0 1 0 15.33 12 3.33 3.33 0 0 0 12 8.67zM12 14a2 2 0 1 1 2-2 2 2 0 0 1-2 2z" class="prefix__cls-2" data-name="Path 188"/>
</svg>
