<svg width="16" height="16" viewBox="0 0 16 16" fill="none" xmlns="http://www.w3.org/2000/svg">
<path fill-rule="evenodd" clip-rule="evenodd" d="M9.32031 2.33337H4.66667C4.29968 2.33337 4 2.63305 4 3.00004V13C4 13.367 4.29968 13.6667 4.66667 13.6667H11.3333C11.7003 13.6667 12 13.367 12 13V5.01306C12 4.83325 11.9292 4.66381 11.8059 4.54048L9.79289 2.52746C9.66956 2.40413 9.50012 2.33337 9.32031 2.33337ZM4.66667 1.33337H9.32031C9.76302 1.33337 10.1875 1.50785 10.5 1.82035L12.513 3.83337C12.8255 4.14587 13 4.57035 13 5.01306V13C13 13.9193 12.2526 14.6667 11.3333 14.6667H4.66667C3.7474 14.6667 3 13.9193 3 13V3.00004C3 2.08077 3.7474 1.33337 4.66667 1.33337Z" fill="black"/>
<path d="M5.5 6.33337C5.03906 6.33337 4.66667 6.70577 4.66667 7.16671V7.66671C4.66667 7.8508 4.81591 8.00004 5 8.00004H6C6.18409 8.00004 6.33333 7.8508 6.33333 7.66671V6.66671C6.33333 6.48261 6.18409 6.33337 6 6.33337H5.5Z" fill="black"/>
<path d="M7.16667 6.66671V7.66671C7.16667 7.8508 7.31591 8.00004 7.5 8.00004H8.5C8.68409 8.00004 8.83333 7.8508 8.83333 7.66671V6.66671C8.83333 6.48261 8.68409 6.33337 8.5 6.33337H7.5C7.31591 6.33337 7.16667 6.48261 7.16667 6.66671Z" fill="black"/>
<path d="M11.3333 7.16671C11.3333 6.70577 10.9609 6.33337 10.5 6.33337H10C9.81591 6.33337 9.66667 6.48261 9.66667 6.66671V7.66671C9.66667 7.8508 9.81591 8.00004 10 8.00004H11C11.1841 8.00004 11.3333 7.8508 11.3333 7.66671V7.16671Z" fill="black"/>
<path d="M5 10.5H11C11.1841 10.5 11.3333 10.3508 11.3333 10.1667V9.16671C11.3333 8.98261 11.1841 8.83337 11 8.83337H5C4.81591 8.83337 4.66667 8.98261 4.66667 9.16671V10.1667C4.66667 10.3508 4.81591 10.5 5 10.5Z" fill="black"/>
<path d="M4.66667 12.1667C4.66667 12.6276 5.03906 13 5.5 13H6C6.18409 13 6.33333 12.8508 6.33333 12.6667V11.6667C6.33333 11.4826 6.18409 11.3334 6 11.3334H5C4.81591 11.3334 4.66667 11.4826 4.66667 11.6667V12.1667Z" fill="black"/>
<path d="M7.16667 11.6667V12.6667C7.16667 12.8508 7.31591 13 7.5 13H8.5C8.68409 13 8.83333 12.8508 8.83333 12.6667V11.6667C8.83333 11.4826 8.68409 11.3334 8.5 11.3334H7.5C7.31591 11.3334 7.16667 11.4826 7.16667 11.6667Z" fill="black"/>
<path d="M10.5 13C10.9609 13 11.3333 12.6276 11.3333 12.1667V11.6667C11.3333 11.4826 11.1841 11.3334 11 11.3334H10C9.81591 11.3334 9.66667 11.4826 9.66667 11.6667V12.6667C9.66667 12.8508 9.81591 13 10 13H10.5Z" fill="black"/>
</svg>
