<svg xmlns="http://www.w3.org/2000/svg" id="Icons_Sort_And_Filter" width="24" height="24" data-name="Icons / Sort And Filter" viewBox="0 0 24 24">
    <path id="Rectangle_14" fill="none" d="M0 0H24V24H0z" data-name="Rectangle 14"/>
    <g id="Symbols" transform="translate(35.004 33)">
        <g id="Group_14" data-name="Group 14">
            <path id="Combined-Shape" fill="#707070" fill-rule="evenodd" d="M-19.254-17.625a2.62 2.62 0 0 1 2.5 1.875h2A.75.75 0 0 1-14-15a.75.75 0 0 1-.75.75h-2a2.621 2.621 0 0 1-2.5 1.875 2.62 2.62 0 0 1-2.5-1.875h-9.5A.75.75 0 0 1-32-15a.75.75 0 0 1 .75-.75h9.5a2.621 2.621 0 0 1 2.496-1.875zm0 1.5A1.127 1.127 0 0 0-20.379-15a1.127 1.127 0 0 0 1.125 1.125A1.127 1.127 0 0 0-18.129-15a1.127 1.127 0 0 0-1.125-1.125zm-7.5-7.5a2.621 2.621 0 0 1 2.5 1.875h9.5A.75.75 0 0 1-14-21a.75.75 0 0 1-.75.75h-9.5a2.621 2.621 0 0 1-2.5 1.875 2.621 2.621 0 0 1-2.5-1.875h-2A.75.75 0 0 1-32-21a.75.75 0 0 1 .75-.75h2a2.621 2.621 0 0 1 2.496-1.875zm0 1.5A1.127 1.127 0 0 0-27.879-21a1.127 1.127 0 0 0 1.125 1.125A1.127 1.127 0 0 0-25.629-21a1.127 1.127 0 0 0-1.125-1.125zm7.5-7.5a2.621 2.621 0 0 1 2.5 1.875h2A.75.75 0 0 1-14-27a.75.75 0 0 1-.75.75h-2a2.621 2.621 0 0 1-2.5 1.875 2.621 2.621 0 0 1-2.5-1.875h-9.5A.75.75 0 0 1-32-27a.75.75 0 0 1 .75-.75h9.5a2.621 2.621 0 0 1 2.496-1.875zm0 1.5A1.127 1.127 0 0 0-20.379-27a1.127 1.127 0 0 0 1.125 1.125A1.127 1.127 0 0 0-18.129-27a1.127 1.127 0 0 0-1.125-1.125z"/>
        </g>
    </g>
</svg>
