<svg width="14" height="14" viewBox="0 0 14 14" fill="none" xmlns="http://www.w3.org/2000/svg">
<path d="M7.10845 4.88545L7.10844 4.88544L5.04722 2.8277V8.5C5.04722 8.80387 4.80033 9.05 4.49602 9.05C4.1917 9.05 3.94481 8.80387 3.94481 8.5L3.94481 2.83117L1.89094 4.88156L1.89093 4.88157C1.67568 5.0963 1.32674 5.0963 1.11149 4.88157C0.896171 4.66677 0.89617 4.31846 1.11149 4.10367L4.07108 1.14971C4.08219 1.13631 4.09397 1.12334 4.10636 1.11098L4.10637 1.11097C4.1562 1.06128 4.21555 1.02105 4.28148 0.993225C4.32559 0.974611 4.37263 0.961567 4.42169 0.954963L4.4217 0.954963C4.44602 0.951692 4.47083 0.95 4.49601 0.95L7.10845 4.88545ZM7.10845 4.88545C7.3237 5.10018 7.67264 5.10018 7.88789 4.88545C8.10321 4.67066 8.10321 4.32235 7.8879 4.10756C7.8879 4.10755 7.8879 4.10755 7.88789 4.10755L4.92351 1.1487M7.10845 4.88545L4.92351 1.1487M6.89155 9.11455L6.89156 9.11456L8.95278 11.1723V5.5C8.95278 5.19613 9.19967 4.95 9.50399 4.95C9.8083 4.95 10.0552 5.19613 10.0552 5.5V11.1688L12.1091 9.11844L12.1091 9.11843C12.3243 8.9037 12.6733 8.9037 12.8885 9.11843C13.1038 9.33323 13.1038 9.68153 12.8885 9.89633L9.92892 12.8503C9.91782 12.8637 9.90603 12.8767 9.89364 12.889L9.89363 12.889C9.8438 12.9387 9.78446 12.979 9.71852 13.0068C9.67441 13.0254 9.62737 13.0384 9.57831 13.045L9.57164 12.9955L9.5783 13.045C9.55398 13.0483 9.52917 13.05 9.50399 13.05L6.89155 9.11455ZM6.89155 9.11455C6.6763 8.89982 6.32736 8.89982 6.11211 9.11455C5.89679 9.32934 5.89679 9.67766 6.11211 9.89245L9.07649 12.8513C9.08727 12.8642 9.09872 12.8767 9.11084 12.8888C9.21357 12.9913 9.34685 13.0449 9.48134 13.0495L6.89155 9.11455ZM4.92351 1.1487C4.91273 1.13578 4.90128 1.12326 4.88916 1.11117C4.78643 1.00869 4.65315 0.955113 4.51866 0.950455C4.51871 0.950457 4.51877 0.950459 4.51883 0.950461L4.92351 1.1487Z" fill="#707070" stroke="#707070" stroke-width="0.1"/>
</svg>
