<svg width="24" height="24" viewBox="0 0 24 24" fill="none">
<path d="M20 11.2947C20 11.206 20 11.1174 20 11.0287L19.9276 10.5451L19.8551 10.2307C19.8551 10.0937 19.7907 9.95668 19.7505 9.81965C19.7103 9.68262 19.6861 9.60202 19.6459 9.49723C19.6234 9.43388 19.6046 9.36929 19.5895 9.30378C19.5895 9.30378 19.5895 9.30378 19.5895 9.26348C19.182 8.17775 18.5475 7.19177 17.7286 6.37159C16.9096 5.55141 15.9251 4.91596 14.841 4.50781C14.841 4.50781 14.841 4.50781 14.8008 4.50781L14.6157 4.45139L14.2777 4.3466C14.1569 4.3466 14.0282 4.28212 13.9074 4.24987L13.5372 4.16927L13.167 4.11285C13.0382 4.11285 12.9175 4.11285 12.7807 4.06448C12.6439 4.01612 12.499 4.06448 12.3622 4.06448L11.9517 4H11.6378C11.501 4 11.3561 4 11.2193 4C11.0825 4 10.9618 4 10.833 4.04836L10.4628 4.10479L10.0926 4.18539C9.97183 4.18539 9.84306 4.24181 9.72233 4.28212L9.38431 4.3869L9.19919 4.44332C9.19919 4.44332 9.19919 4.44332 9.15895 4.44332C8.07487 4.85148 7.09038 5.48693 6.27144 6.30711C5.45249 7.12729 4.818 8.11327 4.41046 9.19899C4.41046 9.19899 4.41046 9.19899 4.41046 9.2393C4.39541 9.30481 4.3766 9.3694 4.35412 9.43275C4.35412 9.53753 4.28169 9.64232 4.2495 9.75516C4.2173 9.86801 4.17706 10.0292 4.14487 10.1662L4.07243 10.4806L4 10.9642C4 11.0529 4 11.1416 4 11.2302C4 11.4801 4 11.738 4 11.996C4 12.2539 4 12.5118 4 12.7617C4 12.8504 4 12.939 4 13.0277L4.07243 13.5113L4.14487 13.8257C4.14487 13.9627 4.20926 14.0997 4.2495 14.2368C4.28974 14.3738 4.31388 14.4544 4.35412 14.5592C4.3766 14.6225 4.39541 14.6871 4.41046 14.7526C4.41199 14.7714 4.41199 14.7903 4.41046 14.8091C4.81446 15.8937 5.44697 16.8784 6.26497 17.6962C7.08297 18.5141 8.06727 19.1459 9.15091 19.5486C9.15091 19.5486 9.15091 19.5486 9.19115 19.5486L9.38431 19.605L9.70624 19.7098L10.1167 19.8146L10.4306 19.8872L10.9135 19.9597H11.1791C11.4286 19.9597 11.6861 20 11.9437 20C12.2012 20 12.4588 20 12.7082 19.9597H12.9738L13.4567 19.8872L13.7706 19.8146L14.1811 19.7098L14.503 19.605L14.6962 19.5486C14.6962 19.5486 14.6962 19.5486 14.7364 19.5486C15.8201 19.1459 16.8043 18.5141 17.6224 17.6962C18.4404 16.8784 19.0729 15.8937 19.4769 14.8091C19.4753 14.7903 19.4753 14.7714 19.4769 14.7526C19.4769 14.6882 19.5171 14.6237 19.5332 14.5592C19.5493 14.4947 19.6056 14.3496 19.6378 14.2368C19.67 14.1239 19.7103 13.9627 19.7425 13.8257L19.8149 13.5113L19.8873 13.0277C19.8873 12.939 19.8873 12.8504 19.8873 12.7617C19.8873 12.5118 19.9276 12.2539 19.9276 11.996C19.9276 11.738 20 11.5446 20 11.2947ZM14.9296 6.32947C16.1259 6.94501 17.0997 7.92028 17.7143 9.11839L15.4125 9.92443C15.0788 9.38884 14.6273 8.93669 14.0926 8.60252L14.9296 6.32947ZM10.6157 5.76524C10.7847 5.72494 10.9457 5.70076 11.1066 5.67657H11.2998C11.76 5.62821 12.2239 5.62821 12.6841 5.67657H12.8773C13.0382 5.67657 13.1992 5.72494 13.3682 5.76524H13.4165L12.6117 8.07053C12.3934 8.03693 12.1725 8.02343 11.9517 8.03023C11.7549 8.02997 11.5583 8.04614 11.3642 8.07859L10.5594 5.7733L10.6157 5.76524ZM9.05433 6.32947L9.85915 8.63476C9.32144 8.96796 8.86715 9.42018 8.53119 9.95668L6.22938 9.15063C6.83855 7.94055 7.81291 6.95344 9.01408 6.32947H9.05433ZM5.666 13.4388C5.62745 13.2798 5.60055 13.1181 5.58551 12.9552C5.58551 12.8826 5.58551 12.8181 5.58551 12.7537C5.53185 12.2931 5.53185 11.8278 5.58551 11.3673C5.58551 11.3028 5.58551 11.2383 5.58551 11.1657C5.60055 11.0028 5.62745 10.8411 5.666 10.6821C5.666 10.6821 5.666 10.6821 5.666 10.6338L7.96781 11.4398C7.90341 11.8294 7.90341 12.227 7.96781 12.6166L5.666 13.4227C5.666 13.4227 5.666 13.4549 5.666 13.4388ZM9.01408 17.7914C7.81779 17.1759 6.84399 16.2006 6.22938 15.0025L8.53119 14.1965C8.86485 14.7321 9.31632 15.1842 9.85111 15.5184L9.01408 17.7914ZM13.328 18.3557C13.159 18.396 12.998 18.4202 12.837 18.4443H12.6439C12.1837 18.4927 11.7197 18.4927 11.2596 18.4443H11.0664C10.9054 18.4443 10.7445 18.396 10.5755 18.3557H10.5272L11.332 16.0504C11.721 16.1149 12.118 16.1149 12.507 16.0504L13.3119 18.3557H13.328ZM12.7887 14.3254C12.6519 14.3738 12.5151 14.406 12.3863 14.4383C12.1203 14.4879 11.8475 14.4879 11.5815 14.4383C11.4527 14.4383 11.3159 14.3738 11.1791 14.3254C10.8394 14.208 10.5302 14.016 10.274 13.7636C10.0178 13.5112 9.82106 13.2047 9.69819 12.8665C9.64947 12.7328 9.61179 12.5953 9.58551 12.4554C9.53404 12.1892 9.53404 11.9156 9.58551 11.6494C9.61 11.5152 9.64499 11.3831 9.69014 11.2544C9.81148 10.9202 10.0049 10.6168 10.2567 10.3661C10.5085 10.1153 10.8125 9.9232 11.1469 9.80353C11.2837 9.75516 11.4205 9.72292 11.5493 9.69068C11.8153 9.64105 12.0881 9.64105 12.3541 9.69068C12.4829 9.69068 12.6197 9.75516 12.7565 9.80353C13.0895 9.9242 13.3918 10.1167 13.6422 10.3674C13.8925 10.6182 14.0847 10.921 14.2052 11.2544C14.2539 11.3881 14.2916 11.5256 14.3179 11.6655C14.3694 11.9317 14.3694 12.2053 14.3179 12.4715C14.2916 12.6114 14.2539 12.7489 14.2052 12.8826C14.0828 13.2131 13.8896 13.5127 13.6394 13.7605C13.3891 14.0084 13.0878 14.1984 12.7565 14.3174L12.7887 14.3254ZM14.8893 17.7995L14.0845 15.4942C14.6193 15.16 15.0708 14.7079 15.4044 14.1723L17.7062 14.9783C17.0873 16.1903 16.1012 17.175 14.8893 17.7914V17.7995ZM18.3903 12.7537C18.3903 12.8181 18.3903 12.8826 18.3903 12.9552C18.3753 13.1181 18.3484 13.2798 18.3099 13.4388C18.3099 13.4388 18.3099 13.4388 18.3099 13.4872L16.008 12.6811C16.0724 12.2915 16.0724 11.8939 16.008 11.5043L18.3099 10.6982C18.3099 10.6982 18.3099 10.6982 18.3099 10.7466C18.3484 10.9056 18.3753 11.0673 18.3903 11.2302C18.3903 11.3028 18.3903 11.3673 18.3903 11.4317C18.444 11.8923 18.444 12.3576 18.3903 12.8181V12.7537Z" fill="#606060"/>
</svg>
