<svg width="25" height="24" viewBox="0 0 25 24" fill="none" xmlns="http://www.w3.org/2000/svg">
<path d="M19.22 14.76C19.57 13.91 19.76 13 19.76 12C19.76 11.28 19.65 10.59 19.46 9.95001C18.81 10.1 18.13 10.18 17.42 10.18C15.966 10.1816 14.5329 9.83353 13.2415 9.16523C11.9502 8.49693 10.8384 7.52796 10 6.34001C9.1031 8.51018 7.41112 10.2558 5.27 11.22C5.23 11.47 5.23 11.74 5.23 12C5.23 12.9547 5.41804 13.9001 5.7834 14.7821C6.14875 15.6642 6.68425 16.4656 7.35933 17.1407C8.72272 18.5041 10.5719 19.27 12.5 19.27C13.55 19.27 14.56 19.04 15.47 18.63C16.04 19.72 16.3 20.26 16.28 20.26C14.64 20.81 13.37 21.08 12.5 21.08C10.08 21.08 7.77 20.13 6.07 18.42C5.036 17.3892 4.26737 16.123 3.83 14.73H2.5V10.18H3.59C3.92024 8.57252 4.67949 7.08442 5.78719 5.8736C6.89489 4.66278 8.30971 3.77441 9.88153 3.30277C11.4534 2.83112 13.1235 2.79378 14.7149 3.19471C16.3062 3.59565 17.7593 4.4199 18.92 5.58001C20.1802 6.83526 21.0398 8.43611 21.39 10.18H22.5V14.73H22.44L18.88 18L13.58 17.4V15.73H18.41L19.22 14.76ZM9.77 11.77C10.07 11.77 10.36 11.89 10.57 12.11C10.781 12.3228 10.8995 12.6103 10.8995 12.91C10.8995 13.2097 10.781 13.4972 10.57 13.71C10.36 13.92 10.07 14.04 9.77 14.04C9.14 14.04 8.63 13.54 8.63 12.91C8.63 12.28 9.14 11.77 9.77 11.77ZM15.22 11.77C15.85 11.77 16.35 12.28 16.35 12.91C16.35 13.54 15.85 14.04 15.22 14.04C14.59 14.04 14.08 13.54 14.08 12.91C14.08 12.6077 14.2001 12.3177 14.4139 12.1039C14.6277 11.8901 14.9177 11.77 15.22 11.77Z" fill="#FF334E"/>
</svg>
