<svg width="24" height="24" viewBox="0 0 24 24" fill="none" xmlns="http://www.w3.org/2000/svg">
<path d="M8.04967 4.21976L11.7721 7.84476C11.8443 7.91432 11.9017 7.99694 11.9408 8.08788C11.9799 8.17882 12 8.27631 12 8.37476C12 8.47321 11.9799 8.57069 11.9408 8.66163C11.9017 8.75257 11.8443 8.83519 11.7721 8.90475C11.7001 8.97469 11.6145 9.03014 11.5201 9.06791C11.4258 9.10568 11.3246 9.125 11.2224 9.12476C11.1203 9.125 11.0191 9.10568 10.9247 9.06791C10.8303 9.03014 10.7447 8.97469 10.6728 8.90475L8.27783 6.55976V16.2498C8.27783 16.4487 8.19588 16.6394 8.05001 16.7801C7.90414 16.9207 7.70629 16.9998 7.5 16.9998C7.29371 16.9998 7.09586 16.9207 6.94998 16.7801C6.80411 16.6394 6.72217 16.4487 6.72217 16.2498V6.55976L4.32725 8.90475C4.2551 8.97442 4.16942 9.02969 4.0751 9.06739C3.98078 9.1051 3.87968 9.12451 3.77758 9.12451C3.67548 9.12451 3.57437 9.1051 3.48005 9.06739C3.38574 9.02969 3.30006 8.97442 3.22791 8.90475C3.15566 8.83519 3.09834 8.75257 3.05923 8.66163C3.02013 8.57069 3 8.47321 3 8.37476C3 8.27631 3.02013 8.17882 3.05923 8.08788C3.09834 7.99694 3.15566 7.91432 3.22791 7.84476L6.95033 4.21976C7.02248 4.15009 7.10816 4.09482 7.20247 4.05712C7.29679 4.01941 7.3979 4 7.5 4C7.6021 4 7.7032 4.01941 7.79752 4.05712C7.89184 4.09482 7.97752 4.15009 8.04967 4.21976Z" fill="#606060"/>
<path d="M20.5202 14.9371C20.6145 14.9748 20.7002 15.0301 20.7723 15.0998C20.8446 15.1693 20.9019 15.2519 20.941 15.3429C20.9801 15.4338 21.0002 15.5313 21.0002 15.6298C21.0002 15.7282 20.9801 15.8257 20.941 15.9166C20.9019 16.0076 20.8446 16.0902 20.7723 16.1598L17.0499 19.7848C16.9779 19.8546 16.8922 19.91 16.7979 19.9478C16.7035 19.9855 16.6024 20.0049 16.5002 20.0048C16.3981 20.005 16.2969 19.9857 16.2025 19.9479C16.1082 19.9101 16.0225 19.8547 15.9506 19.7848L12.2282 16.1598C12.1559 16.0902 12.0986 16.0076 12.0595 15.9166C12.0204 15.8257 12.0002 15.7282 12.0002 15.6298C12.0002 15.5313 12.0204 15.4338 12.0595 15.3429C12.0986 15.2519 12.1559 15.1693 12.2282 15.0998C12.3003 15.0301 12.386 14.9748 12.4803 14.9371C12.5746 14.8994 12.6757 14.88 12.7778 14.88C12.8799 14.88 12.981 14.8994 13.0753 14.9371C13.1697 14.9748 13.2553 15.0301 13.3275 15.0998L15.7224 17.4388V7.74976C15.7224 7.55084 15.8044 7.36008 15.9502 7.21943C16.0961 7.07877 16.294 6.99976 16.5002 6.99976C16.7065 6.99976 16.9044 7.07877 17.0503 7.21943C17.1961 7.36008 17.2781 7.55084 17.2781 7.74976V17.4438L19.673 15.0998C19.7451 15.0301 19.8308 14.9748 19.9251 14.9371C20.0195 14.8994 20.1206 14.88 20.2227 14.88C20.3248 14.88 20.4259 14.8994 20.5202 14.9371Z" fill="#606060"/>
</svg>
