<svg width="16" height="17" viewBox="0 0 16 17" xmlns="http://www.w3.org/2000/svg">
<g id="ic:outline-thumb-up">
<path id="Vector" d="M5.99996 14.5014H12C12.5533 14.5014 13.0266 14.1681 13.2266 13.6881L15.24 8.98809C15.3 8.83476 15.3333 8.67476 15.3333 8.50142V7.16809C15.3333 6.43476 14.7333 5.83476 14 5.83476H9.79329L10.4266 2.78809L10.4466 2.57476C10.4466 2.30142 10.3333 2.04809 10.1533 1.86809L9.44663 1.16809L5.05329 5.56142C4.81329 5.80142 4.66663 6.13476 4.66663 6.50142V13.1681C4.66663 13.9014 5.26663 14.5014 5.99996 14.5014ZM5.99996 6.50142L8.89329 3.60809L7.99996 7.16809H14V8.50142L12 13.1681H5.99996V6.50142ZM0.666626 6.50142H3.33329V14.5014H0.666626V6.50142Z" />
</g>
</svg>
