<svg width="16" height="17" viewBox="0 0 16 17" xmlns="http://www.w3.org/2000/svg">
<g id="ic:outline-thumb-down">
<path id="Vector" d="M9.99996 2.50146H3.99996C3.44663 2.50146 2.97329 2.8348 2.77329 3.3148L0.759959 8.0148C0.699959 8.16813 0.666626 8.32813 0.666626 8.50146V9.8348C0.666626 10.5681 1.26663 11.1681 1.99996 11.1681H6.20663L5.57329 14.2148L5.55329 14.4281C5.55329 14.7015 5.66663 14.9548 5.84663 15.1348L6.55329 15.8348L10.9466 11.4415C11.1866 11.2015 11.3333 10.8681 11.3333 10.5015V3.8348C11.3333 3.10146 10.7333 2.50146 9.99996 2.50146ZM9.99996 10.5015L7.10663 13.3948L7.99996 9.8348H1.99996V8.50146L3.99996 3.8348H9.99996V10.5015ZM12.6666 2.50146H15.3333V10.5015H12.6666V2.50146Z"/>
</g>
</svg>
