<svg xmlns="http://www.w3.org/2000/svg" id="prefix__Icons_Baggage" width="24" height="24" data-name="Icons / Baggage" viewBox="0 0 24 24">
    <path id="prefix__Rectangle_28" d="M0 0H24V24H0z" data-name="Rectangle 28" style="fill:none"/>
    <path id="prefix__Path_41" d="M-63.3-80a2.693 2.693 0 0 1-2.7-2.684v-8.7a2.694 2.694 0 0 1 2.7-2.685h3.123v-.212A1.724 1.724 0 0 1-58.455-96h2.91a1.724 1.724 0 0 1 1.726 1.719v.212h3.119a2.694 2.694 0 0 1 2.7 2.685v8.7A2.693 2.693 0 0 1-50.7-80zm12.6-1.507a1.182 1.182 0 0 0 1.183-1.177v-8.7a1.183 1.183 0 0 0-1.183-1.179h-1.183v11.056zm-2.7 0v-11.056h-7.214v11.056zm-9.9-11.056a1.183 1.183 0 0 0-1.183 1.179v8.7a1.182 1.182 0 0 0 1.183 1.177h1.183v-11.056zm7.972-1.506v-.212a.214.214 0 0 0-.213-.213h-2.91a.214.214 0 0 0-.213.213v.212z" data-name="Path 41" transform="translate(69 100)"/>
</svg>
