<svg xmlns="http://www.w3.org/2000/svg" viewBox="0 0 10.18 10.78"><defs><style>.cls-1{fill:#3c96e2;}</style></defs><g id="Layer_2" data-name="Layer 2"><g id="Layer_1-2" data-name="Layer 1"><path class="cls-1" d="M2.21,10.78c0-.12,0-.18-.07-.18l-.32.15a.16.16,0,0,0-.11-.14H1.6a.53.53,0,0,0-.28.1l-.07-.14a.56.56,0,0,1-.07-.13,7.93,7.93,0,0,1-.37-.77C.7,9.37.59,9.1.49,8.83S.32,8.37.27,8.22.19,7.91.14,7.67.05,7.12,0,6.75a.55.55,0,0,0,.24.1q.09,0,.18-.3a.18.18,0,0,0,.15.06A.15.15,0,0,0,.7,6.55l.22-.33.26.08h0a.09.09,0,0,0,.06,0,.12.12,0,0,1,.08,0,.32.32,0,0,1,.17-.07h0A.85.85,0,0,1,2,6.78c.17.71.33,1.06.5,1.06s.37-.18.59-.53c.11-.18.22-.38.34-.62s.24-.49.36-.78c0,.11,0,.17.06.17S4,6,4.07,5.73s.32-.56.58-1a10.18,10.18,0,0,1,.56-.85c.23-.32.48-.65.74-1s.51-.66.76-1l.67-.77A3.81,3.81,0,0,1,7.81.78a4.19,4.19,0,0,0,.84-.7,1.06,1.06,0,0,1,0,.19.39.39,0,0,0,0,.09s0,.06.05.06L9,.22V.28c0,.07,0,.11.06.11s.08,0,.17-.12A.65.65,0,0,0,9.41.08l0,.2L9.86,0,9.74.25A.73.73,0,0,1,10.07.1s.06,0,.08.07a.23.23,0,0,1,0,.11.48.48,0,0,1-.07.2L9.93.74l-.28.34-.56.63c-.26.27-.59.65-1,1.13-.11.12-.29.34-.52.65s-.5.64-.8,1-.58.78-.87,1.19-.54.76-.77,1.09-.38.55-.47.71L3.78,9l-.46.79a3.88,3.88,0,0,1-.28.4,3.25,3.25,0,0,1-.46.45l-.13-.07-.11.07Z"/></g></g></svg>