<svg width="16" height="16" viewBox="0 0 16 16" xmlns="http://www.w3.org/2000/svg">
<path d="M11 1.5L10.2969 0.4453C10.1114 0.167101 9.79917 0 9.46482 0H6.53518C6.20083 0 5.8886 0.167101 5.70313 0.4453L5 1.5H2.07037C1.40166 1.5 0.777199 1.8342 0.406267 2.3906L0 3H16L15.5937 2.3906C15.2228 1.8342 14.5983 1.5 13.9296 1.5H11Z" fill="#141414"/>
<path d="M5.11096 7C4.66865 7 4.3224 7.38079 4.36433 7.82111L4.7929 12.3211C4.82956 12.706 5.15286 13 5.53953 13C5.98183 13 6.32808 12.6192 6.28615 12.1789L5.85758 7.67889C5.82092 7.29397 5.49762 7 5.11096 7Z" fill="#141414"/>
<path d="M8.00042 7C7.4912 7 7.08183 7.41923 7.09395 7.92831L7.196 12.2145C7.2064 12.6513 7.56349 13 8.00042 13C8.43735 13 8.79443 12.6513 8.80484 12.2145L8.90689 7.92831C8.91901 7.41923 8.50964 7 8.00042 7Z" fill="#141414"/>
<path d="M10.1433 7.67889C10.1799 7.29397 10.5032 7 10.8899 7C11.3322 7 11.6784 7.38079 11.6365 7.82111L11.2079 12.3211C11.1713 12.706 10.848 13 10.4613 13C10.019 13 9.67276 12.6192 9.71469 12.1789L10.1433 7.67889Z" fill="#141414"/>
<path fill-rule="evenodd" clip-rule="evenodd" d="M1 4H15L13.2785 14.3288C13.1178 15.2932 12.2834 16 11.3057 16H4.69425C3.71658 16 2.8822 15.2932 2.72147 14.3288L1 4ZM4.20106 14.0822L2.77069 5.5H13.2293L11.7989 14.0822C11.7588 14.3233 11.5502 14.5 11.3057 14.5H4.69425C4.44983 14.5 4.24124 14.3233 4.20106 14.0822Z" fill="#141414"/>
</svg>
