<svg width="14" height="14" viewBox="0 0 14 14" fill="none" xmlns="http://www.w3.org/2000/svg">
<path d="M8.29771 0.292892C8.68823 -0.0976305 9.3214 -0.0976305 9.71192 0.292892L13.6904 4.27175C13.8811 4.45385 14 4.71064 14 4.99518C14 5.09157 13.9863 5.18476 13.9608 5.27296C13.9512 5.30636 13.9399 5.33935 13.9267 5.3718C13.8779 5.49218 13.8047 5.60498 13.707 5.70261C13.5054 5.90425 13.239 6.00178 12.9748 5.99518H1C0.447716 5.99518 0 5.54747 0 4.99518C0 4.4429 0.447716 3.99518 1 3.99518H10.5856L8.29771 1.70711C7.90718 1.31658 7.90718 0.683417 8.29771 0.292892Z" fill="#EF4123"/>
<path d="M5.70229 13.7027C5.31177 14.0932 4.6786 14.0932 4.28808 13.7027L0.309608 9.72386C0.118851 9.54175 0 9.28496 0 9.00042C0 8.90403 0.0136948 8.81084 0.0391464 8.72265C0.0487595 8.68925 0.0601349 8.65625 0.0732956 8.62381C0.122108 8.50343 0.195335 8.39063 0.292969 8.293C0.494614 8.09135 0.760956 7.99382 1.02518 8.00042H13C13.5523 8.00042 14 8.44813 14 9.00042C14 9.5527 13.5523 10.0004 13 10.0004H3.41444L5.70229 12.2885C6.09282 12.679 6.09282 13.3122 5.70229 13.7027Z" fill="#EF4123"/>
</svg>
