<svg width="25" height="24" viewBox="0 0 25 24" xmlns="http://www.w3.org/2000/svg">
<path d="M6.5 2C5.96957 2 5.46086 2.21071 5.08579 2.58579C4.71071 2.96086 4.5 3.46957 4.5 4V20C4.5 20.5304 4.71071 21.0391 5.08579 21.4142C5.46086 21.7893 5.96957 22 6.5 22H18.5C19.0304 22 19.5391 21.7893 19.9142 21.4142C20.2893 21.0391 20.5 20.5304 20.5 20V4C20.5 3.46957 20.2893 2.96086 19.9142 2.58579C19.5391 2.21071 19.0304 2 18.5 2H6.5ZM12.5 5C13.8261 5 15.0979 5.52678 16.0355 6.46447C16.9732 7.40215 17.5 8.67392 17.5 10C17.5 11.3261 16.9732 12.5979 16.0355 13.5355C15.0979 14.4732 13.8261 15 12.5 15C11.1739 15 9.90215 14.4732 8.96447 13.5355C8.02678 12.5979 7.5 11.3261 7.5 10C7.5 8.67392 8.02678 7.40215 8.96447 6.46447C9.90215 5.52678 11.1739 5 12.5 5ZM12.5 6C12.09 6.62 11.75 7.29 11.54 8H13.46C13.2448 7.28792 12.921 6.61331 12.5 6ZM11.2 6.22C10.28 6.53 9.5 7.17 9.04 8H10.5C10.68 7.38 10.9 6.78 11.2 6.22ZM13.79 6.22C14.09 6.78 14.32 7.38 14.5 8H15.96C15.5 7.17 14.71 6.54 13.79 6.22ZM8.63 9C8.55 9.32 8.5 9.65 8.5 10C8.5 10.35 8.55 10.68 8.63 11H10.32C10.28 10.67 10.25 10.34 10.25 10C10.25 9.66 10.28 9.33 10.32 9H8.63ZM11.33 9C11.28 9.32 11.25 9.66 11.25 10C11.25 10.34 11.28 10.67 11.33 11H13.67C13.71 10.67 13.75 10.34 13.75 10C13.75 9.66 13.71 9.32 13.67 9H11.33ZM14.68 9C14.72 9.33 14.75 9.66 14.75 10C14.75 10.34 14.72 10.67 14.68 11H16.37C16.45 10.68 16.5 10.35 16.5 10C16.5 9.65 16.45 9.32 16.37 9H14.68ZM9.04 12C9.5 12.83 10.28 13.46 11.2 13.78C10.9 13.22 10.68 12.63 10.5 12H9.04ZM11.54 12C11.75 12.72 12.09 13.38 12.5 14C12.92 13.38 13.25 12.72 13.46 12H11.54ZM14.5 12C14.32 12.63 14.09 13.22 13.79 13.78C14.71 13.46 15.5 12.83 15.96 12H14.5ZM7.5 17H17.5V19H7.5V17Z"/>
</svg>
