<svg width="24" height="24" viewBox="0 0 24 24" fill="none" xmlns="http://www.w3.org/2000/svg">
<path fill-rule="evenodd" clip-rule="evenodd" d="M12.8724 3.50967L12.0009 1.96021L11.1293 3.50967L2.12929 19.5097L1.29102 20.9999H3.00086H21.0009H22.7107L21.8724 19.5097L12.8724 3.50967Z" stroke="#262526" stroke-width="2" stroke-linejoin="round"/>
<path fill-rule="evenodd" clip-rule="evenodd" d="M12 17.75C12.6904 17.75 13.25 17.1904 13.25 16.5C13.25 15.8096 12.6904 15.25 12 15.25C11.3096 15.25 10.75 15.8096 10.75 16.5C10.75 17.1904 11.3096 17.75 12 17.75Z" fill="#262526"/>
<path d="M13 10C13 9.44772 12.5523 9 12 9C11.4477 9 11 9.44772 11 10V13C11 13.5523 11.4477 14 12 14C12.5523 14 13 13.5523 13 13V10Z" fill="#262526"/>
</svg>
