<svg width="22" height="22" viewBox="0 0 22 22" fill="none" xmlns="http://www.w3.org/2000/svg">
<path fill-rule="evenodd" clip-rule="evenodd" d="M11 0.5C16.7992 0.5 21.5 5.20079 21.5 11C21.5 16.7992 16.7992 21.5 11 21.5C5.20129 21.5 0.5 16.799 0.5 11C0.5 10.7114 0.511931 10.4225 0.535518 10.1353C0.569433 9.72252 0.931585 9.41535 1.34441 9.44927C1.75723 9.48318 2.0644 9.84534 2.03048 10.2582C2.01024 10.5046 2 10.7526 2 11C2 15.9705 6.0297 20 11 20C15.9708 20 20 15.9708 20 11C20 6.02921 15.9708 2 11 2C8.58321 2 6.32724 2.95953 4.66745 4.60471L7.11275 4.60828C7.49738 4.60878 7.814 4.89872 7.85684 5.27178L7.86177 5.35925C7.86127 5.74388 7.57133 6.0605 7.19827 6.10334L7.1108 6.10827L3.0818 6.10302C2.69717 6.10252 2.38055 5.81258 2.33771 5.43952L2.33573 5.42564C2.32656 5.36332 2.32519 5.29982 2.33187 5.23674L2.33803 1.32305C2.33857 0.908835 2.67479 0.573486 3.089 0.574025C3.47363 0.574527 3.79025 0.86447 3.83309 1.23753L3.83802 1.325L3.83468 3.32457C5.74754 1.53697 8.28769 0.5 11 0.5ZM11.0003 4.88097C11.4803 4.88097 11.8695 5.27023 11.8695 5.75023V6.96298C12.405 7.06047 12.897 7.22848 13.3298 7.48123C13.7355 7.71973 13.8203 8.27473 13.5398 8.65273C13.2908 8.98647 12.8363 9.06448 12.4748 8.85822C11.9258 8.54698 11.301 8.40072 10.7025 8.40072C9.9713 8.40072 9.55805 8.71723 9.55805 9.20323C9.55805 10.482 14.2208 9.61797 14.2208 12.6502C14.2208 13.9117 13.4393 14.9032 11.8695 15.1747V16.2502C11.8695 16.7295 11.4803 17.1195 11.0003 17.1195C10.5203 17.1195 10.1311 16.7295 10.1311 16.2502V15.201C9.3323 15.0952 8.6738 14.8372 8.13755 14.478C7.7648 14.2282 7.6943 13.7055 7.9523 13.3387C8.20805 12.975 8.7053 12.8805 9.0773 13.1272C9.6023 13.476 10.2675 13.722 11.0438 13.722C12.0053 13.722 12.4553 13.2952 12.4553 12.8205C12.4553 11.4082 7.7798 12.3937 7.7798 9.33822C7.7798 8.16822 8.6573 7.17598 10.1311 6.92848V5.75023C10.1311 5.27023 10.5203 4.88097 11.0003 4.88097Z" fill="#262526"/>
</svg>
